Sans_opsz17.ufo
<glyph name="exclam" format="2">
	<unicode hex="0021"/>
	<advance width="299"/>
	<outline>
		<contour>
			<point x="114" y="424" type="line"/>
			<point x="118" y="169" type="line"/>
			<point x="118" y="169" type="line"/>
			<point x="182" y="169" type="line"/>
			<point x="182" y="169" type="line"/>
			<point x="186" y="424" type="line"/>
			<point x="190" y="694" type="line"/>
			<point x="190" y="694" type="line"/>
			<point x="110" y="694" type="line"/>
			<point x="110" y="694" type="line"/>
		</contour>
		<contour>
			<point x="110" y="0" type="line"/>
			<point x="110" y="0" type="line"/>
			<point x="190" y="0" type="line"/>
			<point x="190" y="0" type="line"/>
			<point x="190" y="80" type="line"/>
			<point x="190" y="80" type="line"/>
			<point x="110" y="80" type="line"/>
			<point x="110" y="80" type="line"/>
		</contour>
	</outline>
</glyph>
<glyph name="numbersign" format="2">
	<unicode hex="0023"/>
	<advance width="1566"/>
	<outline>
		<contour>
			<point x="982" y="286" type="line"/>
			<point x="1394" y="286" type="line" smooth="yes"/>
			<point x="1428" y="286"/>
			<point x="1462" y="286"/>
			<point x="1462" y="322" type="curve" smooth="yes"/>
			<point x="1462" y="356"/>
			<point x="1432" y="356"/>
			<point x="1402" y="356" type="curve" smooth="yes"/>
			<point x="1002" y="356" type="line"/>
			<point x="1070" y="642" type="line"/>
			<point x="1402" y="642" type="line" smooth="yes"/>
			<point x="1432" y="642"/>
			<point x="1462" y="642"/>
			<point x="1462" y="676" type="curve" smooth="yes"/>
			<point x="1462" y="712"/>
			<point x="1428" y="712"/>
			<point x="1394" y="712" type="curve" smooth="yes"/>
			<point x="1090" y="712" type="line"/>
			<point x="1244" y="1316" type="line" smooth="yes"/>
			<point x="1250" y="1336"/>
			<point x="1252" y="1346"/>
			<point x="1252" y="1352" type="curve" smooth="yes"/>
			<point x="1252" y="1372"/>
			<point x="1236" y="1388"/>
			<point x="1216" y="1388" type="curve" smooth="yes"/>
			<point x="1188" y="1388"/>
			<point x="1182" y="1360"/>
			<point x="1178" y="1344" type="curve" smooth="yes"/>
			<point x="1018" y="712" type="line"/>
			<point x="656" y="712" type="line"/>
			<point x="810" y="1316" type="line" smooth="yes"/>
			<point x="816" y="1336"/>
			<point x="818" y="1346"/>
			<point x="818" y="1352" type="curve" smooth="yes"/>
			<point x="818" y="1372"/>
			<point x="802" y="1388"/>
			<point x="782" y="1388" type="curve" smooth="yes"/>
			<point x="754" y="1388"/>
			<point x="748" y="1360"/>
			<point x="744" y="1344" type="curve" smooth="yes"/>
			<point x="584" y="712" type="line"/>
			<point x="172" y="712" type="line" smooth="yes"/>
			<point x="138" y="712"/>
			<point x="104" y="712"/>
			<point x="104" y="676" type="curve" smooth="yes"/>
			<point x="104" y="642"/>
			<point x="134" y="642"/>
			<point x="164" y="642" type="curve" smooth="yes"/>
			<point x="564" y="642" type="line"/>
			<point x="496" y="356" type="line"/>
			<point x="164" y="356" type="line" smooth="yes"/>
			<point x="134" y="356"/>
			<point x="104" y="356"/>
			<point x="104" y="322" type="curve" smooth="yes"/>
			<point x="104" y="286"/>
			<point x="138" y="286"/>
			<point x="172" y="286" type="curve" smooth="yes"/>
			<point x="476" y="286" type="line"/>
			<point x="322" y="-318" type="line" smooth="yes"/>
			<point x="316" y="-338"/>
			<point x="314" y="-348"/>
			<point x="314" y="-354" type="curve" smooth="yes"/>
			<point x="314" y="-374"/>
			<point x="330" y="-390"/>
			<point x="350" y="-390" type="curve" smooth="yes"/>
			<point x="378" y="-390"/>
			<point x="384" y="-362"/>
			<point x="388" y="-346" type="curve" smooth="yes"/>
			<point x="548" y="286" type="line"/>
			<point x="910" y="286" type="line"/>
			<point x="756" y="-318" type="line" smooth="yes"/>
			<point x="750" y="-338"/>
			<point x="748" y="-348"/>
			<point x="748" y="-354" type="curve" smooth="yes"/>
			<point x="748" y="-374"/>
			<point x="764" y="-390"/>
			<point x="784" y="-390" type="curve" smooth="yes"/>
			<point x="812" y="-390"/>
			<point x="818" y="-362"/>
			<point x="822" y="-346" type="curve" smooth="yes"/>
		</contour>
		<contour>
			<point x="568" y="356" type="line"/>
			<point x="636" y="642" type="line"/>
			<point x="998" y="642" type="line"/>
			<point x="930" y="356" type="line"/>
		</contour>
	</outline>
</glyph>
<glyph name="dollar" format="2">
	<unicode hex="0024"/>
	<advance width="940"/>
	<outline>
		<contour>
			<point x="528" y="1274" type="line"/>
			<point x="638" y="1264"/>
			<point x="718" y="1214"/>
			<point x="778" y="1162" type="curve"/>
			<point x="778" y="1162"/>
			<point x="778" y="1162"/>
			<point x="778" y="1162" type="curve"/>
			<point x="778" y="1162"/>
			<point x="778" y="1162"/>
			<point x="778" y="1162" type="curve"/>
			<point x="800" y="1286" type="line"/>
			<point x="800" y="1286"/>
			<point x="800" y="1286"/>
			<point x="800" y="1286" type="curve"/>
			<point x="800" y="1294"/>
			<point x="696" y="1388"/>
			<point x="528" y="1402" type="curve"/>
			<point x="528" y="1498" type="line"/>
			<point x="528" y="1498"/>
			<point x="528" y="1498"/>
			<point x="528" y="1498" type="curve"/>
			<point x="412" y="1498" type="line"/>
			<point x="412" y="1498"/>
			<point x="412" y="1498"/>
			<point x="412" y="1498" type="curve"/>
			<point x="412" y="1400" type="line"/>
			<point x="224" y="1366"/>
			<point x="104" y="1202"/>
			<point x="104" y="1026" type="curve" smooth="yes"/>
			<point x="104" y="942"/>
			<point x="138" y="716"/>
			<point x="412" y="650" type="curve"/>
			<point x="412" y="116" type="line"/>
			<point x="298" y="128"/>
			<point x="190" y="176"/>
			<point x="108" y="256" type="curve"/>
			<point x="108" y="256"/>
			<point x="108" y="256"/>
			<point x="108" y="256" type="curve"/>
			<point x="108" y="256"/>
			<point x="108" y="256"/>
			<point x="108" y="256" type="curve"/>
			<point x="100" y="211"/>
			<point x="92" y="167"/>
			<point x="84" y="122" type="curve"/>
			<point x="84" y="122"/>
			<point x="84" y="122"/>
			<point x="84" y="122" type="curve"/>
			<point x="162" y="60"/>
			<point x="266" y="2"/>
			<point x="412" y="-14" type="curve"/>
			<point x="412" y="-110" type="line"/>
			<point x="412" y="-110"/>
			<point x="412" y="-110"/>
			<point x="412" y="-110" type="curve"/>
			<point x="528" y="-110" type="line"/>
			<point x="528" y="-110"/>
			<point x="528" y="-110"/>
			<point x="528" y="-110" type="curve"/>
			<point x="528" y="-10" type="line"/>
			<point x="728" y="30"/>
			<point x="834" y="214"/>
			<point x="834" y="390" type="curve" smooth="yes"/>
			<point x="834" y="550"/>
			<point x="746" y="746"/>
			<point x="528" y="792" type="curve"/>
		</contour>
		<contour>
			<point x="412" y="824" type="line"/>
			<point x="306" y="854"/>
			<point x="246" y="948"/>
			<point x="246" y="1046" type="curve" smooth="yes"/>
			<point x="246" y="1134"/>
			<point x="298" y="1236"/>
			<point x="412" y="1268" type="curve"/>
		</contour>
		<contour>
			<point x="528" y="618" type="line"/>
			<point x="648" y="580"/>
			<point x="692" y="460"/>
			<point x="692" y="370" type="curve" smooth="yes"/>
			<point x="692" y="280"/>
			<point x="648" y="160"/>
			<point x="528" y="122" type="curve"/>
		</contour>
	</outline>
</glyph>
<glyph name="percent" format="2">
	<unicode hex="0025"/>
	<advance width="1566"/>
	<outline>
		<contour>
			<point x="368" y="-110" type="curve" smooth="yes"/>
			<point x="386" y="-110"/>
			<point x="390" y="-102"/>
			<point x="406" y="-74" type="curve" smooth="yes"/>
			<point x="1226" y="1430" type="line" smooth="yes"/>
			<point x="1238" y="1450"/>
			<point x="1238" y="1460"/>
			<point x="1238" y="1462" type="curve" smooth="yes"/>
			<point x="1238" y="1484"/>
			<point x="1220" y="1498"/>
			<point x="1204" y="1498" type="curve" smooth="yes"/>
			<point x="1182" y="1498"/>
			<point x="1172" y="1482"/>
			<point x="1162" y="1462" type="curve" smooth="yes"/>
			<point x="344" y="-42" type="line" smooth="yes"/>
			<point x="340" y="-50"/>
			<point x="332" y="-62"/>
			<point x="332" y="-74" type="curve" smooth="yes"/>
			<point x="332" y="-96"/>
			<point x="350" y="-110"/>
		</contour>
		<contour>
			<point x="366" y="816" type="curve" smooth="yes"/>
			<point x="324" y="816"/>
			<point x="256" y="854"/>
			<point x="256" y="1096" type="curve" smooth="yes"/>
			<point x="256" y="1336"/>
			<point x="324" y="1376"/>
			<point x="366" y="1376" type="curve" smooth="yes"/>
			<point x="440" y="1376"/>
			<point x="480" y="1230"/>
			<point x="480" y="1096" type="curve" smooth="yes"/>
			<point x="480" y="962"/>
			<point x="440" y="816"/>
		</contour>
		<contour>
			<point x="366" y="694" type="curve" smooth="yes"/>
			<point x="504" y="694"/>
			<point x="626" y="864"/>
			<point x="626" y="1096" type="curve" smooth="yes"/>
			<point x="626" y="1328"/>
			<point x="502" y="1498"/>
			<point x="366" y="1498" type="curve" smooth="yes"/>
			<point x="232" y="1498"/>
			<point x="104" y="1332"/>
			<point x="104" y="1096" type="curve" smooth="yes"/>
			<point x="104" y="860"/>
			<point x="232" y="694"/>
		</contour>
		<contour>
			<point x="1202" y="12" type="curve" smooth="yes"/>
			<point x="1160" y="12"/>
			<point x="1092" y="50"/>
			<point x="1092" y="292" type="curve" smooth="yes"/>
			<point x="1092" y="532"/>
			<point x="1160" y="572"/>
			<point x="1202" y="572" type="curve" smooth="yes"/>
			<point x="1276" y="572"/>
			<point x="1316" y="426"/>
			<point x="1316" y="292" type="curve" smooth="yes"/>
			<point x="1316" y="158"/>
			<point x="1276" y="12"/>
		</contour>
		<contour>
			<point x="1202" y="-110" type="curve" smooth="yes"/>
			<point x="1340" y="-110"/>
			<point x="1462" y="60"/>
			<point x="1462" y="292" type="curve" smooth="yes"/>
			<point x="1462" y="524"/>
			<point x="1338" y="694"/>
			<point x="1202" y="694" type="curve" smooth="yes"/>
			<point x="1068" y="694"/>
			<point x="940" y="528"/>
			<point x="940" y="292" type="curve" smooth="yes"/>
			<point x="940" y="56"/>
			<point x="1068" y="-110"/>
		</contour>
	</outline>
</glyph>
<glyph name="ampersand" format="2">
	<unicode hex="0026"/>
	<advance width="1424"/>
	<outline>
		<contour>
			<point x="424" y="-32" type="curve" smooth="yes"/>
			<point x="562" y="-32"/>
			<point x="696" y="14"/>
			<point x="798" y="80" type="curve"/>
			<point x="912" y="-10"/>
			<point x="1014" y="-32"/>
			<point x="1100" y="-32" type="curve" smooth="yes"/>
			<point x="1128" y="-32"/>
			<point x="1212" y="-30"/>
			<point x="1318" y="-2" type="curve"/>
			<point x="1318" y="-2"/>
			<point x="1318" y="-2"/>
			<point x="1318" y="-2" type="curve"/>
			<point x="1318" y="130" type="line"/>
			<point x="1318" y="130"/>
			<point x="1318" y="130"/>
			<point x="1318" y="130" type="curve"/>
			<point x="1318" y="130"/>
			<point x="1318" y="130"/>
			<point x="1318" y="130" type="curve"/>
			<point x="1218" y="100"/>
			<point x="1134" y="96"/>
			<point x="1104" y="96" type="curve" smooth="yes"/>
			<point x="1062" y="96"/>
			<point x="1006" y="100"/>
			<point x="914" y="168" type="curve"/>
			<point x="926" y="178"/>
			<point x="1152" y="372"/>
			<point x="1252" y="754" type="curve"/>
			<point x="1252" y="754"/>
			<point x="1252" y="754"/>
			<point x="1252" y="754" type="curve"/>
			<point x="1128" y="790" type="line"/>
			<point x="1128" y="790"/>
			<point x="1128" y="790"/>
			<point x="1128" y="790" type="curve"/>
			<point x="1028" y="430"/>
			<point x="850" y="280"/>
			<point x="822" y="256" type="curve"/>
			<point x="784" y="298"/>
			<point x="636" y="472"/>
			<point x="530" y="684" type="curve"/>
			<point x="616" y="762"/>
			<point x="824" y="948"/>
			<point x="824" y="1112" type="curve" smooth="yes"/>
			<point x="824" y="1264"/>
			<point x="724" y="1420"/>
			<point x="568" y="1420" type="curve" smooth="yes"/>
			<point x="396" y="1420"/>
			<point x="300" y="1234"/>
			<point x="300" y="1030" type="curve" smooth="yes"/>
			<point x="300" y="910"/>
			<point x="324" y="806"/>
			<point x="362" y="694" type="curve"/>
			<point x="334" y="670"/>
			<point x="234" y="578"/>
			<point x="190" y="534" type="curve" smooth="yes"/>
			<point x="160" y="506"/>
			<point x="78" y="430"/>
			<point x="78" y="294" type="curve" smooth="yes"/>
			<point x="78" y="124"/>
			<point x="218" y="-32"/>
		</contour>
		<contour>
			<point x="482" y="808" type="curve"/>
			<point x="444" y="918"/>
			<point x="432" y="1030"/>
			<point x="432" y="1098" type="curve" smooth="yes"/>
			<point x="432" y="1250"/>
			<point x="510" y="1298"/>
			<point x="566" y="1298" type="curve" smooth="yes"/>
			<point x="670" y="1298"/>
			<point x="678" y="1146"/>
			<point x="678" y="1116" type="curve" smooth="yes"/>
			<point x="678" y="1000"/>
			<point x="566" y="890"/>
		</contour>
		<contour>
			<point x="414" y="576" type="curve"/>
			<point x="460" y="482"/>
			<point x="566" y="320"/>
			<point x="700" y="170" type="curve"/>
			<point x="616" y="124"/>
			<point x="522" y="96"/>
			<point x="426" y="96" type="curve" smooth="yes"/>
			<point x="288" y="96"/>
			<point x="230" y="218"/>
			<point x="230" y="306" type="curve" smooth="yes"/>
			<point x="230" y="402"/>
			<point x="280" y="452"/>
			<point x="300" y="470" type="curve"/>
			<point x="336" y="508"/>
			<point x="374" y="542"/>
		</contour>
	</outline>
</glyph>
<glyph name="parenleft" format="2">
	<unicode hex="0028"/>
	<advance width="730"/>
	<outline>
		<contour>
			<point x="148" y="500" type="curve" smooth="yes"/>
			<point x="148" y="-134"/>
			<point x="396" y="-388"/>
			<point x="504" y="-500" type="curve"/>
			<point x="504" y="-500"/>
			<point x="504" y="-500"/>
			<point x="504" y="-500" type="curve"/>
			<point x="626" y="-500" type="line"/>
			<point x="626" y="-500"/>
			<point x="626" y="-500"/>
			<point x="626" y="-500" type="curve"/>
			<point x="626" y="-500"/>
			<point x="626" y="-500"/>
			<point x="626" y="-500" type="curve"/>
			<point x="380" y="-244"/>
			<point x="300" y="114"/>
			<point x="300" y="498" type="curve" smooth="yes"/>
			<point x="300" y="880"/>
			<point x="376" y="1240"/>
			<point x="626" y="1498" type="curve"/>
			<point x="626" y="1498"/>
			<point x="626" y="1498"/>
			<point x="626" y="1498" type="curve"/>
			<point x="626" y="1498"/>
			<point x="626" y="1498"/>
			<point x="626" y="1498" type="curve"/>
			<point x="504" y="1498" type="line"/>
			<point x="504" y="1498"/>
			<point x="504" y="1498"/>
			<point x="504" y="1498" type="curve"/>
			<point x="396" y="1388"/>
			<point x="148" y="1132"/>
		</contour>
	</outline>
</glyph>
<glyph name="parenright" format="2">
	<unicode hex="0029"/>
	<advance width="730"/>
	<outline>
		<contour>
			<point x="582" y="500" type="curve" smooth="yes"/>
			<point x="582" y="1132"/>
			<point x="334" y="1388"/>
			<point x="226" y="1498" type="curve"/>
			<point x="226" y="1498"/>
			<point x="226" y="1498"/>
			<point x="226" y="1498" type="curve"/>
			<point x="104" y="1498" type="line"/>
			<point x="104" y="1498"/>
			<point x="104" y="1498"/>
			<point x="104" y="1498" type="curve"/>
			<point x="104" y="1498"/>
			<point x="104" y="1498"/>
			<point x="104" y="1498" type="curve"/>
			<point x="354" y="1240"/>
			<point x="430" y="880"/>
			<point x="430" y="498" type="curve" smooth="yes"/>
			<point x="430" y="114"/>
			<point x="350" y="-244"/>
			<point x="104" y="-500" type="curve"/>
			<point x="104" y="-500"/>
			<point x="104" y="-500"/>
			<point x="104" y="-500" type="curve"/>
			<point x="104" y="-500"/>
			<point x="104" y="-500"/>
			<point x="104" y="-500" type="curve"/>
			<point x="226" y="-500" type="line"/>
			<point x="226" y="-500"/>
			<point x="226" y="-500"/>
			<point x="226" y="-500" type="curve"/>
			<point x="334" y="-388"/>
			<point x="582" y="-134"/>
		</contour>
	</outline>
</glyph>
<glyph name="asterisk" format="2">
	<unicode hex="002A"/>
	<advance width="470"/>
	<outline>
		<contour>
			<point x="235" y="319" type="curve" smooth="yes"/>
			<point x="249" y="319"/>
			<point x="268" y="329"/>
			<point x="268" y="353" type="curve"/>
			<point x="265.336" y="397.955"/>
			<point x="262.672" y="442.91"/>
			<point x="260" y="488" type="curve"/>
			<point x="352" y="421" type="line" smooth="yes"/>
			<point x="364" y="412"/>
			<point x="367" y="410"/>
			<point x="376" y="410" type="curve" smooth="yes"/>
			<point x="392" y="410"/>
			<point x="410" y="425"/>
			<point x="410" y="445" type="curve" smooth="yes"/>
			<point x="410" y="464"/>
			<point x="396" y="472"/>
			<point x="388" y="476" type="curve" smooth="yes"/>
			<point x="281" y="534" type="line"/>
			<point x="389" y="592" type="line" smooth="yes"/>
			<point x="401" y="599"/>
			<point x="410" y="609"/>
			<point x="410" y="623" type="curve" smooth="yes"/>
			<point x="410" y="643"/>
			<point x="392" y="658"/>
			<point x="376" y="658" type="curve" smooth="yes"/>
			<point x="367" y="658"/>
			<point x="360" y="654"/>
			<point x="352" y="648" type="curve" smooth="yes"/>
			<point x="260" y="580" type="line"/>
			<point x="262.664" y="624.955"/>
			<point x="265.328" y="669.91"/>
			<point x="268" y="715" type="curve"/>
			<point x="268" y="738"/>
			<point x="251" y="749"/>
			<point x="234" y="749" type="curve" smooth="yes"/>
			<point x="220" y="749"/>
			<point x="201" y="739"/>
			<point x="201" y="715" type="curve"/>
			<point x="203.664" y="670.045"/>
			<point x="206.328" y="625.09"/>
			<point x="209" y="580" type="curve"/>
			<point x="117" y="647" type="line" smooth="yes"/>
			<point x="105" y="656"/>
			<point x="102" y="658"/>
			<point x="93" y="658" type="curve" smooth="yes"/>
			<point x="77" y="658"/>
			<point x="59" y="643"/>
			<point x="59" y="623" type="curve" smooth="yes"/>
			<point x="59" y="604"/>
			<point x="73" y="596"/>
			<point x="81" y="592" type="curve" smooth="yes"/>
			<point x="188" y="534" type="line"/>
			<point x="80" y="476" type="line" smooth="yes"/>
			<point x="68" y="469"/>
			<point x="59" y="459"/>
			<point x="59" y="445" type="curve" smooth="yes"/>
			<point x="59" y="425"/>
			<point x="77" y="410"/>
			<point x="93" y="410" type="curve" smooth="yes"/>
			<point x="102" y="410"/>
			<point x="109" y="414"/>
			<point x="117" y="420" type="curve" smooth="yes"/>
			<point x="209" y="488" type="line"/>
			<point x="206.336" y="443.045"/>
			<point x="203.672" y="398.09"/>
			<point x="201" y="353" type="curve"/>
			<point x="201" y="330"/>
			<point x="218" y="319"/>
		</contour>
	</outline>
</glyph>
<glyph name="plus" format="2">
	<unicode hex="002B"/>
	<advance width="1462"/>
	<outline>
		<contour>
			<point x="766" y="464" type="line"/>
			<point x="1294" y="464" type="line" smooth="yes"/>
			<point x="1322" y="464"/>
			<point x="1356" y="464"/>
			<point x="1356" y="498" type="curve" smooth="yes"/>
			<point x="1356" y="534"/>
			<point x="1324" y="534"/>
			<point x="1294" y="534" type="curve" smooth="yes"/>
			<point x="766" y="534" type="line"/>
			<point x="766" y="1064" type="line" smooth="yes"/>
			<point x="766" y="1092"/>
			<point x="766" y="1126"/>
			<point x="732" y="1126" type="curve" smooth="yes"/>
			<point x="696" y="1126"/>
			<point x="696" y="1094"/>
			<point x="696" y="1064" type="curve" smooth="yes"/>
			<point x="696" y="534" type="line"/>
			<point x="166" y="534" type="line" smooth="yes"/>
			<point x="138" y="534"/>
			<point x="104" y="534"/>
			<point x="104" y="500" type="curve" smooth="yes"/>
			<point x="104" y="464"/>
			<point x="136" y="464"/>
			<point x="166" y="464" type="curve" smooth="yes"/>
			<point x="696" y="464" type="line"/>
			<point x="696" y="-66" type="line" smooth="yes"/>
			<point x="696" y="-94"/>
			<point x="696" y="-128"/>
			<point x="730" y="-128" type="curve" smooth="yes"/>
			<point x="766" y="-128"/>
			<point x="766" y="-96"/>
			<point x="766" y="-66" type="curve" smooth="yes"/>
		</contour>
	</outline>
</glyph>
<glyph name="comma" format="2">
	<unicode hex="002C"/>
	<advance width="522"/>
	<outline>
		<contour>
			<point x="230" y="0" type="line"/>
			<point x="178" y="-250" type="line"/>
			<point x="178" y="-250"/>
			<point x="178" y="-250"/>
			<point x="178" y="-250" type="curve"/>
			<point x="178" y="-250"/>
			<point x="178" y="-250"/>
			<point x="178" y="-250" type="curve"/>
			<point x="258" y="-250" type="line"/>
			<point x="258" y="-250"/>
			<point x="258" y="-250"/>
			<point x="258" y="-250" type="curve"/>
			<point x="285" y="-166"/>
			<point x="313" y="-82"/>
			<point x="340" y="2" type="curve"/>
			<point x="340" y="2"/>
			<point x="340" y="2"/>
			<point x="340" y="2" type="curve"/>
			<point x="340" y="160" type="line"/>
			<point x="340" y="160"/>
			<point x="340" y="160"/>
			<point x="340" y="160" type="curve"/>
			<point x="180" y="160" type="line"/>
			<point x="180" y="160"/>
			<point x="180" y="160"/>
			<point x="180" y="160" type="curve"/>
			<point x="180" y="0" type="line"/>
			<point x="180" y="0"/>
			<point x="180" y="0"/>
			<point x="180" y="0" type="curve"/>
		</contour>
	</outline>
</glyph>
<glyph name="hyphen" format="2">
	<unicode hex="002D"/>
	<advance width="313"/>
	<outline>
		<contour>
			<point x="260" y="186" type="line"/>
			<point x="260" y="244" type="line"/>
			<point x="10" y="244" type="line"/>
			<point x="10" y="186" type="line"/>
		</contour>
	</outline>
</glyph>
<glyph name="period" format="2">
	<unicode hex="002E"/>
	<advance width="522"/>
	<outline>
		<contour>
			<point x="340" y="160" type="line"/>
			<point x="340" y="160"/>
			<point x="340" y="160"/>
			<point x="340" y="160" type="curve"/>
			<point x="180" y="160" type="line"/>
			<point x="180" y="160"/>
			<point x="180" y="160"/>
			<point x="180" y="160" type="curve"/>
			<point x="180" y="0" type="line"/>
			<point x="180" y="0"/>
			<point x="180" y="0"/>
			<point x="180" y="0" type="curve"/>
			<point x="340" y="0" type="line"/>
			<point x="340" y="0"/>
			<point x="340" y="0"/>
			<point x="340" y="0" type="curve"/>
		</contour>
	</outline>
</glyph>
<glyph name="slash" format="2">
	<unicode hex="002F"/>
	<advance width="940"/>
	<outline>
		<contour>
			<point x="824" y="1428" type="line" smooth="yes"/>
			<point x="834" y="1454"/>
			<point x="834" y="1458"/>
			<point x="834" y="1462" type="curve" smooth="yes"/>
			<point x="834" y="1486"/>
			<point x="816" y="1498"/>
			<point x="800" y="1498" type="curve" smooth="yes"/>
			<point x="776" y="1498"/>
			<point x="768" y="1482"/>
			<point x="760" y="1458" type="curve" smooth="yes"/>
			<point x="114" y="-428" type="line" smooth="yes"/>
			<point x="104" y="-454"/>
			<point x="104" y="-458"/>
			<point x="104" y="-462" type="curve" smooth="yes"/>
			<point x="104" y="-486"/>
			<point x="122" y="-498"/>
			<point x="138" y="-498" type="curve" smooth="yes"/>
			<point x="162" y="-498"/>
			<point x="170" y="-482"/>
			<point x="178" y="-458" type="curve" smooth="yes"/>
		</contour>
	</outline>
</glyph>
<glyph name="zero" format="2">
	<unicode hex="0030"/>
	<advance width="940"/>
	<outline>
		<contour>
			<point x="468" y="-32" type="curve" smooth="yes"/>
			<point x="592" y="-32"/>
			<point x="712" y="34"/>
			<point x="780" y="172" type="curve" smooth="yes"/>
			<point x="850" y="316"/>
			<point x="862" y="474"/>
			<point x="862" y="654" type="curve" smooth="yes"/>
			<point x="862" y="768"/>
			<point x="860" y="980"/>
			<point x="778" y="1144" type="curve" smooth="yes"/>
			<point x="696" y="1302"/>
			<point x="564" y="1344"/>
			<point x="470" y="1344" type="curve" smooth="yes"/>
			<point x="334" y="1344"/>
			<point x="218" y="1264"/>
			<point x="158" y="1136" type="curve" smooth="yes"/>
			<point x="94" y="1002"/>
			<point x="76" y="864"/>
			<point x="76" y="654" type="curve" smooth="yes"/>
			<point x="76" y="510"/>
			<point x="82" y="334"/>
			<point x="154" y="180" type="curve" smooth="yes"/>
			<point x="236" y="10"/>
			<point x="374" y="-32"/>
		</contour>
		<contour>
			<point x="468" y="90" type="curve" smooth="yes"/>
			<point x="316" y="90"/>
			<point x="270" y="264"/>
			<point x="256" y="322" type="curve" smooth="yes"/>
			<point x="232" y="422"/>
			<point x="228" y="518"/>
			<point x="228" y="676" type="curve" smooth="yes"/>
			<point x="228" y="800"/>
			<point x="228" y="940"/>
			<point x="266" y="1050" type="curve" smooth="yes"/>
			<point x="312" y="1178"/>
			<point x="392" y="1222"/>
			<point x="468" y="1222" type="curve" smooth="yes"/>
			<point x="616" y="1222"/>
			<point x="664" y="1074"/>
			<point x="680" y="1022" type="curve" smooth="yes"/>
			<point x="710" y="916"/>
			<point x="710" y="792"/>
			<point x="710" y="676" type="curve" smooth="yes"/>
			<point x="710" y="564"/>
			<point x="710" y="374"/>
			<point x="658" y="242" type="curve" smooth="yes"/>
			<point x="622" y="154"/>
			<point x="564" y="90"/>
		</contour>
	</outline>
</glyph>
<glyph name="one" format="2">
	<unicode hex="0031"/>
	<advance width="940"/>
	<outline>
		<contour>
			<point x="414" y="116" type="line"/>
			<point x="178" y="116" type="line"/>
			<point x="178" y="116"/>
			<point x="178" y="116"/>
			<point x="178" y="116" type="curve"/>
			<point x="178" y="0" type="line"/>
			<point x="178" y="0"/>
			<point x="178" y="0"/>
			<point x="178" y="0" type="curve"/>
			<point x="804" y="0" type="line"/>
			<point x="804" y="0"/>
			<point x="804" y="0"/>
			<point x="804" y="0" type="curve"/>
			<point x="804" y="116" type="line"/>
			<point x="804" y="116"/>
			<point x="804" y="116"/>
			<point x="804" y="116" type="curve"/>
			<point x="568" y="116" type="line"/>
			<point x="568" y="1344" type="line"/>
			<point x="568" y="1344"/>
			<point x="568" y="1344"/>
			<point x="568" y="1344" type="curve"/>
			<point x="530" y="1344" type="line"/>
			<point x="530" y="1344"/>
			<point x="530" y="1344"/>
			<point x="530" y="1344" type="curve"/>
			<point x="422" y="1232"/>
			<point x="296" y="1216"/>
			<point x="168" y="1212" type="curve"/>
			<point x="168" y="1212"/>
			<point x="168" y="1212"/>
			<point x="168" y="1212" type="curve"/>
			<point x="168" y="1096" type="line"/>
			<point x="168" y="1096"/>
			<point x="168" y="1096"/>
			<point x="168" y="1096" type="curve"/>
			<point x="226" y="1098"/>
			<point x="320" y="1102"/>
			<point x="414" y="1144" type="curve"/>
		</contour>
	</outline>
</glyph>
<glyph name="two" format="2">
	<unicode hex="0032"/>
	<advance width="940"/>
	<outline>
		<contour>
			<point x="686" y="922" type="curve" smooth="yes"/>
			<point x="686" y="738"/>
			<point x="546" y="596"/>
			<point x="440" y="490" type="curve" smooth="yes"/>
			<point x="322" y="372"/>
			<point x="206" y="252"/>
			<point x="94" y="128" type="curve"/>
			<point x="94" y="128"/>
			<point x="94" y="128"/>
			<point x="94" y="128" type="curve"/>
			<point x="94" y="0" type="line"/>
			<point x="94" y="0"/>
			<point x="94" y="0"/>
			<point x="94" y="0" type="curve"/>
			<point x="844" y="0" type="line"/>
			<point x="844" y="0"/>
			<point x="844" y="0"/>
			<point x="844" y="0" type="curve"/>
			<point x="844" y="136" type="line"/>
			<point x="844" y="136"/>
			<point x="844" y="136"/>
			<point x="844" y="136" type="curve"/>
			<point x="731" y="136"/>
			<point x="618" y="136"/>
			<point x="504" y="136" type="curve" smooth="yes"/>
			<point x="480" y="136"/>
			<point x="456" y="134"/>
			<point x="232" y="134" type="curve"/>
			<point x="572" y="480"/>
			<point x="656" y="552"/>
			<point x="714" y="622" type="curve" smooth="yes"/>
			<point x="770" y="690"/>
			<point x="844" y="786"/>
			<point x="844" y="926" type="curve" smooth="yes"/>
			<point x="844" y="1146"/>
			<point x="696" y="1344"/>
			<point x="444" y="1344" type="curve" smooth="yes"/>
			<point x="339" y="1344"/>
			<point x="258" y="1309"/>
			<point x="196" y="1248" type="curve" smooth="yes"/>
			<point x="142" y="1193"/>
			<point x="103" y="1117"/>
			<point x="78" y="1026" type="curve"/>
			<point x="156" y="918" type="line"/>
			<point x="156" y="918"/>
			<point x="156" y="918"/>
			<point x="156" y="918" type="curve"/>
			<point x="156" y="918"/>
			<point x="156" y="918"/>
			<point x="156" y="918" type="curve"/>
			<point x="200" y="1100"/>
			<point x="262" y="1216"/>
			<point x="418" y="1216" type="curve" smooth="yes"/>
			<point x="590" y="1216"/>
			<point x="686" y="1076"/>
		</contour>
	</outline>
</glyph>
<glyph name="three" format="2">
	<unicode hex="0033"/>
	<advance width="470"/>
	<outline>
		<contour>
			<point x="232" y="-16" type="curve" smooth="yes"/>
			<point x="346" y="-16"/>
			<point x="430" y="79"/>
			<point x="430" y="184" type="curve" smooth="yes"/>
			<point x="430" y="263"/>
			<point x="375" y="329"/>
			<point x="300" y="354" type="curve"/>
			<point x="360" y="387"/>
			<point x="404" y="449"/>
			<point x="404" y="521" type="curve" smooth="yes"/>
			<point x="404" y="605"/>
			<point x="327" y="672"/>
			<point x="233" y="672" type="curve" smooth="yes"/>
			<point x="147" y="672"/>
			<point x="80" y="619"/>
			<point x="52" y="562" type="curve"/>
			<point x="52" y="562"/>
			<point x="52" y="562"/>
			<point x="52" y="562" type="curve"/>
			<point x="86" y="508" type="line"/>
			<point x="86" y="508"/>
			<point x="86" y="508"/>
			<point x="86" y="508" type="curve"/>
			<point x="86" y="508"/>
			<point x="86" y="508"/>
			<point x="86" y="508" type="curve"/>
			<point x="108" y="567"/>
			<point x="165" y="611"/>
			<point x="232" y="611" type="curve" smooth="yes"/>
			<point x="288" y="611"/>
			<point x="325" y="574"/>
			<point x="325" y="521" type="curve" smooth="yes"/>
			<point x="325" y="466"/>
			<point x="288" y="402"/>
			<point x="229" y="392" type="curve" smooth="yes"/>
			<point x="216" y="390"/>
			<point x="165" y="386"/>
			<point x="157" y="385" type="curve"/>
			<point x="157" y="385"/>
			<point x="157" y="385"/>
			<point x="157" y="385" type="curve"/>
			<point x="157" y="324" type="line"/>
			<point x="157" y="324"/>
			<point x="157" y="324"/>
			<point x="157" y="324" type="curve"/>
			<point x="225" y="324" type="line" smooth="yes"/>
			<point x="319" y="324"/>
			<point x="346" y="242"/>
			<point x="346" y="185" type="curve" smooth="yes"/>
			<point x="346" y="107"/>
			<point x="302" y="46"/>
			<point x="230" y="46" type="curve" smooth="yes"/>
			<point x="174" y="46"/>
			<point x="95" y="74"/>
			<point x="50" y="148" type="curve"/>
			<point x="50" y="148"/>
			<point x="50" y="148"/>
			<point x="50" y="148" type="curve"/>
			<point x="50" y="148"/>
			<point x="50" y="148"/>
			<point x="50" y="148" type="curve"/>
			<point x="39" y="87" type="line"/>
			<point x="39" y="87"/>
			<point x="39" y="87"/>
			<point x="39" y="87" type="curve"/>
			<point x="86" y="18"/>
			<point x="162" y="-16"/>
		</contour>
	</outline>
</glyph>
<glyph name="four" format="2">
	<unicode hex="0034"/>
	<advance width="470"/>
	<outline>
		<contour>
			<point x="273" y="0" type="line"/>
			<point x="352" y="0" type="line"/>
			<point x="352" y="171" type="line"/>
			<point x="443" y="171" type="line"/>
			<point x="443" y="232" type="line"/>
			<point x="352" y="232" type="line"/>
			<point x="352" y="656" type="line"/>
			<point x="264" y="656" type="line"/>
			<point x="26" y="232" type="line"/>
			<point x="26" y="171" type="line"/>
			<point x="273" y="171" type="line"/>
		</contour>
		<contour>
			<point x="103" y="232" type="line"/>
			<point x="135" y="287"/>
			<point x="183" y="374"/>
			<point x="220" y="452" type="curve" smooth="yes"/>
			<point x="252" y="518"/>
			<point x="276" y="578"/>
			<point x="276" y="610" type="curve"/>
			<point x="276" y="232" type="line"/>
		</contour>
	</outline>
</glyph>
<glyph name="five" format="2">
	<unicode hex="0035"/>
	<advance width="940"/>
	<outline>
		<contour>
			<point x="292" y="1184" type="line"/>
			<point x="782" y="1184" type="line"/>
			<point x="782" y="1184"/>
			<point x="782" y="1184"/>
			<point x="782" y="1184" type="curve"/>
			<point x="782" y="1312" type="line"/>
			<point x="782" y="1312"/>
			<point x="782" y="1312"/>
			<point x="782" y="1312" type="curve"/>
			<point x="146" y="1312" type="line"/>
			<point x="146" y="1312"/>
			<point x="146" y="1312"/>
			<point x="146" y="1312" type="curve"/>
			<point x="146" y="574" type="line"/>
			<point x="146" y="574"/>
			<point x="146" y="574"/>
			<point x="146" y="574" type="curve"/>
			<point x="280" y="574" type="line"/>
			<point x="280" y="574"/>
			<point x="280" y="574"/>
			<point x="280" y="574" type="curve"/>
			<point x="316" y="658"/>
			<point x="390" y="720"/>
			<point x="486" y="720" type="curve" smooth="yes"/>
			<point x="576" y="720"/>
			<point x="676" y="640"/>
			<point x="676" y="410" type="curve" smooth="yes"/>
			<point x="676" y="164"/>
			<point x="534" y="92"/>
			<point x="430" y="92" type="curve" smooth="yes"/>
			<point x="302" y="92"/>
			<point x="184" y="170"/>
			<point x="132" y="278" type="curve"/>
			<point x="132" y="278"/>
			<point x="132" y="278"/>
			<point x="132" y="278" type="curve"/>
			<point x="132" y="278"/>
			<point x="132" y="278"/>
			<point x="132" y="278" type="curve"/>
			<point x="111" y="241"/>
			<point x="89" y="203"/>
			<point x="68" y="166" type="curve"/>
			<point x="160" y="24"/>
			<point x="310" y="-32"/>
			<point x="430" y="-32" type="curve" smooth="yes"/>
			<point x="662" y="-32"/>
			<point x="844" y="166"/>
			<point x="844" y="406" type="curve" smooth="yes"/>
			<point x="844" y="652"/>
			<point x="682" y="842"/>
			<point x="488" y="842" type="curve" smooth="yes"/>
			<point x="418" y="842"/>
			<point x="350" y="818"/>
			<point x="292" y="770" type="curve"/>
		</contour>
	</outline>
</glyph>
<glyph name="six" format="2">
	<unicode hex="0036"/>
	<advance width="470"/>
	<outline>
		<contour>
			<point x="39" y="321" type="curve" smooth="yes"/>
			<point x="39" y="46"/>
			<point x="154" y="-16"/>
			<point x="236" y="-16" type="curve" smooth="yes"/>
			<point x="281" y="-16"/>
			<point x="326" y="-2"/>
			<point x="369" y="48" type="curve" smooth="yes"/>
			<point x="413" y="101"/>
			<point x="430" y="145"/>
			<point x="430" y="222" type="curve" smooth="yes"/>
			<point x="430" y="347"/>
			<point x="367.74751" y="456"/>
			<point x="278" y="456" type="curve" smooth="yes"/>
			<point x="212" y="456"/>
			<point x="155" y="421"/>
			<point x="120" y="377" type="curve"/>
			<point x="123.3333" y="423.99953"/>
			<point x="132.8886977784" y="465.6658333328"/>
			<point x="147.6662233349" y="500.3322933312" type="curve" smooth="yes"/>
			<point x="177.2217177781" y="569.6662533323"/>
			<point x="227.66635" y="611"/>
			<point x="291" y="611" type="curve" smooth="yes"/>
			<point x="317" y="611"/>
			<point x="351" y="607"/>
			<point x="390" y="590" type="curve"/>
			<point x="390" y="590"/>
			<point x="390" y="590"/>
			<point x="390" y="590" type="curve"/>
			<point x="390" y="590"/>
			<point x="390" y="590"/>
			<point x="390" y="590" type="curve"/>
			<point x="390" y="652" type="line"/>
			<point x="390" y="652"/>
			<point x="390" y="652"/>
			<point x="390" y="652" type="curve"/>
			<point x="348" y="669"/>
			<point x="318" y="672"/>
			<point x="290" y="672" type="curve" smooth="yes"/>
			<point x="160" y="672"/>
			<point x="39" y="536"/>
		</contour>
		<contour>
			<point x="236" y="46" type="curve" smooth="yes"/>
			<point x="141" y="46"/>
			<point x="125" y="179"/>
			<point x="121" y="219" type="curve"/>
			<point x="121" y="227"/>
			<point x="121" y="232"/>
			<point x="122" y="247" type="curve"/>
			<point x="122" y="325"/>
			<point x="167" y="395"/>
			<point x="240" y="395" type="curve" smooth="yes"/>
			<point x="287" y="395"/>
			<point x="311" y="370"/>
			<point x="329" y="339" type="curve" smooth="yes"/>
			<point x="350" y="300"/>
			<point x="351" y="263"/>
			<point x="351" y="222" type="curve" smooth="yes"/>
			<point x="351" y="183"/>
			<point x="351" y="144"/>
			<point x="328" y="104" type="curve" smooth="yes"/>
			<point x="309" y="73"/>
			<point x="284" y="46"/>
		</contour>
	</outline>
</glyph>
<glyph name="seven" format="2">
	<unicode hex="0037"/>
	<advance width="470"/>
	<outline>
		<contour>
			<point x="368" y="589" type="line"/>
			<point x="225" y="422"/>
			<point x="143" y="211"/>
			<point x="143" y="-8" type="curve"/>
			<point x="143" y="-8"/>
			<point x="143" y="-8"/>
			<point x="143" y="-8" type="curve"/>
			<point x="223" y="-8" type="line"/>
			<point x="223" y="-8"/>
			<point x="223" y="-8"/>
			<point x="223" y="-8" type="curve"/>
			<point x="223" y="204"/>
			<point x="293" y="419"/>
			<point x="430" y="591" type="curve"/>
			<point x="430" y="591"/>
			<point x="430" y="591"/>
			<point x="430" y="591" type="curve"/>
			<point x="430" y="656" type="line"/>
			<point x="430" y="656"/>
			<point x="430" y="656"/>
			<point x="430" y="656" type="curve"/>
			<point x="361.069" y="656"/>
			<point x="292.138" y="656"/>
			<point x="223" y="656" type="curve"/>
			<point x="39" y="656" type="line"/>
			<point x="39" y="656"/>
			<point x="39" y="656"/>
			<point x="39" y="656" type="curve"/>
			<point x="39" y="588" type="line"/>
			<point x="39" y="588"/>
			<point x="39" y="588"/>
			<point x="39" y="588" type="curve"/>
			<point x="122" y="588"/>
			<point x="181" y="589"/>
			<point x="253" y="589" type="curve" smooth="yes"/>
		</contour>
	</outline>
</glyph>
<glyph name="eight" format="2">
	<unicode hex="0038"/>
	<advance width="940"/>
	<outline>
		<contour>
			<point x="604" y="710" type="curve"/>
			<point x="756" y="760"/>
			<point x="834" y="880"/>
			<point x="834" y="998" type="curve" smooth="yes"/>
			<point x="834" y="1184"/>
			<point x="674" y="1344"/>
			<point x="470" y="1344" type="curve" smooth="yes"/>
			<point x="258" y="1344"/>
			<point x="104" y="1178"/>
			<point x="104" y="998" type="curve" smooth="yes"/>
			<point x="104" y="882"/>
			<point x="180" y="762"/>
			<point x="334" y="710" type="curve"/>
			<point x="138" y="634"/>
			<point x="78" y="482"/>
			<point x="78" y="368" type="curve" smooth="yes"/>
			<point x="78" y="148"/>
			<point x="256" y="-32"/>
			<point x="468" y="-32" type="curve" smooth="yes"/>
			<point x="688" y="-32"/>
			<point x="860" y="152"/>
			<point x="860" y="368" type="curve" smooth="yes"/>
			<point x="860" y="500"/>
			<point x="782" y="640"/>
		</contour>
		<contour>
			<point x="470" y="770" type="curve" smooth="yes"/>
			<point x="336" y="770"/>
			<point x="246" y="860"/>
			<point x="246" y="996" type="curve" smooth="yes"/>
			<point x="246" y="1134"/>
			<point x="336" y="1222"/>
			<point x="470" y="1222" type="curve" smooth="yes"/>
			<point x="594" y="1222"/>
			<point x="692" y="1142"/>
			<point x="692" y="996" type="curve" smooth="yes"/>
			<point x="692" y="852"/>
			<point x="596" y="770"/>
		</contour>
		<contour>
			<point x="470" y="92" type="curve" smooth="yes"/>
			<point x="356" y="92"/>
			<point x="234" y="170"/>
			<point x="234" y="370" type="curve" smooth="yes"/>
			<point x="234" y="576"/>
			<point x="370" y="648"/>
			<point x="468" y="648" type="curve" smooth="yes"/>
			<point x="576" y="648"/>
			<point x="704" y="572"/>
			<point x="704" y="370" type="curve" smooth="yes"/>
			<point x="704" y="162"/>
			<point x="572" y="92"/>
		</contour>
	</outline>
</glyph>
<glyph name="nine" format="2">
	<unicode hex="0039"/>
	<advance width="940"/>
	<outline>
		<contour>
			<point x="386" y="-32" type="curve" smooth="yes"/>
			<point x="628" y="-32"/>
			<point x="860" y="236"/>
			<point x="860" y="670" type="curve" smooth="yes"/>
			<point x="860" y="1250"/>
			<point x="610" y="1344"/>
			<point x="476" y="1344" type="curve" smooth="yes"/>
			<point x="342" y="1344"/>
			<point x="256" y="1284"/>
			<point x="182" y="1188" type="curve" smooth="yes"/>
			<point x="94" y="1078"/>
			<point x="78" y="980"/>
			<point x="78" y="866" type="curve" smooth="yes"/>
			<point x="78" y="730"/>
			<point x="102" y="646"/>
			<point x="158" y="550" type="curve" smooth="yes"/>
			<point x="234" y="426"/>
			<point x="304" y="400"/>
			<point x="382" y="400" type="curve" smooth="yes"/>
			<point x="500" y="400"/>
			<point x="618" y="458"/>
			<point x="698" y="558" type="curve"/>
			<point x="696" y="513"/>
			<point x="690" y="470"/>
			<point x="682" y="430" type="curve" smooth="yes"/>
			<point x="642" y="228"/>
			<point x="533" y="92"/>
			<point x="386" y="92" type="curve" smooth="yes"/>
			<point x="314" y="92"/>
			<point x="256" y="114"/>
			<point x="198" y="168" type="curve"/>
			<point x="198" y="168"/>
			<point x="198" y="168"/>
			<point x="198" y="168" type="curve"/>
			<point x="198" y="168"/>
			<point x="198" y="168"/>
			<point x="198" y="168" type="curve"/>
			<point x="177" y="133"/>
			<point x="157" y="97"/>
			<point x="136" y="62" type="curve"/>
			<point x="136" y="62"/>
			<point x="136" y="62"/>
			<point x="136" y="62" type="curve"/>
			<point x="192" y="14"/>
			<point x="264" y="-32"/>
		</contour>
		<contour>
			<point x="458" y="522" type="curve" smooth="yes"/>
			<point x="366" y="522"/>
			<point x="318" y="570"/>
			<point x="282" y="632" type="curve" smooth="yes"/>
			<point x="238" y="710"/>
			<point x="236" y="786"/>
			<point x="236" y="866" type="curve" smooth="yes"/>
			<point x="236" y="944"/>
			<point x="236" y="1030"/>
			<point x="292" y="1116" type="curve" smooth="yes"/>
			<point x="334" y="1178"/>
			<point x="386" y="1222"/>
			<point x="476" y="1222" type="curve" smooth="yes"/>
			<point x="660" y="1222"/>
			<point x="690" y="952"/>
			<point x="692" y="870" type="curve"/>
			<point x="694" y="856"/>
			<point x="694" y="830"/>
			<point x="694" y="822" type="curve" smooth="yes"/>
			<point x="694" y="654"/>
			<point x="598" y="522"/>
		</contour>
	</outline>
</glyph>
<glyph name="colon" format="2">
	<unicode hex="003A"/>
	<advance width="522"/>
	<outline>
		<contour>
			<point x="340" y="860" type="line"/>
			<point x="340" y="860"/>
			<point x="340" y="860"/>
			<point x="340" y="860" type="curve"/>
			<point x="180" y="860" type="line"/>
			<point x="180" y="860"/>
			<point x="180" y="860"/>
			<point x="180" y="860" type="curve"/>
			<point x="180" y="700" type="line"/>
			<point x="180" y="700"/>
			<point x="180" y="700"/>
			<point x="180" y="700" type="curve"/>
			<point x="340" y="700" type="line"/>
			<point x="340" y="700"/>
			<point x="340" y="700"/>
			<point x="340" y="700" type="curve"/>
		</contour>
		<contour>
			<point x="180" y="0" type="curve"/>
			<point x="180" y="0"/>
			<point x="180" y="0"/>
			<point x="180" y="0" type="curve"/>
			<point x="233" y="0"/>
			<point x="287" y="0"/>
			<point x="340" y="0" type="curve"/>
			<point x="340" y="0"/>
			<point x="340" y="0"/>
			<point x="340" y="0" type="curve"/>
			<point x="340" y="53"/>
			<point x="340" y="107"/>
			<point x="340" y="160" type="curve"/>
			<point x="340" y="160"/>
			<point x="340" y="160"/>
			<point x="340" y="160" type="curve"/>
			<point x="287" y="160"/>
			<point x="233" y="160"/>
			<point x="180" y="160" type="curve"/>
			<point x="180" y="160"/>
			<point x="180" y="160"/>
			<point x="180" y="160" type="curve"/>
			<point x="180" y="107"/>
			<point x="180" y="53"/>
		</contour>
	</outline>
</glyph>
<glyph name="semicolon" format="2">
	<unicode hex="003B"/>
	<advance width="522"/>
	<outline>
		<contour>
			<point x="340" y="860" type="line"/>
			<point x="340" y="860"/>
			<point x="340" y="860"/>
			<point x="340" y="860" type="curve"/>
			<point x="180" y="860" type="line"/>
			<point x="180" y="860"/>
			<point x="180" y="860"/>
			<point x="180" y="860" type="curve"/>
			<point x="180" y="700" type="line"/>
			<point x="180" y="700"/>
			<point x="180" y="700"/>
			<point x="180" y="700" type="curve"/>
			<point x="340" y="700" type="line"/>
			<point x="340" y="700"/>
			<point x="340" y="700"/>
			<point x="340" y="700" type="curve"/>
		</contour>
		<contour>
			<point x="230" y="0" type="line"/>
			<point x="178" y="-250" type="line"/>
			<point x="178" y="-250"/>
			<point x="178" y="-250"/>
			<point x="178" y="-250" type="curve"/>
			<point x="178" y="-250"/>
			<point x="178" y="-250"/>
			<point x="178" y="-250" type="curve"/>
			<point x="258" y="-250" type="line"/>
			<point x="258" y="-250"/>
			<point x="258" y="-250"/>
			<point x="258" y="-250" type="curve"/>
			<point x="285" y="-166"/>
			<point x="313" y="-82"/>
			<point x="340" y="2" type="curve"/>
			<point x="340" y="2"/>
			<point x="340" y="2"/>
			<point x="340" y="2" type="curve"/>
			<point x="340" y="160" type="line"/>
			<point x="340" y="160"/>
			<point x="340" y="160"/>
			<point x="340" y="160" type="curve"/>
			<point x="180" y="160" type="line"/>
			<point x="180" y="160"/>
			<point x="180" y="160"/>
			<point x="180" y="160" type="curve"/>
			<point x="180" y="0" type="line"/>
			<point x="180" y="0"/>
			<point x="180" y="0"/>
			<point x="180" y="0" type="curve"/>
		</contour>
	</outline>
</glyph>
<glyph name="equal" format="2">
	<unicode hex="003D"/>
	<advance width="1462"/>
	<outline>
		<contour>
			<point x="1296" y="642" type="line" smooth="yes"/>
			<point x="1326" y="642"/>
			<point x="1356" y="642"/>
			<point x="1356" y="676" type="curve" smooth="yes"/>
			<point x="1356" y="712"/>
			<point x="1322" y="712"/>
			<point x="1288" y="712" type="curve" smooth="yes"/>
			<point x="172" y="712" type="line" smooth="yes"/>
			<point x="138" y="712"/>
			<point x="104" y="712"/>
			<point x="104" y="676" type="curve" smooth="yes"/>
			<point x="104" y="642"/>
			<point x="134" y="642"/>
			<point x="164" y="642" type="curve" smooth="yes"/>
		</contour>
		<contour>
			<point x="1288" y="286" type="line" smooth="yes"/>
			<point x="1322" y="286"/>
			<point x="1356" y="286"/>
			<point x="1356" y="322" type="curve" smooth="yes"/>
			<point x="1356" y="356"/>
			<point x="1326" y="356"/>
			<point x="1296" y="356" type="curve" smooth="yes"/>
			<point x="164" y="356" type="line" smooth="yes"/>
			<point x="134" y="356"/>
			<point x="104" y="356"/>
			<point x="104" y="322" type="curve" smooth="yes"/>
			<point x="104" y="286"/>
			<point x="138" y="286"/>
			<point x="172" y="286" type="curve" smooth="yes"/>
		</contour>
	</outline>
</glyph>
<glyph name="question" format="2">
	<unicode hex="003F"/>
	<advance width="888"/>
	<outline>
		<contour>
			<point x="480" y="434" type="line" smooth="yes"/>
			<point x="480" y="650"/>
			<point x="606" y="792"/>
			<point x="678" y="854" type="curve" smooth="yes"/>
			<point x="714" y="886"/>
			<point x="782" y="950"/>
			<point x="782" y="1092" type="curve" smooth="yes"/>
			<point x="782" y="1262"/>
			<point x="676" y="1404"/>
			<point x="420" y="1404" type="curve" smooth="yes"/>
			<point x="310" y="1404"/>
			<point x="204" y="1372"/>
			<point x="104" y="1298" type="curve"/>
			<point x="104" y="1298"/>
			<point x="104" y="1298"/>
			<point x="104" y="1298" type="curve"/>
			<point x="148" y="1174" type="line"/>
			<point x="148" y="1174"/>
			<point x="148" y="1174"/>
			<point x="148" y="1174" type="curve"/>
			<point x="148" y="1174"/>
			<point x="148" y="1174"/>
			<point x="148" y="1174" type="curve"/>
			<point x="244" y="1262"/>
			<point x="342" y="1282"/>
			<point x="420" y="1282" type="curve" smooth="yes"/>
			<point x="524" y="1282"/>
			<point x="630" y="1256"/>
			<point x="630" y="1096" type="curve" smooth="yes"/>
			<point x="630" y="1004"/>
			<point x="590" y="966"/>
			<point x="572" y="948" type="curve" smooth="yes"/>
			<point x="380" y="766"/>
			<point x="352" y="564"/>
			<point x="352" y="442" type="curve" smooth="yes"/>
			<point x="352" y="407"/>
			<point x="352" y="373"/>
			<point x="352" y="338" type="curve"/>
			<point x="352" y="338"/>
			<point x="352" y="338"/>
			<point x="352" y="338" type="curve"/>
			<point x="480" y="338" type="line"/>
			<point x="480" y="338"/>
			<point x="480" y="338"/>
			<point x="480" y="338" type="curve"/>
		</contour>
		<contour>
			<point x="336" y="0" type="line"/>
			<point x="336" y="0"/>
			<point x="336" y="0"/>
			<point x="336" y="0" type="curve"/>
			<point x="496" y="0" type="line"/>
			<point x="496" y="0"/>
			<point x="496" y="0"/>
			<point x="496" y="0" type="curve"/>
			<point x="496" y="160" type="line"/>
			<point x="496" y="160"/>
			<point x="496" y="160"/>
			<point x="496" y="160" type="curve"/>
			<point x="336" y="160" type="line"/>
			<point x="336" y="160"/>
			<point x="336" y="160"/>
			<point x="336" y="160" type="curve"/>
		</contour>
	</outline>
</glyph>
<glyph name="at" format="2">
	<unicode hex="0040"/>
	<advance width="1252"/>
	<outline>
		<contour>
			<point x="1052" y="174" type="line" smooth="yes"/>
			<point x="1022" y="174"/>
			<point x="1018" y="174"/>
			<point x="998" y="164" type="curve" smooth="yes"/>
			<point x="914" y="126"/>
			<point x="826" y="106"/>
			<point x="734" y="106" type="curve" smooth="yes"/>
			<point x="466" y="106"/>
			<point x="256" y="370"/>
			<point x="256" y="694" type="curve" smooth="yes"/>
			<point x="256" y="1040"/>
			<point x="486" y="1282"/>
			<point x="726" y="1282" type="curve" smooth="yes"/>
			<point x="802" y="1282"/>
			<point x="896" y="1242"/>
			<point x="946" y="1100" type="curve"/>
			<point x="898" y="1128"/>
			<point x="848" y="1144"/>
			<point x="796" y="1144" type="curve" smooth="yes"/>
			<point x="612" y="1144"/>
			<point x="446" y="954"/>
			<point x="446" y="694" type="curve" smooth="yes"/>
			<point x="446" y="434"/>
			<point x="614" y="244"/>
			<point x="796" y="244" type="curve" smooth="yes"/>
			<point x="916" y="244"/>
			<point x="1146" y="350"/>
			<point x="1146" y="726" type="curve" smooth="yes"/>
			<point x="1146" y="892"/>
			<point x="1146" y="1404"/>
			<point x="726" y="1404" type="curve" smooth="yes"/>
			<point x="404" y="1404"/>
			<point x="104" y="1106"/>
			<point x="104" y="694" type="curve" smooth="yes"/>
			<point x="104" y="290"/>
			<point x="394" y="-16"/>
			<point x="730" y="-16" type="curve" smooth="yes"/>
			<point x="946" y="-16"/>
			<point x="1092" y="108"/>
			<point x="1146" y="174" type="curve"/>
			<point x="1146" y="174"/>
			<point x="1146" y="174"/>
			<point x="1146" y="174" type="curve"/>
			<point x="1146" y="174"/>
			<point x="1146" y="174"/>
			<point x="1146" y="174" type="curve"/>
		</contour>
		<contour>
			<point x="796" y="366" type="curve" smooth="yes"/>
			<point x="690" y="366"/>
			<point x="598" y="506"/>
			<point x="598" y="694" type="curve" smooth="yes"/>
			<point x="598" y="882"/>
			<point x="690" y="1022"/>
			<point x="796" y="1022" type="curve" smooth="yes"/>
			<point x="902" y="1022"/>
			<point x="994" y="882"/>
			<point x="994" y="694" type="curve" smooth="yes"/>
			<point x="994" y="506"/>
			<point x="902" y="366"/>
		</contour>
	</outline>
</glyph>
<glyph name="A" format="2">
	<unicode hex="0041"/>
	<advance width="624"/>
	<outline>
		<contour>
			<point x="172" y="202" type="line"/>
			<point x="440" y="202" type="line"/>
			<point x="511" y="0" type="line"/>
			<point x="511" y="0"/>
			<point x="511" y="0"/>
			<point x="511" y="0" type="curve"/>
			<point x="598" y="0" type="line"/>
			<point x="598" y="0"/>
			<point x="598" y="0"/>
			<point x="598" y="0" type="curve"/>
			<point x="598" y="0"/>
			<point x="598" y="0"/>
			<point x="598" y="0" type="curve"/>
			<point x="355" y="694" type="line"/>
			<point x="355" y="694"/>
			<point x="355" y="694"/>
			<point x="355" y="694" type="curve"/>
			<point x="269" y="694" type="line"/>
			<point x="269" y="694"/>
			<point x="269" y="694"/>
			<point x="269" y="694" type="curve"/>
			<point x="26" y="0" type="line"/>
			<point x="26" y="0"/>
			<point x="26" y="0"/>
			<point x="26" y="0" type="curve"/>
			<point x="26" y="0"/>
			<point x="26" y="0"/>
			<point x="26" y="0" type="curve"/>
			<point x="102" y="0" type="line"/>
			<point x="102" y="0"/>
			<point x="102" y="0"/>
			<point x="102" y="0" type="curve"/>
		</contour>
		<contour>
			<point x="191" y="258" type="line"/>
			<point x="266" y="481" type="line" smooth="yes"/>
			<point x="287" y="544"/>
			<point x="303" y="595"/>
			<point x="306" y="617" type="curve"/>
			<point x="307" y="617" type="line"/>
			<point x="312" y="591"/>
			<point x="322" y="551"/>
			<point x="346" y="480" type="curve" smooth="yes"/>
			<point x="421" y="258" type="line"/>
		</contour>
	</outline>
</glyph>
<glyph name="B" format="2">
	<unicode hex="0042"/>
	<advance width="1250"/>
	<outline>
		<contour>
			<point x="178" y="1388" type="line"/>
			<point x="178" y="1388"/>
			<point x="178" y="1388"/>
			<point x="178" y="1388" type="curve"/>
			<point x="178" y="0" type="line"/>
			<point x="178" y="0"/>
			<point x="178" y="0"/>
			<point x="178" y="0" type="curve"/>
			<point x="676" y="0" type="line" smooth="yes"/>
			<point x="948" y="0"/>
			<point x="1146" y="180"/>
			<point x="1146" y="376" type="curve" smooth="yes"/>
			<point x="1146" y="528"/>
			<point x="1016" y="682"/>
			<point x="782" y="726" type="curve"/>
			<point x="1042" y="802"/>
			<point x="1094" y="954"/>
			<point x="1094" y="1040" type="curve" smooth="yes"/>
			<point x="1094" y="1220"/>
			<point x="898" y="1388"/>
			<point x="624" y="1388" type="curve" smooth="yes"/>
		</contour>
		<contour>
			<point x="340" y="782" type="line"/>
			<point x="340" y="1276" type="line"/>
			<point x="570" y="1276" type="line" smooth="yes"/>
			<point x="776" y="1276"/>
			<point x="938" y="1170"/>
			<point x="938" y="1038" type="curve" smooth="yes"/>
			<point x="938" y="918"/>
			<point x="810" y="782"/>
			<point x="552" y="782" type="curve" smooth="yes"/>
		</contour>
		<contour>
			<point x="340" y="112" type="line"/>
			<point x="340" y="660" type="line"/>
			<point x="606" y="660" type="line" smooth="yes"/>
			<point x="822" y="660"/>
			<point x="988" y="526"/>
			<point x="988" y="378" type="curve" smooth="yes"/>
			<point x="988" y="242"/>
			<point x="842" y="112"/>
			<point x="620" y="112" type="curve" smooth="yes"/>
		</contour>
	</outline>
</glyph>
<glyph name="C" format="2">
	<unicode hex="0043"/>
	<advance width="601"/>
	<outline>
		<contour>
			<point x="62" y="346" type="curve" smooth="yes"/>
			<point x="62" y="149"/>
			<point x="203" y="-7"/>
			<point x="363" y="-7" type="curve" smooth="yes"/>
			<point x="449" y="-7"/>
			<point x="479" y="0"/>
			<point x="553" y="47" type="curve"/>
			<point x="553" y="47"/>
			<point x="553" y="47"/>
			<point x="553" y="47" type="curve"/>
			<point x="547" y="115" type="line"/>
			<point x="547" y="115"/>
			<point x="547" y="115"/>
			<point x="547" y="115" type="curve"/>
			<point x="480" y="70"/>
			<point x="449" y="57"/>
			<point x="368" y="57" type="curve" smooth="yes"/>
			<point x="228" y="57"/>
			<point x="146" y="208"/>
			<point x="146" y="346" type="curve" smooth="yes"/>
			<point x="146" y="493"/>
			<point x="230" y="638"/>
			<point x="372" y="638" type="curve" smooth="yes"/>
			<point x="436" y="638"/>
			<point x="478" y="620"/>
			<point x="529" y="588" type="curve"/>
			<point x="529" y="588"/>
			<point x="529" y="588"/>
			<point x="529" y="588" type="curve"/>
			<point x="529" y="588"/>
			<point x="529" y="588"/>
			<point x="529" y="588" type="curve"/>
			<point x="543" y="667" type="line"/>
			<point x="543" y="667"/>
			<point x="543" y="667"/>
			<point x="543" y="667" type="curve"/>
			<point x="495" y="691"/>
			<point x="434" y="702"/>
			<point x="373" y="702" type="curve" smooth="yes"/>
			<point x="181" y="702"/>
			<point x="62" y="525"/>
		</contour>
	</outline>
</glyph>
<glyph name="D" format="2">
	<unicode hex="0044"/>
	<advance width="1354"/>
	<outline>
		<contour>
			<point x="670" y="0" type="line" smooth="yes"/>
			<point x="998" y="0"/>
			<point x="1250" y="308"/>
			<point x="1250" y="682" type="curve" smooth="yes"/>
			<point x="1250" y="1068"/>
			<point x="998" y="1388"/>
			<point x="670" y="1388" type="curve" smooth="yes"/>
			<point x="178" y="1388" type="line"/>
			<point x="178" y="1388"/>
			<point x="178" y="1388"/>
			<point x="178" y="1388" type="curve"/>
			<point x="178" y="0" type="line"/>
			<point x="178" y="0"/>
			<point x="178" y="0"/>
			<point x="178" y="0" type="curve"/>
		</contour>
		<contour>
			<point x="342" y="112" type="line"/>
			<point x="342" y="1276" type="line"/>
			<point x="626" y="1276" type="line" smooth="yes"/>
			<point x="894" y="1276"/>
			<point x="1086" y="1030"/>
			<point x="1086" y="682" type="curve" smooth="yes"/>
			<point x="1086" y="348"/>
			<point x="896" y="112"/>
			<point x="626" y="112" type="curve" smooth="yes"/>
		</contour>
	</outline>
</glyph>
<glyph name="E" format="2">
	<unicode hex="0045"/>
	<advance width="561"/>
	<outline>
		<contour>
			<point x="172" y="69" type="line"/>
			<point x="172" y="329" type="line"/>
			<point x="482" y="329" type="line"/>
			<point x="482" y="329"/>
			<point x="482" y="329"/>
			<point x="482" y="329" type="curve"/>
			<point x="482" y="390" type="line"/>
			<point x="482" y="390"/>
			<point x="482" y="390"/>
			<point x="482" y="390" type="curve"/>
			<point x="172" y="390" type="line"/>
			<point x="172" y="627" type="line"/>
			<point x="508" y="627" type="line"/>
			<point x="508" y="627"/>
			<point x="508" y="627"/>
			<point x="508" y="627" type="curve"/>
			<point x="508" y="692" type="line"/>
			<point x="508" y="692"/>
			<point x="508" y="692"/>
			<point x="508" y="692" type="curve"/>
			<point x="88" y="692" type="line"/>
			<point x="88" y="692"/>
			<point x="88" y="692"/>
			<point x="88" y="692" type="curve"/>
			<point x="88" y="0" type="line"/>
			<point x="88" y="0"/>
			<point x="88" y="0"/>
			<point x="88" y="0" type="curve"/>
			<point x="521" y="0" type="line"/>
			<point x="521" y="0"/>
			<point x="521" y="0"/>
			<point x="521" y="0" type="curve"/>
			<point x="521" y="69" type="line"/>
			<point x="521" y="69"/>
			<point x="521" y="69"/>
			<point x="521" y="69" type="curve"/>
		</contour>
	</outline>
</glyph>
<glyph name="F" format="2">
	<unicode hex="0046"/>
	<advance width="1068"/>
	<outline>
		<contour>
			<point x="344" y="632" type="line"/>
			<point x="912" y="632" type="line"/>
			<point x="912" y="632"/>
			<point x="912" y="632"/>
			<point x="912" y="632" type="curve"/>
			<point x="912" y="754" type="line"/>
			<point x="912" y="754"/>
			<point x="912" y="754"/>
			<point x="912" y="754" type="curve"/>
			<point x="344" y="754" type="line"/>
			<point x="344" y="1254" type="line"/>
			<point x="990" y="1254" type="line"/>
			<point x="990" y="1254"/>
			<point x="990" y="1254"/>
			<point x="990" y="1254" type="curve"/>
			<point x="990" y="1384" type="line"/>
			<point x="990" y="1384"/>
			<point x="990" y="1384"/>
			<point x="990" y="1384" type="curve"/>
			<point x="176" y="1384" type="line"/>
			<point x="176" y="1384"/>
			<point x="176" y="1384"/>
			<point x="176" y="1384" type="curve"/>
			<point x="176" y="0" type="line"/>
			<point x="176" y="0"/>
			<point x="176" y="0"/>
			<point x="176" y="0" type="curve"/>
			<point x="344" y="0" type="line"/>
			<point x="344" y="0"/>
			<point x="344" y="0"/>
			<point x="344" y="0" type="curve"/>
		</contour>
	</outline>
</glyph>
<glyph name="G" format="2">
	<unicode hex="0047"/>
	<advance width="627"/>
	<outline>
		<contour>
			<point x="62" y="346" type="curve" smooth="yes"/>
			<point x="62" y="174"/>
			<point x="180" y="-8"/>
			<point x="367" y="-8" type="curve" smooth="yes"/>
			<point x="437" y="-8"/>
			<point x="502" y="10"/>
			<point x="564" y="41" type="curve"/>
			<point x="564" y="294" type="line"/>
			<point x="564" y="294"/>
			<point x="564" y="294"/>
			<point x="564" y="294" type="curve"/>
			<point x="365" y="294" type="line"/>
			<point x="365" y="294"/>
			<point x="365" y="294"/>
			<point x="365" y="294" type="curve"/>
			<point x="365" y="232" type="line"/>
			<point x="365" y="232"/>
			<point x="365" y="232"/>
			<point x="365" y="232" type="curve"/>
			<point x="488" y="232" type="line"/>
			<point x="488" y="76" type="line"/>
			<point x="449" y="65"/>
			<point x="409" y="57"/>
			<point x="369" y="57" type="curve" smooth="yes"/>
			<point x="229" y="57"/>
			<point x="146" y="207"/>
			<point x="146" y="349" type="curve" smooth="yes"/>
			<point x="146" y="490"/>
			<point x="233" y="638"/>
			<point x="369" y="638" type="curve" smooth="yes"/>
			<point x="446" y="638"/>
			<point x="489" y="614"/>
			<point x="542" y="574" type="curve"/>
			<point x="542" y="574"/>
			<point x="542" y="574"/>
			<point x="542" y="574" type="curve"/>
			<point x="542" y="574"/>
			<point x="542" y="574"/>
			<point x="542" y="574" type="curve"/>
			<point x="555" y="654" type="line"/>
			<point x="555" y="654"/>
			<point x="555" y="654"/>
			<point x="555" y="654" type="curve"/>
			<point x="489" y="688"/>
			<point x="448" y="702"/>
			<point x="373" y="702" type="curve" smooth="yes"/>
			<point x="179" y="702"/>
			<point x="62" y="526"/>
		</contour>
	</outline>
</glyph>
<glyph name="H" format="2">
	<unicode hex="0048"/>
	<advance width="1326"/>
	<outline>
		<contour>
			<point x="344" y="660" type="line"/>
			<point x="980" y="660" type="line"/>
			<point x="980" y="0" type="line"/>
			<point x="980" y="0"/>
			<point x="980" y="0"/>
			<point x="980" y="0" type="curve"/>
			<point x="1148" y="0" type="line"/>
			<point x="1148" y="0"/>
			<point x="1148" y="0"/>
			<point x="1148" y="0" type="curve"/>
			<point x="1148" y="1388" type="line"/>
			<point x="1148" y="1388"/>
			<point x="1148" y="1388"/>
			<point x="1148" y="1388" type="curve"/>
			<point x="980" y="1388" type="line"/>
			<point x="980" y="1388"/>
			<point x="980" y="1388"/>
			<point x="980" y="1388" type="curve"/>
			<point x="980" y="782" type="line"/>
			<point x="344" y="782" type="line"/>
			<point x="344" y="1388" type="line"/>
			<point x="344" y="1388"/>
			<point x="344" y="1388"/>
			<point x="344" y="1388" type="curve"/>
			<point x="176" y="1388" type="line"/>
			<point x="176" y="1388"/>
			<point x="176" y="1388"/>
			<point x="176" y="1388" type="curve"/>
			<point x="176" y="0" type="line"/>
			<point x="176" y="0"/>
			<point x="176" y="0"/>
			<point x="176" y="0" type="curve"/>
			<point x="344" y="0" type="line"/>
			<point x="344" y="0"/>
			<point x="344" y="0"/>
			<point x="344" y="0" type="curve"/>
		</contour>
	</outline>
</glyph>
<glyph name="J" format="2">
	<unicode hex="004A"/>
	<advance width="884"/>
	<outline>
		<contour>
			<point x="400" y="-32" type="curve" smooth="yes"/>
			<point x="594" y="-32"/>
			<point x="730" y="80"/>
			<point x="730" y="298" type="curve" smooth="yes"/>
			<point x="730" y="1388" type="line"/>
			<point x="730" y="1388"/>
			<point x="730" y="1388"/>
			<point x="730" y="1388" type="curve"/>
			<point x="566" y="1388" type="line"/>
			<point x="566" y="1388"/>
			<point x="566" y="1388"/>
			<point x="566" y="1388" type="curve"/>
			<point x="566" y="304" type="line" smooth="yes"/>
			<point x="566" y="208"/>
			<point x="526" y="90"/>
			<point x="346" y="90" type="curve" smooth="yes"/>
			<point x="244" y="90"/>
			<point x="158" y="138"/>
			<point x="104" y="198" type="curve"/>
			<point x="104" y="198"/>
			<point x="104" y="198"/>
			<point x="104" y="198" type="curve"/>
			<point x="104" y="198"/>
			<point x="104" y="198"/>
			<point x="104" y="198" type="curve"/>
			<point x="95" y="149"/>
			<point x="87" y="101"/>
			<point x="78" y="52" type="curve"/>
			<point x="78" y="52"/>
			<point x="78" y="52"/>
			<point x="78" y="52" type="curve"/>
			<point x="202" y="-14"/>
			<point x="316" y="-32"/>
		</contour>
	</outline>
</glyph>
<glyph name="K" format="2">
	<unicode hex="004B"/>
	<advance width="650"/>
	<outline>
		<contour>
			<point x="349" y="419" type="line"/>
			<point x="598" y="694" type="line"/>
			<point x="598" y="694"/>
			<point x="598" y="694"/>
			<point x="598" y="694" type="curve"/>
			<point x="598" y="694"/>
			<point x="598" y="694"/>
			<point x="598" y="694" type="curve"/>
			<point x="502" y="694" type="line"/>
			<point x="502" y="694"/>
			<point x="502" y="694"/>
			<point x="502" y="694" type="curve"/>
			<point x="172" y="331" type="line"/>
			<point x="172" y="694" type="line"/>
			<point x="172" y="694"/>
			<point x="172" y="694"/>
			<point x="172" y="694" type="curve"/>
			<point x="88" y="694" type="line"/>
			<point x="88" y="694"/>
			<point x="88" y="694"/>
			<point x="88" y="694" type="curve"/>
			<point x="88" y="0" type="line"/>
			<point x="88" y="0"/>
			<point x="88" y="0"/>
			<point x="88" y="0" type="curve"/>
			<point x="172" y="0" type="line"/>
			<point x="172" y="0"/>
			<point x="172" y="0"/>
			<point x="172" y="0" type="curve"/>
			<point x="172" y="225" type="line"/>
			<point x="293" y="358" type="line"/>
			<point x="518" y="0" type="line"/>
			<point x="518" y="0"/>
			<point x="518" y="0"/>
			<point x="518" y="0" type="curve"/>
			<point x="611" y="0" type="line"/>
			<point x="611" y="0"/>
			<point x="611" y="0"/>
			<point x="611" y="0" type="curve"/>
		</contour>
	</outline>
</glyph>
<glyph name="L" format="2">
	<unicode hex="004C"/>
	<advance width="508"/>
	<outline>
		<contour>
			<point x="172" y="65" type="line"/>
			<point x="172" y="694" type="line"/>
			<point x="172" y="694"/>
			<point x="172" y="694"/>
			<point x="172" y="694" type="curve"/>
			<point x="88" y="694" type="line"/>
			<point x="88" y="694"/>
			<point x="88" y="694"/>
			<point x="88" y="694" type="curve"/>
			<point x="88" y="0" type="line"/>
			<point x="88" y="0"/>
			<point x="88" y="0"/>
			<point x="88" y="0" type="curve"/>
			<point x="469" y="0" type="line"/>
			<point x="469" y="0"/>
			<point x="469" y="0"/>
			<point x="469" y="0" type="curve"/>
			<point x="469" y="65" type="line"/>
			<point x="469" y="65"/>
			<point x="469" y="65"/>
			<point x="469" y="65" type="curve"/>
		</contour>
	</outline>
</glyph>
<glyph name="M" format="2">
	<unicode hex="004D"/>
	<advance width="819"/>
	<outline>
		<contour>
			<point x="239" y="393" type="curve" smooth="yes"/>
			<point x="371" y="16" type="line"/>
			<point x="371" y="16"/>
			<point x="371" y="16"/>
			<point x="371" y="16" type="curve"/>
			<point x="445" y="16" type="line"/>
			<point x="445" y="16"/>
			<point x="445" y="16"/>
			<point x="445" y="16" type="curve"/>
			<point x="564" y="351" type="line" smooth="yes"/>
			<point x="579" y="394"/>
			<point x="633" y="552"/>
			<point x="649" y="615" type="curve"/>
			<point x="650" y="615" type="line"/>
			<point x="650" y="0" type="line"/>
			<point x="650" y="0"/>
			<point x="650" y="0"/>
			<point x="650" y="0" type="curve"/>
			<point x="729" y="0" type="line"/>
			<point x="729" y="0"/>
			<point x="729" y="0"/>
			<point x="729" y="0" type="curve"/>
			<point x="729" y="694" type="line"/>
			<point x="729" y="694"/>
			<point x="729" y="694"/>
			<point x="729" y="694" type="curve"/>
			<point x="613" y="694" type="line"/>
			<point x="613" y="694"/>
			<point x="613" y="694"/>
			<point x="613" y="694" type="curve"/>
			<point x="451" y="232" type="line" smooth="yes"/>
			<point x="443" y="206"/>
			<point x="416" y="125"/>
			<point x="410" y="93" type="curve"/>
			<point x="409" y="93" type="line"/>
			<point x="404" y="125"/>
			<point x="378" y="208"/>
			<point x="355" y="274" type="curve" smooth="yes"/>
			<point x="207" y="694" type="line"/>
			<point x="207" y="694"/>
			<point x="207" y="694"/>
			<point x="207" y="694" type="curve"/>
			<point x="90" y="694" type="line"/>
			<point x="90" y="694"/>
			<point x="90" y="694"/>
			<point x="90" y="694" type="curve"/>
			<point x="90" y="0" type="line"/>
			<point x="90" y="0"/>
			<point x="90" y="0"/>
			<point x="90" y="0" type="curve"/>
			<point x="168" y="0" type="line"/>
			<point x="168" y="0"/>
			<point x="168" y="0"/>
			<point x="168" y="0" type="curve"/>
			<point x="168" y="613" type="line"/>
			<point x="169" y="613" type="line"/>
			<point x="169" y="612"/>
			<point x="178" y="568"/>
		</contour>
	</outline>
</glyph>
<glyph name="O" format="2">
	<unicode hex="004F"/>
	<advance width="1384"/>
	<outline>
		<contour>
			<point x="1280" y="692" type="curve" smooth="yes"/>
			<point x="1280" y="1108"/>
			<point x="1006" y="1420"/>
			<point x="692" y="1420" type="curve" smooth="yes"/>
			<point x="378" y="1420"/>
			<point x="104" y="1106"/>
			<point x="104" y="692" type="curve" smooth="yes"/>
			<point x="104" y="274"/>
			<point x="382" y="-32"/>
			<point x="692" y="-32" type="curve" smooth="yes"/>
			<point x="1002" y="-32"/>
			<point x="1280" y="274"/>
		</contour>
		<contour>
			<point x="692" y="94" type="curve" smooth="yes"/>
			<point x="472" y="94"/>
			<point x="272" y="340"/>
			<point x="272" y="718" type="curve" smooth="yes"/>
			<point x="272" y="1086"/>
			<point x="484" y="1294"/>
			<point x="692" y="1294" type="curve" smooth="yes"/>
			<point x="900" y="1294"/>
			<point x="1112" y="1086"/>
			<point x="1112" y="718" type="curve" smooth="yes"/>
			<point x="1112" y="338"/>
			<point x="910" y="94"/>
		</contour>
	</outline>
</glyph>
<glyph name="P" format="2">
	<unicode hex="0050"/>
	<advance width="1198"/>
	<outline>
		<contour>
			<point x="346" y="578" type="line"/>
			<point x="658" y="578" type="line" smooth="yes"/>
			<point x="898" y="578"/>
			<point x="1094" y="764"/>
			<point x="1094" y="984" type="curve" smooth="yes"/>
			<point x="1094" y="1200"/>
			<point x="906" y="1388"/>
			<point x="646" y="1388" type="curve" smooth="yes"/>
			<point x="178" y="1388" type="line"/>
			<point x="178" y="1388"/>
			<point x="178" y="1388"/>
			<point x="178" y="1388" type="curve"/>
			<point x="178" y="0" type="line"/>
			<point x="178" y="0"/>
			<point x="178" y="0"/>
			<point x="178" y="0" type="curve"/>
			<point x="346" y="0" type="line"/>
			<point x="346" y="0"/>
			<point x="346" y="0"/>
			<point x="346" y="0" type="curve"/>
		</contour>
		<contour>
			<point x="602" y="1276" type="line" smooth="yes"/>
			<point x="834" y="1276"/>
			<point x="936" y="1130"/>
			<point x="936" y="984" type="curve" smooth="yes"/>
			<point x="936" y="848"/>
			<point x="842" y="694"/>
			<point x="602" y="694" type="curve" smooth="yes"/>
			<point x="342" y="694" type="line"/>
			<point x="342" y="1276" type="line"/>
		</contour>
	</outline>
</glyph>
<glyph name="Q" format="2">
  <advance width="692"/>
  <unicode hex="0051"/>
  <outline>
    <contour>
      <point x="500" y="37" type="line"/>
      <point x="622" y="136"/>
      <point x="640" y="270"/>
      <point x="640" y="346" type="curve" smooth="yes"/>
      <point x="640" y="554"/>
      <point x="503" y="710"/>
      <point x="346" y="710" type="curve" smooth="yes"/>
      <point x="189" y="710"/>
      <point x="52" y="553"/>
      <point x="52" y="346" type="curve" smooth="yes"/>
      <point x="52" y="137"/>
      <point x="191" y="-16"/>
      <point x="346" y="-16" type="curve" smooth="yes"/>
      <point x="381" y="-16"/>
      <point x="411" y="-8"/>
      <point x="432" y="0" type="curve"/>
      <point x="516" y="-125" type="line"/>
      <point x="614" y="-125" type="line"/>
    </contour>
    <contour>
      <point x="395" y="55" type="line"/>
      <point x="381" y="50"/>
      <point x="364" y="47"/>
      <point x="346" y="47" type="curve" smooth="yes"/>
      <point x="238" y="47"/>
      <point x="134" y="160"/>
      <point x="134" y="346" type="curve" smooth="yes"/>
      <point x="134" y="531"/>
      <point x="237" y="647"/>
      <point x="346" y="647" type="curve" smooth="yes"/>
      <point x="456" y="647"/>
      <point x="558" y="530"/>
      <point x="558" y="346" type="curve" smooth="yes"/>
      <point x="558" y="282"/>
      <point x="548" y="175"/>
      <point x="461" y="93" type="curve"/>
      <point x="389" y="194" type="line"/>
      <point x="303" y="194" type="line"/>
    </contour>
  </outline>
</glyph>
<glyph name="R" format="2">
	<unicode hex="0052"/>
	<advance width="1212"/>
	<outline>
		<contour>
			<point x="788" y="652" type="line"/>
			<point x="1096" y="758"/>
			<point x="1106" y="966"/>
			<point x="1106" y="1016" type="curve" smooth="yes"/>
			<point x="1106" y="1206"/>
			<point x="914" y="1388"/>
			<point x="626" y="1388" type="curve" smooth="yes"/>
			<point x="178" y="1388" type="line"/>
			<point x="178" y="1388"/>
			<point x="178" y="1388"/>
			<point x="178" y="1388" type="curve"/>
			<point x="178" y="0" type="line"/>
			<point x="178" y="0"/>
			<point x="178" y="0"/>
			<point x="178" y="0" type="curve"/>
			<point x="342" y="0" type="line"/>
			<point x="342" y="0"/>
			<point x="342" y="0"/>
			<point x="342" y="0" type="curve"/>
			<point x="342" y="634" type="line"/>
			<point x="636" y="634" type="line"/>
			<point x="990" y="0" type="line"/>
			<point x="990" y="0"/>
			<point x="990" y="0"/>
			<point x="990" y="0" type="curve"/>
			<point x="1158" y="0" type="line"/>
			<point x="1158" y="0"/>
			<point x="1158" y="0"/>
			<point x="1158" y="0" type="curve"/>
		</contour>
		<contour>
			<point x="342" y="756" type="line"/>
			<point x="342" y="1276" type="line"/>
			<point x="604" y="1276" type="line" smooth="yes"/>
			<point x="858" y="1276"/>
			<point x="948" y="1132"/>
			<point x="948" y="1016" type="curve" smooth="yes"/>
			<point x="948" y="908"/>
			<point x="868" y="756"/>
			<point x="604" y="756" type="curve" smooth="yes"/>
		</contour>
	</outline>
</glyph>
<glyph name="S" format="2">
	<unicode hex="0053"/>
	<advance width="1044"/>
	<outline>
		<contour>
			<point x="786" y="364" type="curve" smooth="yes"/>
			<point x="786" y="238"/>
			<point x="688" y="104"/>
			<point x="514" y="104" type="curve" smooth="yes"/>
			<point x="454" y="104"/>
			<point x="278" y="114"/>
			<point x="112" y="266" type="curve"/>
			<point x="112" y="266"/>
			<point x="112" y="266"/>
			<point x="112" y="266" type="curve"/>
			<point x="112" y="266"/>
			<point x="112" y="266"/>
			<point x="112" y="266" type="curve"/>
			<point x="84" y="108" type="line"/>
			<point x="84" y="108"/>
			<point x="84" y="108"/>
			<point x="84" y="108" type="curve"/>
			<point x="248" y="-12"/>
			<point x="426" y="-32"/>
			<point x="516" y="-32" type="curve" smooth="yes"/>
			<point x="762" y="-32"/>
			<point x="938" y="162"/>
			<point x="938" y="382" type="curve" smooth="yes"/>
			<point x="938" y="462"/>
			<point x="914" y="564"/>
			<point x="830" y="658" type="curve" smooth="yes"/>
			<point x="748" y="748"/>
			<point x="676" y="768"/>
			<point x="512" y="812" type="curve" smooth="yes"/>
			<point x="418" y="836"/>
			<point x="358" y="852"/>
			<point x="308" y="914" type="curve" smooth="yes"/>
			<point x="274" y="958"/>
			<point x="256" y="1000"/>
			<point x="256" y="1054" type="curve" smooth="yes"/>
			<point x="256" y="1166"/>
			<point x="352" y="1288"/>
			<point x="528" y="1288" type="curve" smooth="yes"/>
			<point x="616" y="1288"/>
			<point x="730" y="1270"/>
			<point x="846" y="1162" type="curve"/>
			<point x="846" y="1162"/>
			<point x="846" y="1162"/>
			<point x="846" y="1162" type="curve"/>
			<point x="846" y="1162"/>
			<point x="846" y="1162"/>
			<point x="846" y="1162" type="curve"/>
			<point x="874" y="1322" type="line"/>
			<point x="874" y="1322"/>
			<point x="874" y="1322"/>
			<point x="874" y="1322" type="curve"/>
			<point x="786" y="1374"/>
			<point x="690" y="1420"/>
			<point x="528" y="1420" type="curve" smooth="yes"/>
			<point x="270" y="1420"/>
			<point x="104" y="1230"/>
			<point x="104" y="1036" type="curve" smooth="yes"/>
			<point x="104" y="960"/>
			<point x="126" y="874"/>
			<point x="204" y="786" type="curve" smooth="yes"/>
			<point x="282" y="698"/>
			<point x="370" y="674"/>
			<point x="482" y="646" type="curve" smooth="yes"/>
			<point x="528" y="634"/>
			<point x="606" y="612"/>
			<point x="620" y="606" type="curve" smooth="yes"/>
			<point x="732" y="562"/>
			<point x="786" y="460"/>
		</contour>
	</outline>
</glyph>
<glyph name="T" format="2">
	<unicode hex="0054"/>
	<advance width="640"/>
	<outline>
		<contour>
			<point x="278" y="627" type="line"/>
			<point x="278" y="0" type="line"/>
			<point x="278" y="0"/>
			<point x="278" y="0"/>
			<point x="278" y="0" type="curve"/>
			<point x="362" y="0" type="line"/>
			<point x="362" y="0"/>
			<point x="362" y="0"/>
			<point x="362" y="0" type="curve"/>
			<point x="362" y="627" type="line"/>
			<point x="443.252" y="627"/>
			<point x="524.504" y="627"/>
			<point x="606" y="627" type="curve"/>
			<point x="606" y="627"/>
			<point x="606" y="627"/>
			<point x="606" y="627" type="curve"/>
			<point x="606" y="691" type="line"/>
			<point x="606" y="691"/>
			<point x="606" y="691"/>
			<point x="606" y="691" type="curve"/>
			<point x="34" y="691" type="line"/>
			<point x="34" y="691"/>
			<point x="34" y="691"/>
			<point x="34" y="691" type="curve"/>
			<point x="34" y="627" type="line"/>
			<point x="34" y="627"/>
			<point x="34" y="627"/>
			<point x="34" y="627" type="curve"/>
		</contour>
	</outline>
</glyph>
<glyph name="U" format="2">
	<unicode hex="0055"/>
	<advance width="1286"/>
	<outline>
		<contour>
			<point x="646" y="-32" type="curve" smooth="yes"/>
			<point x="894" y="-32"/>
			<point x="1110" y="178"/>
			<point x="1110" y="466" type="curve" smooth="yes"/>
			<point x="1110" y="1388" type="line"/>
			<point x="1110" y="1388"/>
			<point x="1110" y="1388"/>
			<point x="1110" y="1388" type="curve"/>
			<point x="958" y="1388" type="line"/>
			<point x="958" y="1388"/>
			<point x="958" y="1388"/>
			<point x="958" y="1388" type="curve"/>
			<point x="958" y="464" type="line" smooth="yes"/>
			<point x="958" y="198"/>
			<point x="796" y="80"/>
			<point x="648" y="80" type="curve" smooth="yes"/>
			<point x="496" y="80"/>
			<point x="344" y="204"/>
			<point x="344" y="462" type="curve" smooth="yes"/>
			<point x="344" y="1388" type="line"/>
			<point x="344" y="1388"/>
			<point x="344" y="1388"/>
			<point x="344" y="1388" type="curve"/>
			<point x="176" y="1388" type="line"/>
			<point x="176" y="1388"/>
			<point x="176" y="1388"/>
			<point x="176" y="1388" type="curve"/>
			<point x="176" y="466" type="line" smooth="yes"/>
			<point x="176" y="178"/>
			<point x="398" y="-32"/>
		</contour>
	</outline>
</glyph>
<glyph name="V" format="2">
	<unicode hex="0056"/>
	<advance width="1248"/>
	<outline>
		<contour>
			<point x="520" y="504" type="curve" smooth="yes"/>
			<point x="202" y="1388" type="line"/>
			<point x="202" y="1388"/>
			<point x="202" y="1388"/>
			<point x="202" y="1388" type="curve"/>
			<point x="26" y="1388" type="line"/>
			<point x="26" y="1388"/>
			<point x="26" y="1388"/>
			<point x="26" y="1388" type="curve"/>
			<point x="26" y="1388"/>
			<point x="26" y="1388"/>
			<point x="26" y="1388" type="curve"/>
			<point x="536" y="0" type="line"/>
			<point x="536" y="0"/>
			<point x="536" y="0"/>
			<point x="536" y="0" type="curve"/>
			<point x="712" y="0" type="line"/>
			<point x="712" y="0"/>
			<point x="712" y="0"/>
			<point x="712" y="0" type="curve"/>
			<point x="1222" y="1388" type="line"/>
			<point x="1222" y="1388"/>
			<point x="1222" y="1388"/>
			<point x="1222" y="1388" type="curve"/>
			<point x="1222" y="1388"/>
			<point x="1222" y="1388"/>
			<point x="1222" y="1388" type="curve"/>
			<point x="1066" y="1388" type="line"/>
			<point x="1066" y="1388"/>
			<point x="1066" y="1388"/>
			<point x="1066" y="1388" type="curve"/>
			<point x="951" y="1068"/>
			<point x="836" y="749"/>
			<point x="720" y="428" type="curve" smooth="yes"/>
			<point x="710" y="400"/>
			<point x="648" y="216"/>
			<point x="636" y="152" type="curve"/>
			<point x="634" y="152" type="line"/>
			<point x="618" y="228"/>
			<point x="556" y="406"/>
		</contour>
	</outline>
</glyph>
<glyph name="W" format="2">
	<unicode hex="0057"/>
	<advance width="885"/>
	<outline>
		<contour>
			<point x="405" y="448" type="line" smooth="yes"/>
			<point x="432" y="560"/>
			<point x="438" y="588"/>
			<point x="440" y="613" type="curve"/>
			<point x="441" y="613" type="line"/>
			<point x="441" y="609"/>
			<point x="450" y="546"/>
			<point x="489" y="400" type="curve" smooth="yes"/>
			<point x="595" y="0" type="line"/>
			<point x="595" y="0"/>
			<point x="595" y="0"/>
			<point x="595" y="0" type="curve"/>
			<point x="682" y="0" type="line"/>
			<point x="682" y="0"/>
			<point x="682" y="0"/>
			<point x="682" y="0" type="curve"/>
			<point x="872" y="694" type="line"/>
			<point x="872" y="694"/>
			<point x="872" y="694"/>
			<point x="872" y="694" type="curve"/>
			<point x="872" y="694"/>
			<point x="872" y="694"/>
			<point x="872" y="694" type="curve"/>
			<point x="796" y="694" type="line"/>
			<point x="796" y="694"/>
			<point x="796" y="694"/>
			<point x="796" y="694" type="curve"/>
			<point x="712" y="383" type="line" smooth="yes"/>
			<point x="692" y="310"/>
			<point x="647" y="124"/>
			<point x="642" y="81" type="curve"/>
			<point x="641" y="81" type="line"/>
			<point x="639" y="118"/>
			<point x="590" y="316"/>
			<point x="571" y="387" type="curve" smooth="yes"/>
			<point x="488" y="694" type="line"/>
			<point x="488" y="694"/>
			<point x="488" y="694"/>
			<point x="488" y="694" type="curve"/>
			<point x="404" y="694" type="line"/>
			<point x="404" y="694"/>
			<point x="404" y="694"/>
			<point x="404" y="694" type="curve"/>
			<point x="285" y="244" type="line" smooth="yes"/>
			<point x="255" y="118"/>
			<point x="254" y="100"/>
			<point x="252" y="80" type="curve"/>
			<point x="251" y="80" type="line"/>
			<point x="252" y="91"/>
			<point x="221" y="240"/>
			<point x="176" y="409" type="curve" smooth="yes"/>
			<point x="99" y="694" type="line"/>
			<point x="99" y="694"/>
			<point x="99" y="694"/>
			<point x="99" y="694" type="curve"/>
			<point x="13" y="694" type="line"/>
			<point x="13" y="694"/>
			<point x="13" y="694"/>
			<point x="13" y="694" type="curve"/>
			<point x="13" y="694"/>
			<point x="13" y="694"/>
			<point x="13" y="694" type="curve"/>
			<point x="203" y="0" type="line"/>
			<point x="203" y="0"/>
			<point x="203" y="0"/>
			<point x="203" y="0" type="curve"/>
			<point x="286" y="0" type="line"/>
			<point x="286" y="0"/>
			<point x="286" y="0"/>
			<point x="286" y="0" type="curve"/>
		</contour>
	</outline>
</glyph>
<glyph name="X" format="2">
	<unicode hex="0058"/>
	<advance width="1248"/>
	<outline>
		<contour>
			<point x="692" y="732" type="line"/>
			<point x="1144" y="1388" type="line"/>
			<point x="1144" y="1388"/>
			<point x="1144" y="1388"/>
			<point x="1144" y="1388" type="curve"/>
			<point x="1144" y="1388"/>
			<point x="1144" y="1388"/>
			<point x="1144" y="1388" type="curve"/>
			<point x="960" y="1388" type="line"/>
			<point x="960" y="1388"/>
			<point x="960" y="1388"/>
			<point x="960" y="1388" type="curve"/>
			<point x="610" y="868" type="line"/>
			<point x="250" y="1388" type="line"/>
			<point x="250" y="1388"/>
			<point x="250" y="1388"/>
			<point x="250" y="1388" type="curve"/>
			<point x="52" y="1388" type="line"/>
			<point x="52" y="1388"/>
			<point x="52" y="1388"/>
			<point x="52" y="1388" type="curve"/>
			<point x="52" y="1388"/>
			<point x="52" y="1388"/>
			<point x="52" y="1388" type="curve"/>
			<point x="528" y="732" type="line"/>
			<point x="26" y="0" type="line"/>
			<point x="26" y="0"/>
			<point x="26" y="0"/>
			<point x="26" y="0" type="curve"/>
			<point x="26" y="0"/>
			<point x="26" y="0"/>
			<point x="26" y="0" type="curve"/>
			<point x="210" y="0" type="line"/>
			<point x="210" y="0"/>
			<point x="210" y="0"/>
			<point x="210" y="0" type="curve"/>
			<point x="610" y="610" type="line"/>
			<point x="1024" y="0" type="line"/>
			<point x="1024" y="0"/>
			<point x="1024" y="0"/>
			<point x="1024" y="0" type="curve"/>
			<point x="1222" y="0" type="line"/>
			<point x="1222" y="0"/>
			<point x="1222" y="0"/>
			<point x="1222" y="0" type="curve"/>
			<point x="1222" y="0"/>
			<point x="1222" y="0"/>
			<point x="1222" y="0" type="curve"/>
		</contour>
	</outline>
</glyph>
<glyph name="Y" format="2">
	<unicode hex="0059"/>
	<advance width="1248"/>
	<outline>
		<contour>
			<point x="542" y="556" type="line"/>
			<point x="542" y="0" type="line"/>
			<point x="542" y="0"/>
			<point x="542" y="0"/>
			<point x="542" y="0" type="curve"/>
			<point x="706" y="0" type="line"/>
			<point x="706" y="0"/>
			<point x="706" y="0"/>
			<point x="706" y="0" type="curve"/>
			<point x="706" y="554" type="line"/>
			<point x="1242" y="1388" type="line"/>
			<point x="1242" y="1388"/>
			<point x="1242" y="1388"/>
			<point x="1242" y="1388" type="curve"/>
			<point x="1242" y="1388"/>
			<point x="1242" y="1388"/>
			<point x="1242" y="1388" type="curve"/>
			<point x="1070" y="1388" type="line"/>
			<point x="1070" y="1388"/>
			<point x="1070" y="1388"/>
			<point x="1070" y="1388" type="curve"/>
			<point x="760" y="904" type="line" smooth="yes"/>
			<point x="736" y="866"/>
			<point x="668" y="762"/>
			<point x="636" y="704" type="curve"/>
			<point x="604" y="756"/>
			<point x="570" y="810"/>
			<point x="538" y="862" type="curve" smooth="yes"/>
			<point x="202" y="1388" type="line"/>
			<point x="202" y="1388"/>
			<point x="202" y="1388"/>
			<point x="202" y="1388" type="curve"/>
			<point x="6" y="1388" type="line"/>
			<point x="6" y="1388"/>
			<point x="6" y="1388"/>
			<point x="6" y="1388" type="curve"/>
			<point x="6" y="1388"/>
			<point x="6" y="1388"/>
			<point x="6" y="1388" type="curve"/>
		</contour>
	</outline>
</glyph>
<glyph name="Z" format="2">
	<unicode hex="005A"/>
	<advance width="574"/>
	<outline>
		<contour>
			<point x="416" y="632" type="curve"/>
			<point x="52" y="43" type="line"/>
			<point x="52" y="43"/>
			<point x="52" y="43"/>
			<point x="52" y="43" type="curve"/>
			<point x="52" y="0" type="line"/>
			<point x="52" y="0"/>
			<point x="52" y="0"/>
			<point x="52" y="0" type="curve"/>
			<point x="527" y="0" type="line"/>
			<point x="527" y="0"/>
			<point x="527" y="0"/>
			<point x="527" y="0" type="curve"/>
			<point x="527" y="66" type="line"/>
			<point x="527" y="66"/>
			<point x="527" y="66"/>
			<point x="527" y="66" type="curve"/>
			<point x="438" y="66" type="line" smooth="yes"/>
			<point x="355" y="66"/>
			<point x="271" y="64"/>
			<point x="158" y="64" type="curve"/>
			<point x="522" y="653" type="line"/>
			<point x="522" y="653"/>
			<point x="522" y="653"/>
			<point x="522" y="653" type="curve"/>
			<point x="522" y="694" type="line"/>
			<point x="522" y="694"/>
			<point x="522" y="694"/>
			<point x="522" y="694" type="curve"/>
			<point x="65" y="694" type="line"/>
			<point x="65" y="694"/>
			<point x="65" y="694"/>
			<point x="65" y="694" type="curve"/>
			<point x="65" y="631" type="line"/>
			<point x="65" y="631"/>
			<point x="65" y="631"/>
			<point x="65" y="631" type="curve"/>
			<point x="127.271" y="631"/>
			<point x="189.542" y="631"/>
			<point x="252" y="631" type="curve" smooth="yes"/>
			<point x="264" y="631"/>
			<point x="276" y="631"/>
		</contour>
	</outline>
</glyph>
<glyph name="bracketleft" format="2">
  <advance width="272"/>
  <unicode hex="005B"/>
  <outline>
    <contour>
      <point x="252" y="-249" type="line"/>
      <point x="252" y="-188" type="line"/>
      <point x="166" y="-188" type="line"/>
      <point x="166" y="688" type="line"/>
      <point x="252" y="688" type="line"/>
      <point x="252" y="749" type="line"/>
      <point x="93" y="749" type="line"/>
      <point x="93" y="-249" type="line"/>
    </contour>
  </outline>
</glyph>
<glyph name="bracketright" format="2">
	<unicode hex="005D"/>
	<advance width="544"/>
	<outline>
		<contour>
			<point x="212" y="1376" type="line"/>
			<point x="212" y="-376" type="line"/>
			<point x="40" y="-376" type="line"/>
			<point x="40" y="-376"/>
			<point x="40" y="-376"/>
			<point x="40" y="-376" type="curve"/>
			<point x="40" y="-498" type="line"/>
			<point x="40" y="-498"/>
			<point x="40" y="-498"/>
			<point x="40" y="-498" type="curve"/>
			<point x="358" y="-498" type="line"/>
			<point x="358" y="-498"/>
			<point x="358" y="-498"/>
			<point x="358" y="-498" type="curve"/>
			<point x="358" y="1498" type="line"/>
			<point x="358" y="1498"/>
			<point x="358" y="1498"/>
			<point x="358" y="1498" type="curve"/>
			<point x="40" y="1498" type="line"/>
			<point x="40" y="1498"/>
			<point x="40" y="1498"/>
			<point x="40" y="1498" type="curve"/>
			<point x="40" y="1376" type="line"/>
			<point x="40" y="1376"/>
			<point x="40" y="1376"/>
			<point x="40" y="1376" type="curve"/>
		</contour>
	</outline>
</glyph>
<glyph name="grave" format="2">
	<unicode hex="0060"/>
	<advance width="940"/>
	<outline>
		<contour>
			<point x="434" y="1036" type="line"/>
			<point x="434" y="1036"/>
			<point x="434" y="1036"/>
			<point x="434" y="1036" type="curve"/>
			<point x="556" y="1036" type="line"/>
			<point x="556" y="1036"/>
			<point x="556" y="1036"/>
			<point x="556" y="1036" type="curve"/>
			<point x="556" y="1036"/>
			<point x="556" y="1036"/>
			<point x="556" y="1036" type="curve"/>
			<point x="308" y="1388" type="line"/>
			<point x="308" y="1388"/>
			<point x="308" y="1388"/>
			<point x="308" y="1388" type="curve"/>
			<point x="156" y="1388" type="line"/>
			<point x="156" y="1388"/>
			<point x="156" y="1388"/>
			<point x="156" y="1388" type="curve"/>
			<point x="156" y="1388"/>
			<point x="156" y="1388"/>
			<point x="156" y="1388" type="curve"/>
		</contour>
	</outline>
</glyph>
<glyph name="a" format="2">
	<unicode hex="0061"/>
	<advance width="900"/>
	<outline>
		<contour>
			<point x="752" y="566" type="line" smooth="yes"/>
			<point x="752" y="754"/>
			<point x="618" y="884"/>
			<point x="438" y="884" type="curve" smooth="yes"/>
			<point x="350" y="884"/>
			<point x="254" y="868"/>
			<point x="144" y="804" type="curve"/>
			<point x="144" y="804"/>
			<point x="144" y="804"/>
			<point x="144" y="804" type="curve"/>
			<point x="148" y="760"/>
			<point x="152" y="716"/>
			<point x="156" y="672" type="curve"/>
			<point x="156" y="672"/>
			<point x="156" y="672"/>
			<point x="156" y="672" type="curve"/>
			<point x="156" y="672"/>
			<point x="156" y="672"/>
			<point x="156" y="672" type="curve"/>
			<point x="206" y="708"/>
			<point x="292" y="766"/>
			<point x="436" y="766" type="curve" smooth="yes"/>
			<point x="538" y="766"/>
			<point x="600" y="688"/>
			<point x="600" y="564" type="curve" smooth="yes"/>
			<point x="600" y="488" type="line"/>
			<point x="280" y="478"/>
			<point x="80" y="386"/>
			<point x="80" y="228" type="curve" smooth="yes"/>
			<point x="80" y="146"/>
			<point x="130" y="-16"/>
			<point x="296" y="-16" type="curve" smooth="yes"/>
			<point x="326" y="-16"/>
			<point x="488" y="-12"/>
			<point x="604" y="74" type="curve"/>
			<point x="604" y="0" type="line"/>
			<point x="604" y="0"/>
			<point x="604" y="0"/>
			<point x="604" y="0" type="curve"/>
			<point x="752" y="0" type="line"/>
			<point x="752" y="0"/>
			<point x="752" y="0"/>
			<point x="752" y="0" type="curve"/>
		</contour>
		<contour>
			<point x="600" y="264" type="line" smooth="yes"/>
			<point x="600" y="228"/>
			<point x="600" y="180"/>
			<point x="540" y="144" type="curve" smooth="yes"/>
			<point x="488" y="110"/>
			<point x="422" y="106"/>
			<point x="394" y="106" type="curve" smooth="yes"/>
			<point x="294" y="106"/>
			<point x="226" y="162"/>
			<point x="226" y="232" type="curve" smooth="yes"/>
			<point x="226" y="372"/>
			<point x="538" y="386"/>
			<point x="600" y="388" type="curve"/>
		</contour>
	</outline>
</glyph>
<glyph name="b" format="2">
	<unicode hex="0062"/>
	<advance width="966"/>
	<outline>
		<contour>
			<point x="900" y="432" type="curve" smooth="yes"/>
			<point x="900" y="664"/>
			<point x="780" y="876"/>
			<point x="602" y="876" type="curve" smooth="yes"/>
			<point x="476" y="876"/>
			<point x="364" y="824"/>
			<point x="298" y="770" type="curve"/>
			<point x="298" y="1388" type="line"/>
			<point x="298" y="1388"/>
			<point x="298" y="1388"/>
			<point x="298" y="1388" type="curve"/>
			<point x="150" y="1388" type="line"/>
			<point x="150" y="1388"/>
			<point x="150" y="1388"/>
			<point x="150" y="1388" type="curve"/>
			<point x="150" y="0" type="line"/>
			<point x="150" y="0"/>
			<point x="150" y="0"/>
			<point x="150" y="0" type="curve"/>
			<point x="302" y="0" type="line"/>
			<point x="302" y="0"/>
			<point x="302" y="0"/>
			<point x="302" y="0" type="curve"/>
			<point x="302" y="90" type="line"/>
			<point x="378" y="16"/>
			<point x="470" y="-16"/>
			<point x="552" y="-16" type="curve" smooth="yes"/>
			<point x="744" y="-16"/>
			<point x="900" y="178"/>
		</contour>
		<contour>
			<point x="302" y="652" type="line"/>
			<point x="322" y="678"/>
			<point x="347" y="702"/>
			<point x="376" y="720" type="curve" smooth="yes"/>
			<point x="409" y="741"/>
			<point x="449" y="754"/>
			<point x="496" y="754" type="curve" smooth="yes"/>
			<point x="614" y="754"/>
			<point x="748" y="668"/>
			<point x="748" y="432" type="curve" smooth="yes"/>
			<point x="748" y="180"/>
			<point x="588" y="106"/>
			<point x="478" y="106" type="curve" smooth="yes"/>
			<point x="438" y="106"/>
			<point x="396" y="116"/>
			<point x="356" y="150" type="curve" smooth="yes"/>
			<point x="302" y="198"/>
			<point x="302" y="228"/>
			<point x="302" y="256" type="curve" smooth="yes"/>
		</contour>
	</outline>
</glyph>
<glyph name="c" format="2">
	<unicode hex="0063"/>
	<advance width="417"/>
	<outline>
		<contour>
			<point x="33" y="215" type="curve" smooth="yes"/>
			<point x="33" y="95"/>
			<point x="120" y="-8"/>
			<point x="237" y="-8" type="curve" smooth="yes"/>
			<point x="304" y="-8"/>
			<point x="352" y="14"/>
			<point x="391" y="40" type="curve"/>
			<point x="391" y="40"/>
			<point x="391" y="40"/>
			<point x="391" y="40" type="curve"/>
			<point x="389.002" y="61.978"/>
			<point x="387.004" y="83.956"/>
			<point x="385" y="106" type="curve"/>
			<point x="385" y="106"/>
			<point x="385" y="106"/>
			<point x="385" y="106" type="curve"/>
			<point x="385" y="106"/>
			<point x="385" y="106"/>
			<point x="385" y="106" type="curve"/>
			<point x="342" y="73"/>
			<point x="292" y="55"/>
			<point x="238" y="55" type="curve" smooth="yes"/>
			<point x="160" y="55"/>
			<point x="109" y="123"/>
			<point x="109" y="216" type="curve" smooth="yes"/>
			<point x="109" y="288"/>
			<point x="142" y="379"/>
			<point x="242" y="379" type="curve" smooth="yes"/>
			<point x="297" y="379"/>
			<point x="328" y="368"/>
			<point x="374" y="337" type="curve"/>
			<point x="374" y="337"/>
			<point x="374" y="337"/>
			<point x="374" y="337" type="curve"/>
			<point x="374" y="337"/>
			<point x="374" y="337"/>
			<point x="374" y="337" type="curve"/>
			<point x="377.663" y="358.312"/>
			<point x="381.326" y="379.624"/>
			<point x="385" y="401" type="curve"/>
			<point x="385" y="401"/>
			<point x="385" y="401"/>
			<point x="385" y="401" type="curve"/>
			<point x="353" y="422"/>
			<point x="310" y="442"/>
			<point x="241" y="442" type="curve" smooth="yes"/>
			<point x="111" y="442"/>
			<point x="33" y="329"/>
		</contour>
	</outline>
</glyph>
<glyph name="d" format="2">
  <advance width="483"/>
  <unicode hex="0064"/>
  <outline>
    <contour>
      <point x="33" y="215" type="curve" smooth="yes"/>
      <point x="33" y="91"/>
      <point x="104" y="-8"/>
      <point x="193" y="-8" type="curve" smooth="yes"/>
      <point x="262" y="-8"/>
      <point x="308" y="29"/>
      <point x="332" y="50" type="curve"/>
      <point x="332" y="0" type="line"/>
      <point x="332" y="0" type="line"/>
      <point x="408" y="0" type="line"/>
      <point x="408" y="0" type="line"/>
      <point x="408" y="694" type="line"/>
      <point x="408" y="694" type="line"/>
      <point x="334" y="694" type="line"/>
      <point x="334" y="694" type="line"/>
      <point x="334" y="388" type="line"/>
      <point x="303" y="414"/>
      <point x="252" y="438"/>
      <point x="196" y="438" type="curve" smooth="yes"/>
      <point x="105" y="438"/>
      <point x="33" y="339"/>
    </contour>
    <contour>
      <point x="332" y="134" type="line" smooth="yes"/>
      <point x="332" y="120"/>
      <point x="332" y="105"/>
      <point x="301" y="78" type="curve" smooth="yes"/>
      <point x="281" y="61"/>
      <point x="257" y="53"/>
      <point x="234" y="53" type="curve" smooth="yes"/>
      <point x="180" y="53"/>
      <point x="109" y="93"/>
      <point x="109" y="214" type="curve" smooth="yes"/>
      <point x="109" y="340"/>
      <point x="189" y="377"/>
      <point x="244" y="377" type="curve" smooth="yes"/>
      <point x="281" y="377"/>
      <point x="311" y="359"/>
      <point x="332" y="329" type="curve"/>
    </contour>
  </outline>
</glyph>
<glyph name="e" format="2">
	<unicode hex="0065"/>
	<advance width="834"/>
	<outline>
		<contour>
			<point x="60" y="434" type="curve" smooth="yes"/>
			<point x="60" y="186"/>
			<point x="242" y="-16"/>
			<point x="472" y="-16" type="curve" smooth="yes"/>
			<point x="562" y="-16"/>
			<point x="672" y="10"/>
			<point x="772" y="82" type="curve"/>
			<point x="772" y="82"/>
			<point x="772" y="82"/>
			<point x="772" y="82" type="curve"/>
			<point x="768" y="125"/>
			<point x="764" y="167"/>
			<point x="760" y="210" type="curve"/>
			<point x="760" y="210"/>
			<point x="760" y="210"/>
			<point x="760" y="210" type="curve"/>
			<point x="760" y="210"/>
			<point x="760" y="210"/>
			<point x="760" y="210" type="curve"/>
			<point x="664" y="132"/>
			<point x="554" y="106"/>
			<point x="474" y="106" type="curve" smooth="yes"/>
			<point x="346" y="106"/>
			<point x="208" y="214"/>
			<point x="202" y="438" type="curve"/>
			<point x="782" y="438" type="line"/>
			<point x="782" y="438"/>
			<point x="782" y="438"/>
			<point x="782" y="438" type="curve"/>
			<point x="782" y="504"/>
			<point x="778" y="632"/>
			<point x="714" y="738" type="curve" smooth="yes"/>
			<point x="644" y="852"/>
			<point x="530" y="884"/>
			<point x="444" y="884" type="curve" smooth="yes"/>
			<point x="236" y="884"/>
			<point x="60" y="688"/>
		</contour>
		<contour>
			<point x="218" y="548" type="line"/>
			<point x="244" y="658"/>
			<point x="332" y="762"/>
			<point x="444" y="762" type="curve" smooth="yes"/>
			<point x="474" y="762"/>
			<point x="614" y="758"/>
			<point x="650" y="548" type="curve"/>
		</contour>
	</outline>
</glyph>
<glyph name="f" format="2">
	<unicode hex="0066"/>
	<advance width="574"/>
	<outline>
		<contour>
			<point x="188" y="860" type="line"/>
			<point x="50" y="860" type="line"/>
			<point x="50" y="860"/>
			<point x="50" y="860"/>
			<point x="50" y="860" type="curve"/>
			<point x="50" y="744" type="line"/>
			<point x="50" y="744"/>
			<point x="50" y="744"/>
			<point x="50" y="744" type="curve"/>
			<point x="188" y="744" type="line"/>
			<point x="188" y="0" type="line"/>
			<point x="188" y="0"/>
			<point x="188" y="0"/>
			<point x="188" y="0" type="curve"/>
			<point x="336" y="0" type="line"/>
			<point x="336" y="0"/>
			<point x="336" y="0"/>
			<point x="336" y="0" type="curve"/>
			<point x="336" y="744" type="line"/>
			<point x="538" y="744" type="line"/>
			<point x="538" y="744"/>
			<point x="538" y="744"/>
			<point x="538" y="744" type="curve"/>
			<point x="538" y="860" type="line"/>
			<point x="538" y="860"/>
			<point x="538" y="860"/>
			<point x="538" y="860" type="curve"/>
			<point x="332" y="860" type="line"/>
			<point x="332" y="1116" type="line" smooth="yes"/>
			<point x="332" y="1258"/>
			<point x="440" y="1282"/>
			<point x="502" y="1282" type="curve" smooth="yes"/>
			<point x="522" y="1282"/>
			<point x="578" y="1282"/>
			<point x="650" y="1256" type="curve"/>
			<point x="650" y="1256"/>
			<point x="650" y="1256"/>
			<point x="650" y="1256" type="curve"/>
			<point x="650" y="1256"/>
			<point x="650" y="1256"/>
			<point x="650" y="1256" type="curve"/>
			<point x="650" y="1388" type="line"/>
			<point x="650" y="1388"/>
			<point x="650" y="1388"/>
			<point x="650" y="1388" type="curve"/>
			<point x="604" y="1398"/>
			<point x="548" y="1404"/>
			<point x="504" y="1404" type="curve" smooth="yes"/>
			<point x="318" y="1404"/>
			<point x="188" y="1252"/>
			<point x="188" y="1054" type="curve" smooth="yes"/>
		</contour>
	</outline>
</glyph>
<glyph name="h" format="2">
	<unicode hex="0068"/>
	<advance width="966"/>
	<outline>
		<contour>
			<point x="818" y="584" type="line" smooth="yes"/>
			<point x="818" y="710"/>
			<point x="788" y="876"/>
			<point x="562" y="876" type="curve" smooth="yes"/>
			<point x="436" y="876"/>
			<point x="354" y="814"/>
			<point x="296" y="746" type="curve"/>
			<point x="296" y="746" type="line"/>
			<point x="296" y="1388" type="line"/>
			<point x="296" y="1388"/>
			<point x="296" y="1388"/>
			<point x="296" y="1388" type="curve"/>
			<point x="148" y="1388" type="line"/>
			<point x="148" y="1388"/>
			<point x="148" y="1388"/>
			<point x="148" y="1388" type="curve"/>
			<point x="148" y="0" type="line"/>
			<point x="148" y="0"/>
			<point x="148" y="0"/>
			<point x="148" y="0" type="curve"/>
			<point x="300" y="0" type="line"/>
			<point x="300" y="0"/>
			<point x="300" y="0"/>
			<point x="300" y="0" type="curve"/>
			<point x="300" y="484" type="line" smooth="yes"/>
			<point x="300" y="610"/>
			<point x="348" y="754"/>
			<point x="484" y="754" type="curve" smooth="yes"/>
			<point x="660" y="754"/>
			<point x="666" y="636"/>
			<point x="666" y="568" type="curve" smooth="yes"/>
			<point x="666" y="0" type="line"/>
			<point x="666" y="0"/>
			<point x="666" y="0"/>
			<point x="666" y="0" type="curve"/>
			<point x="818" y="0" type="line"/>
			<point x="818" y="0"/>
			<point x="818" y="0"/>
			<point x="818" y="0" type="curve"/>
		</contour>
	</outline>
</glyph>
<glyph name="i" format="2">
	<unicode hex="0069"/>
	<advance width="444"/>
	<outline>
		<contour>
			<point x="138" y="1316" type="curve"/>
			<point x="138" y="1148" type="line"/>
			<point x="138" y="1148"/>
			<point x="138" y="1148"/>
			<point x="138" y="1148" type="curve"/>
			<point x="306" y="1148" type="line"/>
			<point x="306" y="1148"/>
			<point x="306" y="1148"/>
			<point x="306" y="1148" type="curve"/>
			<point x="306" y="1316" type="line"/>
			<point x="306" y="1316"/>
			<point x="306" y="1316"/>
			<point x="306" y="1316" type="curve"/>
			<point x="138" y="1316" type="line"/>
			<point x="138" y="1316"/>
			<point x="138" y="1316"/>
		</contour>
		<contour>
			<point x="148" y="860" type="curve"/>
			<point x="148" y="0" type="line"/>
			<point x="148" y="0"/>
			<point x="148" y="0"/>
			<point x="148" y="0" type="curve"/>
			<point x="296" y="0" type="line"/>
			<point x="296" y="0"/>
			<point x="296" y="0"/>
			<point x="296" y="0" type="curve"/>
			<point x="296" y="860" type="line"/>
			<point x="296" y="860"/>
			<point x="296" y="860"/>
			<point x="296" y="860" type="curve"/>
			<point x="148" y="860" type="line"/>
			<point x="148" y="860"/>
			<point x="148" y="860"/>
		</contour>
	</outline>
</glyph>
<glyph name="j" format="2">
	<unicode hex="006A"/>
	<advance width="248"/>
	<outline>
		<contour>
			<point x="90" y="658" type="curve"/>
			<point x="90" y="574" type="line"/>
			<point x="90" y="574"/>
			<point x="90" y="574"/>
			<point x="90" y="574" type="curve"/>
			<point x="174" y="574" type="line"/>
			<point x="174" y="574"/>
			<point x="174" y="574"/>
			<point x="174" y="574" type="curve"/>
			<point x="174" y="658" type="line"/>
			<point x="174" y="658"/>
			<point x="174" y="658"/>
			<point x="174" y="658" type="curve"/>
			<point x="90" y="658" type="line"/>
			<point x="90" y="658"/>
			<point x="90" y="658"/>
		</contour>
		<contour>
			<point x="100" y="-69" type="line" smooth="yes"/>
			<point x="100" y="-132"/>
			<point x="55" y="-139"/>
			<point x="28" y="-139" type="curve" smooth="yes"/>
			<point x="6" y="-139"/>
			<point x="-20" y="-132"/>
			<point x="-43" y="-108" type="curve"/>
			<point x="-43" y="-108"/>
			<point x="-43" y="-108"/>
			<point x="-43" y="-108" type="curve"/>
			<point x="-43" y="-108"/>
			<point x="-43" y="-108"/>
			<point x="-43" y="-108" type="curve"/>
			<point x="-58" y="-169" type="line"/>
			<point x="-58" y="-169"/>
			<point x="-58" y="-169"/>
			<point x="-58" y="-169" type="curve"/>
			<point x="-26" y="-189"/>
			<point x="13" y="-203"/>
			<point x="55" y="-203" type="curve" smooth="yes"/>
			<point x="118" y="-203"/>
			<point x="174" y="-149"/>
			<point x="174" y="-60" type="curve" smooth="yes"/>
			<point x="174" y="430" type="line"/>
			<point x="174" y="430"/>
			<point x="174" y="430"/>
			<point x="174" y="430" type="curve"/>
			<point x="100" y="430" type="line"/>
			<point x="100" y="430"/>
			<point x="100" y="430"/>
			<point x="100" y="430" type="curve"/>
		</contour>
	</outline>
</glyph>
<glyph name="k" format="2">
	<unicode hex="006B"/>
	<advance width="914"/>
	<outline>
		<contour>
			<point x="530" y="530" type="line"/>
			<point x="840" y="860" type="line"/>
			<point x="840" y="860"/>
			<point x="840" y="860"/>
			<point x="840" y="860" type="curve"/>
			<point x="840" y="860"/>
			<point x="840" y="860"/>
			<point x="840" y="860" type="curve"/>
			<point x="648" y="860" type="line"/>
			<point x="648" y="860"/>
			<point x="648" y="860"/>
			<point x="648" y="860" type="curve"/>
			<point x="298" y="488" type="line"/>
			<point x="298" y="1388" type="line"/>
			<point x="298" y="1388"/>
			<point x="298" y="1388"/>
			<point x="298" y="1388" type="curve"/>
			<point x="150" y="1388" type="line"/>
			<point x="150" y="1388"/>
			<point x="150" y="1388"/>
			<point x="150" y="1388" type="curve"/>
			<point x="150" y="0" type="line"/>
			<point x="150" y="0"/>
			<point x="150" y="0"/>
			<point x="150" y="0" type="curve"/>
			<point x="296" y="0" type="line"/>
			<point x="296" y="0"/>
			<point x="296" y="0"/>
			<point x="296" y="0" type="curve"/>
			<point x="296" y="280" type="line"/>
			<point x="430" y="422" type="line"/>
			<point x="712" y="0" type="line"/>
			<point x="712" y="0"/>
			<point x="712" y="0"/>
			<point x="712" y="0" type="curve"/>
			<point x="882" y="0" type="line"/>
			<point x="882" y="0"/>
			<point x="882" y="0"/>
			<point x="882" y="0" type="curve"/>
			<point x="882" y="0"/>
			<point x="882" y="0"/>
			<point x="882" y="0" type="curve"/>
		</contour>
	</outline>
</glyph>
<glyph name="l" format="2">
	<unicode hex="006C"/>
	<advance width="444"/>
	<outline>
		<contour>
			<point x="148" y="1388" type="curve"/>
			<point x="148" y="0" type="line"/>
			<point x="148" y="0"/>
			<point x="148" y="0"/>
			<point x="148" y="0" type="curve"/>
			<point x="296" y="0" type="line"/>
			<point x="296" y="0"/>
			<point x="296" y="0"/>
			<point x="296" y="0" type="curve"/>
			<point x="296" y="1388" type="line"/>
			<point x="296" y="1388"/>
			<point x="296" y="1388"/>
			<point x="296" y="1388" type="curve"/>
			<point x="148" y="1388" type="line"/>
			<point x="148" y="1388"/>
			<point x="148" y="1388"/>
		</contour>
	</outline>
</glyph>
<glyph name="m" format="2">
	<unicode hex="006D"/>
	<advance width="1490"/>
	<outline>
		<contour>
			<point x="1340" y="584" type="line" smooth="yes"/>
			<point x="1340" y="718"/>
			<point x="1306" y="876"/>
			<point x="1082" y="876" type="curve" smooth="yes"/>
			<point x="932" y="876"/>
			<point x="842" y="782"/>
			<point x="802" y="724" type="curve"/>
			<point x="766" y="830"/>
			<point x="682" y="876"/>
			<point x="562" y="876" type="curve" smooth="yes"/>
			<point x="426" y="876"/>
			<point x="340" y="798"/>
			<point x="294" y="742" type="curve"/>
			<point x="294" y="742" type="line"/>
			<point x="294" y="866" type="line"/>
			<point x="294" y="866"/>
			<point x="294" y="866"/>
			<point x="294" y="866" type="curve"/>
			<point x="148" y="866" type="line"/>
			<point x="148" y="866"/>
			<point x="148" y="866"/>
			<point x="148" y="866" type="curve"/>
			<point x="148" y="0" type="line"/>
			<point x="148" y="0"/>
			<point x="148" y="0"/>
			<point x="148" y="0" type="curve"/>
			<point x="300" y="0" type="line"/>
			<point x="300" y="0"/>
			<point x="300" y="0"/>
			<point x="300" y="0" type="curve"/>
			<point x="300" y="484" type="line" smooth="yes"/>
			<point x="300" y="602"/>
			<point x="344" y="754"/>
			<point x="486" y="754" type="curve" smooth="yes"/>
			<point x="668" y="754"/>
			<point x="668" y="626"/>
			<point x="668" y="568" type="curve" smooth="yes"/>
			<point x="668" y="0" type="line"/>
			<point x="668" y="0"/>
			<point x="668" y="0"/>
			<point x="668" y="0" type="curve"/>
			<point x="820" y="0" type="line"/>
			<point x="820" y="0"/>
			<point x="820" y="0"/>
			<point x="820" y="0" type="curve"/>
			<point x="820" y="484" type="line" smooth="yes"/>
			<point x="820" y="602"/>
			<point x="864" y="754"/>
			<point x="1006" y="754" type="curve" smooth="yes"/>
			<point x="1188" y="754"/>
			<point x="1188" y="626"/>
			<point x="1188" y="568" type="curve" smooth="yes"/>
			<point x="1188" y="0" type="line"/>
			<point x="1188" y="0"/>
			<point x="1188" y="0"/>
			<point x="1188" y="0" type="curve"/>
			<point x="1340" y="0" type="line"/>
			<point x="1340" y="0"/>
			<point x="1340" y="0"/>
			<point x="1340" y="0" type="curve"/>
		</contour>
	</outline>
</glyph>
<glyph name="n" format="2">
	<unicode hex="006E"/>
	<advance width="966"/>
	<outline>
		<contour>
			<point x="818" y="584" type="line" smooth="yes"/>
			<point x="818" y="710"/>
			<point x="788" y="876"/>
			<point x="562" y="876" type="curve" smooth="yes"/>
			<point x="434" y="876"/>
			<point x="350" y="810"/>
			<point x="294" y="742" type="curve"/>
			<point x="294" y="742" type="line"/>
			<point x="294" y="866" type="line"/>
			<point x="294" y="866"/>
			<point x="294" y="866"/>
			<point x="294" y="866" type="curve"/>
			<point x="148" y="866" type="line"/>
			<point x="148" y="866"/>
			<point x="148" y="866"/>
			<point x="148" y="866" type="curve"/>
			<point x="148" y="0" type="line"/>
			<point x="148" y="0"/>
			<point x="148" y="0"/>
			<point x="148" y="0" type="curve"/>
			<point x="300" y="0" type="line"/>
			<point x="300" y="0"/>
			<point x="300" y="0"/>
			<point x="300" y="0" type="curve"/>
			<point x="300" y="484" type="line" smooth="yes"/>
			<point x="300" y="610"/>
			<point x="348" y="754"/>
			<point x="484" y="754" type="curve" smooth="yes"/>
			<point x="660" y="754"/>
			<point x="666" y="636"/>
			<point x="666" y="568" type="curve" smooth="yes"/>
			<point x="666" y="0" type="line"/>
			<point x="666" y="0"/>
			<point x="666" y="0"/>
			<point x="666" y="0" type="curve"/>
			<point x="818" y="0" type="line"/>
			<point x="818" y="0"/>
			<point x="818" y="0"/>
			<point x="818" y="0" type="curve"/>
		</contour>
	</outline>
</glyph>
<glyph name="o" format="2">
	<unicode hex="006F"/>
	<advance width="940"/>
	<outline>
		<contour>
			<point x="884" y="428" type="curve" smooth="yes"/>
			<point x="884" y="684"/>
			<point x="694" y="884"/>
			<point x="470" y="884" type="curve" smooth="yes"/>
			<point x="240" y="884"/>
			<point x="54" y="678"/>
			<point x="54" y="428" type="curve" smooth="yes"/>
			<point x="54" y="174"/>
			<point x="246" y="-16"/>
			<point x="468" y="-16" type="curve" smooth="yes"/>
			<point x="696" y="-16"/>
			<point x="884" y="180"/>
		</contour>
		<contour>
			<point x="470" y="110" type="curve" smooth="yes"/>
			<point x="328" y="110"/>
			<point x="206" y="226"/>
			<point x="206" y="444" type="curve" smooth="yes"/>
			<point x="206" y="676"/>
			<point x="348" y="762"/>
			<point x="468" y="762" type="curve" smooth="yes"/>
			<point x="598" y="762"/>
			<point x="732" y="668"/>
			<point x="732" y="444" type="curve" smooth="yes"/>
			<point x="732" y="218"/>
			<point x="602" y="110"/>
		</contour>
	</outline>
</glyph>
<glyph name="p" format="2">
	<unicode hex="0070"/>
	<advance width="483"/>
	<outline>
		<contour>
			<point x="151" y="45" type="line"/>
			<point x="184" y="13"/>
			<point x="229" y="-8"/>
			<point x="277" y="-8" type="curve" smooth="yes"/>
			<point x="370" y="-8"/>
			<point x="450" y="88"/>
			<point x="450" y="216" type="curve" smooth="yes"/>
			<point x="450" y="334"/>
			<point x="390" y="438"/>
			<point x="304" y="438" type="curve" smooth="yes"/>
			<point x="254" y="438"/>
			<point x="194" y="420"/>
			<point x="149" y="384" type="curve"/>
			<point x="149" y="430" type="line"/>
			<point x="149" y="430"/>
			<point x="149" y="430"/>
			<point x="149" y="430" type="curve"/>
			<point x="75" y="430" type="line"/>
			<point x="75" y="430"/>
			<point x="75" y="430"/>
			<point x="75" y="430" type="curve"/>
			<point x="75" y="-195" type="line"/>
			<point x="75" y="-195"/>
			<point x="75" y="-195"/>
			<point x="75" y="-195" type="curve"/>
			<point x="151" y="-195" type="line"/>
			<point x="151" y="-195"/>
			<point x="151" y="-195"/>
			<point x="151" y="-195" type="curve"/>
		</contour>
		<contour>
			<point x="151" y="325" type="line"/>
			<point x="159" y="337"/>
			<point x="193" y="375"/>
			<point x="248" y="375" type="curve" smooth="yes"/>
			<point x="318" y="375"/>
			<point x="374" y="303"/>
			<point x="374" y="216" type="curve" smooth="yes"/>
			<point x="374" y="117"/>
			<point x="306" y="53"/>
			<point x="239" y="53" type="curve" smooth="yes"/>
			<point x="219" y="53"/>
			<point x="198" y="58"/>
			<point x="178" y="75" type="curve" smooth="yes"/>
			<point x="151" y="99"/>
			<point x="151" y="114"/>
			<point x="151" y="128" type="curve" smooth="yes"/>
		</contour>
	</outline>
</glyph>
<glyph name="q" format="2">
	<unicode hex="0071"/>
	<advance width="483"/>
	<outline>
		<contour>
			<point x="332" y="50" type="curve"/>
			<point x="332" y="-195" type="line"/>
			<point x="332" y="-195"/>
			<point x="332" y="-195"/>
			<point x="332" y="-195" type="curve"/>
			<point x="408" y="-195" type="line"/>
			<point x="408" y="-195"/>
			<point x="408" y="-195"/>
			<point x="408" y="-195" type="curve"/>
			<point x="408" y="438" type="line"/>
			<point x="408" y="438"/>
			<point x="408" y="438"/>
			<point x="408" y="438" type="curve"/>
			<point x="334" y="438" type="line"/>
			<point x="334" y="438"/>
			<point x="334" y="438"/>
			<point x="334" y="438" type="curve"/>
			<point x="334" y="377" type="line"/>
			<point x="330" y="382"/>
			<point x="284" y="438"/>
			<point x="206" y="438" type="curve" smooth="yes"/>
			<point x="115" y="438"/>
			<point x="33" y="345"/>
			<point x="33" y="214" type="curve" smooth="yes"/>
			<point x="33" y="93"/>
			<point x="102" y="-8"/>
			<point x="192" y="-8" type="curve" smooth="yes"/>
			<point x="234" y="-8"/>
			<point x="287" y="7"/>
		</contour>
		<contour>
			<point x="334" y="137" type="line" smooth="yes"/>
			<point x="334" y="124"/>
			<point x="334" y="106"/>
			<point x="303" y="80" type="curve" smooth="yes"/>
			<point x="295" y="73"/>
			<point x="273" y="53"/>
			<point x="235" y="53" type="curve" smooth="yes"/>
			<point x="164" y="53"/>
			<point x="109" y="127"/>
			<point x="109" y="214" type="curve" smooth="yes"/>
			<point x="109" y="311"/>
			<point x="176" y="375"/>
			<point x="244" y="375" type="curve" smooth="yes"/>
			<point x="268.06654" y="375"/>
			<point x="287.8546065184" y="365.0168952096"/>
			<point x="302.6867781527" y="350.3195187596" type="curve" smooth="yes"/>
			<point x="322.9836189628" y="330.2071361976"/>
			<point x="334" y="301.26676"/>
			<point x="334" y="277" type="curve" smooth="yes"/>
		</contour>
	</outline>
</glyph>
<glyph name="r" format="2">
	<unicode hex="0072"/>
	<advance width="640"/>
	<outline>
		<contour>
			<point x="298" y="426" type="line" smooth="yes"/>
			<point x="298" y="614"/>
			<point x="436" y="740"/>
			<point x="612" y="744" type="curve"/>
			<point x="612" y="744"/>
			<point x="612" y="744"/>
			<point x="612" y="744" type="curve"/>
			<point x="612" y="876" type="line"/>
			<point x="612" y="876"/>
			<point x="612" y="876"/>
			<point x="612" y="876" type="curve"/>
			<point x="484" y="874"/>
			<point x="364" y="810"/>
			<point x="292" y="706" type="curve"/>
			<point x="292" y="706" type="line"/>
			<point x="292" y="866" type="line"/>
			<point x="292" y="866"/>
			<point x="292" y="866"/>
			<point x="292" y="866" type="curve"/>
			<point x="150" y="866" type="line"/>
			<point x="150" y="866"/>
			<point x="150" y="866"/>
			<point x="150" y="866" type="curve"/>
			<point x="150" y="0" type="line"/>
			<point x="150" y="0"/>
			<point x="150" y="0"/>
			<point x="150" y="0" type="curve"/>
			<point x="298" y="0" type="line"/>
			<point x="298" y="0"/>
			<point x="298" y="0"/>
			<point x="298" y="0" type="curve"/>
		</contour>
	</outline>
</glyph>
<glyph name="s" format="2">
	<unicode hex="0073"/>
	<advance width="360"/>
	<outline>
		<contour>
			<point x="338" y="124" type="curve" smooth="yes"/>
			<point x="338" y="173"/>
			<point x="310" y="206"/>
			<point x="291" y="221" type="curve" smooth="yes"/>
			<point x="258" y="247"/>
			<point x="245" y="249"/>
			<point x="164" y="267" type="curve" smooth="yes"/>
			<point x="150" y="270"/>
			<point x="101" y="280"/>
			<point x="101" y="325" type="curve" smooth="yes"/>
			<point x="101" y="382"/>
			<point x="164" y="382"/>
			<point x="178" y="382" type="curve" smooth="yes"/>
			<point x="243" y="382"/>
			<point x="283" y="362"/>
			<point x="310" y="347" type="curve"/>
			<point x="310" y="347"/>
			<point x="310" y="347"/>
			<point x="310" y="347" type="curve"/>
			<point x="310" y="347"/>
			<point x="310" y="347"/>
			<point x="310" y="347" type="curve"/>
			<point x="313.996" y="368.645"/>
			<point x="317.992" y="390.29"/>
			<point x="322" y="412" type="curve"/>
			<point x="302.77013" y="421.12604"/>
			<point x="284.9212547437" y="427.4900905126"/>
			<point x="268.5572452196" y="431.9231194458" type="curve" smooth="yes"/>
			<point x="234.7141258384" y="441.0912592702"/>
			<point x="207.2221" y="442"/>
			<point x="187" y="442" type="curve" smooth="yes"/>
			<point x="116" y="442"/>
			<point x="31" y="417"/>
			<point x="31" y="316" type="curve" smooth="yes"/>
			<point x="31" y="269"/>
			<point x="55" y="239"/>
			<point x="83" y="220" type="curve" smooth="yes"/>
			<point x="116" y="198"/>
			<point x="155" y="190"/>
			<point x="171" y="187" type="curve" smooth="yes"/>
			<point x="217" y="178"/>
			<point x="268" y="168"/>
			<point x="268" y="118" type="curve" smooth="yes"/>
			<point x="268" y="55"/>
			<point x="196" y="55"/>
			<point x="183" y="55" type="curve" smooth="yes"/>
			<point x="143" y="55"/>
			<point x="88" y="66"/>
			<point x="38" y="102" type="curve"/>
			<point x="38" y="102"/>
			<point x="38" y="102"/>
			<point x="38" y="102" type="curve"/>
			<point x="38" y="102"/>
			<point x="38" y="102"/>
			<point x="38" y="102" type="curve"/>
			<point x="34.004" y="79.689"/>
			<point x="30.008" y="57.378"/>
			<point x="26" y="35" type="curve"/>
			<point x="52.33571" y="19.75301"/>
			<point x="78.2444765582" y="9.4158695807"/>
			<point x="103.0358873001" y="2.7063843324" type="curve" smooth="yes"/>
			<point x="131.9020545119" y="-5.105882791"/>
			<point x="159.25338" y="-8"/>
			<point x="184" y="-8" type="curve" smooth="yes"/>
			<point x="232" y="-8"/>
			<point x="266" y="3"/>
			<point x="289" y="21" type="curve" smooth="yes"/>
			<point x="326" y="48"/>
			<point x="338" y="89"/>
		</contour>
	</outline>
</glyph>
<glyph name="t" format="2">
	<unicode hex="0074"/>
	<advance width="678"/>
	<outline>
		<contour>
			<point x="334" y="744" type="line"/>
			<point x="594" y="744" type="line"/>
			<point x="594" y="744"/>
			<point x="594" y="744"/>
			<point x="594" y="744" type="curve"/>
			<point x="594" y="860" type="line"/>
			<point x="594" y="860"/>
			<point x="594" y="860"/>
			<point x="594" y="860" type="curve"/>
			<point x="334" y="860" type="line"/>
			<point x="334" y="1106" type="line"/>
			<point x="334" y="1106"/>
			<point x="334" y="1106"/>
			<point x="334" y="1106" type="curve"/>
			<point x="192" y="1106" type="line"/>
			<point x="192" y="1106"/>
			<point x="192" y="1106"/>
			<point x="192" y="1106" type="curve"/>
			<point x="192" y="860" type="line"/>
			<point x="34" y="860" type="line"/>
			<point x="34" y="860"/>
			<point x="34" y="860"/>
			<point x="34" y="860" type="curve"/>
			<point x="34" y="744" type="line"/>
			<point x="34" y="744"/>
			<point x="34" y="744"/>
			<point x="34" y="744" type="curve"/>
			<point x="188" y="744" type="line"/>
			<point x="188" y="238" type="line" smooth="yes"/>
			<point x="188" y="124"/>
			<point x="214" y="-16"/>
			<point x="346" y="-16" type="curve" smooth="yes"/>
			<point x="446" y="-16"/>
			<point x="538" y="12"/>
			<point x="626" y="58" type="curve"/>
			<point x="626" y="58"/>
			<point x="626" y="58"/>
			<point x="626" y="58" type="curve"/>
			<point x="615" y="97"/>
			<point x="605" y="137"/>
			<point x="594" y="176" type="curve"/>
			<point x="594" y="176"/>
			<point x="594" y="176"/>
			<point x="594" y="176" type="curve"/>
			<point x="594" y="176"/>
			<point x="594" y="176"/>
			<point x="594" y="176" type="curve"/>
			<point x="546" y="134"/>
			<point x="488" y="110"/>
			<point x="426" y="110" type="curve" smooth="yes"/>
			<point x="338" y="110"/>
			<point x="334" y="222"/>
			<point x="334" y="272" type="curve" smooth="yes"/>
		</contour>
	</outline>
</glyph>
<glyph name="u" format="2">
	<unicode hex="0075"/>
	<advance width="966"/>
	<outline>
		<contour>
			<point x="340" y="-16" type="curve" smooth="yes"/>
			<point x="408" y="-16"/>
			<point x="562" y="0"/>
			<point x="670" y="100" type="curve"/>
			<point x="670" y="0" type="line"/>
			<point x="670" y="0"/>
			<point x="670" y="0"/>
			<point x="670" y="0" type="curve"/>
			<point x="818" y="0" type="line"/>
			<point x="818" y="0"/>
			<point x="818" y="0"/>
			<point x="818" y="0" type="curve"/>
			<point x="818" y="860" type="line"/>
			<point x="818" y="860"/>
			<point x="818" y="860"/>
			<point x="818" y="860" type="curve"/>
			<point x="666" y="860" type="line"/>
			<point x="666" y="860"/>
			<point x="666" y="860"/>
			<point x="666" y="860" type="curve"/>
			<point x="666" y="308" type="line" smooth="yes"/>
			<point x="666" y="160"/>
			<point x="558" y="100"/>
			<point x="444" y="100" type="curve" smooth="yes"/>
			<point x="312" y="100"/>
			<point x="300" y="144"/>
			<point x="300" y="226" type="curve" smooth="yes"/>
			<point x="300" y="860" type="line"/>
			<point x="300" y="860"/>
			<point x="300" y="860"/>
			<point x="300" y="860" type="curve"/>
			<point x="148" y="860" type="line"/>
			<point x="148" y="860"/>
			<point x="148" y="860"/>
			<point x="148" y="860" type="curve"/>
			<point x="148" y="216" type="line" smooth="yes"/>
			<point x="148" y="60"/>
			<point x="202" y="-16"/>
		</contour>
	</outline>
</glyph>
<glyph name="v" format="2">
	<unicode hex="0076"/>
	<advance width="862"/>
	<outline>
		<contour>
			<point x="342" y="0" type="line"/>
			<point x="342" y="0"/>
			<point x="342" y="0"/>
			<point x="342" y="0" type="curve"/>
			<point x="520" y="0" type="line"/>
			<point x="520" y="0"/>
			<point x="520" y="0"/>
			<point x="520" y="0" type="curve"/>
			<point x="836" y="860" type="line"/>
			<point x="836" y="860"/>
			<point x="836" y="860"/>
			<point x="836" y="860" type="curve"/>
			<point x="836" y="860"/>
			<point x="836" y="860"/>
			<point x="836" y="860" type="curve"/>
			<point x="680" y="860" type="line"/>
			<point x="680" y="860"/>
			<point x="680" y="860"/>
			<point x="680" y="860" type="curve"/>
			<point x="546" y="486" type="line" smooth="yes"/>
			<point x="504" y="364"/>
			<point x="444" y="196"/>
			<point x="434" y="110" type="curve"/>
			<point x="432" y="110" type="line"/>
			<point x="430" y="146"/>
			<point x="384" y="300"/>
			<point x="362" y="366" type="curve" smooth="yes"/>
			<point x="186" y="860" type="line"/>
			<point x="186" y="860"/>
			<point x="186" y="860"/>
			<point x="186" y="860" type="curve"/>
			<point x="26" y="860" type="line"/>
			<point x="26" y="860"/>
			<point x="26" y="860"/>
			<point x="26" y="860" type="curve"/>
			<point x="26" y="860"/>
			<point x="26" y="860"/>
			<point x="26" y="860" type="curve"/>
		</contour>
	</outline>
</glyph>
<glyph name="w" format="2">
  <advance width="640"/>
  <unicode hex="0077"/>
  <outline>
    <contour>
      <point x="143" y="0" type="line"/>
      <point x="219" y="0" type="line"/>
      <point x="271" y="172"/>
      <point x="311" y="305"/>
      <point x="314" y="372" type="curve"/>
      <point x="314" y="372" type="line"/>
      <point x="316" y="339"/>
      <point x="333" y="268"/>
      <point x="343" y="233" type="curve" smooth="yes"/>
      <point x="409" y="0" type="line"/>
      <point x="497" y="0" type="line"/>
      <point x="627" y="430" type="line"/>
      <point x="551" y="430" type="line"/>
      <point x="498" y="250" type="line" smooth="yes"/>
      <point x="487" y="212"/>
      <point x="456" y="107"/>
      <point x="452" y="58" type="curve"/>
      <point x="451" y="58" type="line"/>
      <point x="449" y="88"/>
      <point x="432" y="160"/>
      <point x="404" y="255" type="curve" smooth="yes"/>
      <point x="353" y="430" type="line"/>
      <point x="284" y="430" type="line"/>
      <point x="209" y="172"/>
      <point x="190" y="98"/>
      <point x="188" y="58" type="curve"/>
      <point x="187" y="58" type="line"/>
      <point x="183" y="117"/>
      <point x="142" y="255"/>
      <point x="136" y="277" type="curve" smooth="yes"/>
      <point x="91" y="430" type="line"/>
      <point x="13" y="430" type="line"/>
    </contour>
  </outline>
</glyph>
<glyph name="x" format="2">
	<unicode hex="0078"/>
	<advance width="862"/>
	<outline>
		<contour>
			<point x="356" y="444" type="line"/>
			<point x="0" y="0" type="line"/>
			<point x="0" y="0"/>
			<point x="0" y="0"/>
			<point x="0" y="0" type="curve"/>
			<point x="0" y="0"/>
			<point x="0" y="0"/>
			<point x="0" y="0" type="curve"/>
			<point x="176" y="0" type="line"/>
			<point x="176" y="0"/>
			<point x="176" y="0"/>
			<point x="176" y="0" type="curve"/>
			<point x="426" y="352" type="line"/>
			<point x="686" y="0" type="line"/>
			<point x="686" y="0"/>
			<point x="686" y="0"/>
			<point x="686" y="0" type="curve"/>
			<point x="862" y="0" type="line"/>
			<point x="862" y="0"/>
			<point x="862" y="0"/>
			<point x="862" y="0" type="curve"/>
			<point x="862" y="0"/>
			<point x="862" y="0"/>
			<point x="862" y="0" type="curve"/>
			<point x="496" y="444" type="line"/>
			<point x="830" y="860" type="line"/>
			<point x="830" y="860"/>
			<point x="830" y="860"/>
			<point x="830" y="860" type="curve"/>
			<point x="830" y="860"/>
			<point x="830" y="860"/>
			<point x="830" y="860" type="curve"/>
			<point x="656" y="860" type="line"/>
			<point x="656" y="860"/>
			<point x="656" y="860"/>
			<point x="656" y="860" type="curve"/>
			<point x="579" y="759"/>
			<point x="503" y="659"/>
			<point x="426" y="558" type="curve"/>
			<point x="188" y="860" type="line"/>
			<point x="188" y="860"/>
			<point x="188" y="860"/>
			<point x="188" y="860" type="curve"/>
			<point x="10" y="860" type="line"/>
			<point x="10" y="860"/>
			<point x="10" y="860"/>
			<point x="10" y="860" type="curve"/>
			<point x="10" y="860"/>
			<point x="10" y="860"/>
			<point x="10" y="860" type="curve"/>
		</contour>
	</outline>
</glyph>
<glyph name="y" format="2">
	<unicode hex="0079"/>
	<advance width="431"/>
	<outline>
		<contour>
			<point x="418" y="430" type="line"/>
			<point x="418" y="430"/>
			<point x="418" y="430"/>
			<point x="418" y="430" type="curve"/>
			<point x="418" y="430"/>
			<point x="418" y="430"/>
			<point x="418" y="430" type="curve"/>
			<point x="340" y="430" type="line"/>
			<point x="340" y="430"/>
			<point x="340" y="430"/>
			<point x="340" y="430" type="curve"/>
			<point x="255" y="201"/>
			<point x="226" y="108"/>
			<point x="224" y="58" type="curve"/>
			<point x="223" y="58" type="line"/>
			<point x="220" y="107"/>
			<point x="177" y="232"/>
			<point x="94" y="430" type="curve"/>
			<point x="94" y="430"/>
			<point x="94" y="430"/>
			<point x="94" y="430" type="curve"/>
			<point x="13" y="430" type="line"/>
			<point x="13" y="430"/>
			<point x="13" y="430"/>
			<point x="13" y="430" type="curve"/>
			<point x="13" y="430"/>
			<point x="13" y="430"/>
			<point x="13" y="430" type="curve"/>
			<point x="190" y="0" type="line"/>
			<point x="179.344" y="-28.305"/>
			<point x="168.688" y="-56.61"/>
			<point x="158" y="-85" type="curve" smooth="yes"/>
			<point x="137" y="-141"/>
			<point x="121" y="-141"/>
			<point x="105" y="-141" type="curve" smooth="yes"/>
			<point x="101" y="-141"/>
			<point x="69" y="-140"/>
			<point x="33" y="-129" type="curve"/>
			<point x="33" y="-129"/>
			<point x="33" y="-129"/>
			<point x="33" y="-129" type="curve"/>
			<point x="33" y="-129"/>
			<point x="33" y="-129"/>
			<point x="33" y="-129" type="curve"/>
			<point x="34.998" y="-150.978"/>
			<point x="36.996" y="-172.956"/>
			<point x="39" y="-195" type="curve"/>
			<point x="64" y="-200"/>
			<point x="89" y="-203"/>
			<point x="107" y="-203" type="curve" smooth="yes"/>
			<point x="132" y="-203"/>
			<point x="182" y="-203"/>
			<point x="228" y="-80" type="curve" smooth="yes"/>
		</contour>
	</outline>
</glyph>
<glyph name="z" format="2">
	<unicode hex="007A"/>
	<advance width="816"/>
	<outline>
		<contour>
			<point x="546" y="742" type="line"/>
			<point x="52" y="82" type="line"/>
			<point x="52" y="82"/>
			<point x="52" y="82"/>
			<point x="52" y="82" type="curve"/>
			<point x="52" y="0" type="line"/>
			<point x="52" y="0"/>
			<point x="52" y="0"/>
			<point x="52" y="0" type="curve"/>
			<point x="756" y="0" type="line"/>
			<point x="756" y="0"/>
			<point x="756" y="0"/>
			<point x="756" y="0" type="curve"/>
			<point x="756" y="124" type="line"/>
			<point x="756" y="124"/>
			<point x="756" y="124"/>
			<point x="756" y="124" type="curve"/>
			<point x="665" y="124"/>
			<point x="575" y="124"/>
			<point x="484" y="124" type="curve" smooth="yes"/>
			<point x="460" y="124"/>
			<point x="436" y="122"/>
			<point x="412" y="122" type="curve" smooth="yes"/>
			<point x="258" y="122" type="line"/>
			<point x="750" y="782" type="line"/>
			<point x="750" y="782"/>
			<point x="750" y="782"/>
			<point x="750" y="782" type="curve"/>
			<point x="750" y="860" type="line"/>
			<point x="750" y="860"/>
			<point x="750" y="860"/>
			<point x="750" y="860" type="curve"/>
			<point x="78" y="860" type="line"/>
			<point x="78" y="860"/>
			<point x="78" y="860"/>
			<point x="78" y="860" type="curve"/>
			<point x="78" y="740" type="line"/>
			<point x="78" y="740"/>
			<point x="78" y="740"/>
			<point x="78" y="740" type="curve"/>
			<point x="163" y="740"/>
			<point x="248" y="740"/>
			<point x="334" y="740" type="curve" smooth="yes"/>
			<point x="358" y="740"/>
			<point x="382" y="742"/>
			<point x="406" y="742" type="curve" smooth="yes"/>
		</contour>
	</outline>
</glyph>
<glyph name="exclamdown" format="2">
	<unicode hex="00A1"/>
	<advance width="299"/>
	<outline>
		<contour>
			<point x="186" y="76" type="curve" smooth="yes"/>
			<point x="185" y="161"/>
			<point x="183.336" y="245.83"/>
			<point x="182" y="331" type="curve"/>
			<point x="182" y="331"/>
			<point x="182" y="331"/>
			<point x="182" y="331" type="curve"/>
			<point x="118" y="331" type="line"/>
			<point x="118" y="331"/>
			<point x="118" y="331"/>
			<point x="118" y="331" type="curve"/>
			<point x="116.668" y="246.085"/>
			<point x="115" y="161"/>
			<point x="114" y="76" type="curve" smooth="yes"/>
			<point x="113" y="-14"/>
			<point x="111.336" y="-103.82"/>
			<point x="110" y="-194" type="curve"/>
			<point x="110" y="-194"/>
			<point x="110" y="-194"/>
			<point x="110" y="-194" type="curve"/>
			<point x="190" y="-194" type="line"/>
			<point x="190" y="-194"/>
			<point x="190" y="-194"/>
			<point x="190" y="-194" type="curve"/>
			<point x="188.668" y="-104.09"/>
			<point x="187" y="-14"/>
		</contour>
		<contour>
			<point x="190" y="500" type="line"/>
			<point x="190" y="500"/>
			<point x="190" y="500"/>
			<point x="190" y="500" type="curve"/>
			<point x="110" y="500" type="line"/>
			<point x="110" y="500"/>
			<point x="110" y="500"/>
			<point x="110" y="500" type="curve"/>
			<point x="110" y="420" type="line"/>
			<point x="110" y="420"/>
			<point x="110" y="420"/>
			<point x="110" y="420" type="curve"/>
			<point x="190" y="420" type="line"/>
			<point x="190" y="420"/>
			<point x="190" y="420"/>
			<point x="190" y="420" type="curve"/>
		</contour>
	</outline>
</glyph>
<glyph name="dieresis" format="2">
	<unicode hex="00A8"/>
	<advance width="940"/>
	<outline>
		<contour>
			<point x="368" y="1316" type="line"/>
			<point x="368" y="1316"/>
			<point x="368" y="1316"/>
			<point x="368" y="1316" type="curve"/>
			<point x="206" y="1316" type="line"/>
			<point x="206" y="1316"/>
			<point x="206" y="1316"/>
			<point x="206" y="1316" type="curve"/>
			<point x="206" y="1154" type="line"/>
			<point x="206" y="1154"/>
			<point x="206" y="1154"/>
			<point x="206" y="1154" type="curve"/>
			<point x="368" y="1154" type="line"/>
			<point x="368" y="1154"/>
			<point x="368" y="1154"/>
			<point x="368" y="1154" type="curve"/>
		</contour>
		<contour>
			<point x="732" y="1316" type="line"/>
			<point x="732" y="1316"/>
			<point x="732" y="1316"/>
			<point x="732" y="1316" type="curve"/>
			<point x="570" y="1316" type="line"/>
			<point x="570" y="1316"/>
			<point x="570" y="1316"/>
			<point x="570" y="1316" type="curve"/>
			<point x="570" y="1154" type="line"/>
			<point x="570" y="1154"/>
			<point x="570" y="1154"/>
			<point x="570" y="1154" type="curve"/>
			<point x="732" y="1154" type="line"/>
			<point x="732" y="1154"/>
			<point x="732" y="1154"/>
			<point x="732" y="1154" type="curve"/>
		</contour>
	</outline>
</glyph>
<glyph name="macron" format="2">
	<unicode hex="00AF"/>
	<advance width="940"/>
	<outline>
		<contour>
			<point x="808" y="1104" type="curve"/>
			<point x="808" y="1232" type="line"/>
			<point x="808" y="1232"/>
			<point x="808" y="1232"/>
			<point x="808" y="1232" type="curve"/>
			<point x="130" y="1232" type="line"/>
			<point x="130" y="1232"/>
			<point x="130" y="1232"/>
			<point x="130" y="1232" type="curve"/>
			<point x="130" y="1104" type="line"/>
			<point x="130" y="1104"/>
			<point x="130" y="1104"/>
			<point x="130" y="1104" type="curve"/>
			<point x="808" y="1104" type="line"/>
			<point x="808" y="1104"/>
			<point x="808" y="1104"/>
		</contour>
	</outline>
</glyph>
<glyph name="acute" format="2">
	<unicode hex="00B4"/>
	<advance width="470"/>
	<outline>
		<contour>
			<point x="391" y="694" type="line"/>
			<point x="391" y="694"/>
			<point x="391" y="694"/>
			<point x="391" y="694" type="curve"/>
			<point x="391" y="694"/>
			<point x="391" y="694"/>
			<point x="391" y="694" type="curve"/>
			<point x="315" y="694" type="line"/>
			<point x="315" y="694"/>
			<point x="315" y="694"/>
			<point x="315" y="694" type="curve"/>
			<point x="191" y="518" type="line"/>
			<point x="191" y="518"/>
			<point x="191" y="518"/>
			<point x="191" y="518" type="curve"/>
			<point x="191" y="518"/>
			<point x="191" y="518"/>
			<point x="191" y="518" type="curve"/>
			<point x="252" y="518" type="line"/>
			<point x="252" y="518"/>
			<point x="252" y="518"/>
			<point x="252" y="518" type="curve"/>
		</contour>
	</outline>
</glyph>
<glyph name="cedilla" format="2">
	<unicode hex="00B8"/>
	<advance width="417"/>
	<outline>
		<contour>
			<point x="265" y="-18" type="line"/>
			<point x="265" y="-18"/>
			<point x="265" y="-18"/>
			<point x="265" y="-18" type="curve"/>
			<point x="265" y="-18"/>
			<point x="265" y="-18"/>
			<point x="265" y="-18" type="curve"/>
			<point x="204" y="-18" type="line"/>
			<point x="204" y="-18"/>
			<point x="204" y="-18"/>
			<point x="204" y="-18" type="curve"/>
			<point x="181.023" y="-73.944"/>
			<point x="158.046" y="-129.888"/>
			<point x="135" y="-186" type="curve"/>
			<point x="135" y="-186"/>
			<point x="135" y="-186"/>
			<point x="135" y="-186" type="curve"/>
			<point x="135" y="-186"/>
			<point x="135" y="-186"/>
			<point x="135" y="-186" type="curve"/>
			<point x="203" y="-186" type="line"/>
			<point x="203" y="-186"/>
			<point x="203" y="-186"/>
			<point x="203" y="-186" type="curve"/>
		</contour>
	</outline>
</glyph>
<glyph name="questiondown" format="2">
	<unicode hex="00BF"/>
	<advance width="888"/>
	<outline>
		<contour>
			<point x="496" y="840" type="curve"/>
			<point x="496" y="1000" type="line"/>
			<point x="496" y="1000"/>
			<point x="496" y="1000"/>
			<point x="496" y="1000" type="curve"/>
			<point x="336" y="1000" type="line"/>
			<point x="336" y="1000"/>
			<point x="336" y="1000"/>
			<point x="336" y="1000" type="curve"/>
			<point x="336" y="840" type="line"/>
			<point x="336" y="840"/>
			<point x="336" y="840"/>
			<point x="336" y="840" type="curve"/>
			<point x="496" y="840" type="line"/>
			<point x="496" y="840"/>
			<point x="496" y="840"/>
		</contour>
		<contour>
			<point x="104" y="-94" type="curve" smooth="yes"/>
			<point x="104" y="-266"/>
			<point x="194" y="-406"/>
			<point x="420" y="-406" type="curve" smooth="yes"/>
			<point x="600" y="-406"/>
			<point x="740" y="-326"/>
			<point x="782" y="-300" type="curve"/>
			<point x="782" y="-300"/>
			<point x="782" y="-300"/>
			<point x="782" y="-300" type="curve"/>
			<point x="767" y="-259"/>
			<point x="753" y="-217"/>
			<point x="738" y="-176" type="curve"/>
			<point x="738" y="-176"/>
			<point x="738" y="-176"/>
			<point x="738" y="-176" type="curve"/>
			<point x="738" y="-176"/>
			<point x="738" y="-176"/>
			<point x="738" y="-176" type="curve"/>
			<point x="624" y="-260"/>
			<point x="508" y="-284"/>
			<point x="420" y="-284" type="curve" smooth="yes"/>
			<point x="288" y="-284"/>
			<point x="256" y="-210"/>
			<point x="256" y="-100" type="curve" smooth="yes"/>
			<point x="256" y="-6"/>
			<point x="280" y="24"/>
			<point x="310" y="62" type="curve" smooth="yes"/>
			<point x="480" y="280"/>
			<point x="480" y="506"/>
			<point x="480" y="556" type="curve" smooth="yes"/>
			<point x="480" y="662" type="line"/>
			<point x="480" y="662"/>
			<point x="480" y="662"/>
			<point x="480" y="662" type="curve"/>
			<point x="352" y="662" type="line"/>
			<point x="352" y="662"/>
			<point x="352" y="662"/>
			<point x="352" y="662" type="curve"/>
			<point x="352" y="560" type="line" smooth="yes"/>
			<point x="352" y="376"/>
			<point x="278" y="234"/>
			<point x="198" y="148" type="curve" smooth="yes"/>
			<point x="160" y="108"/>
			<point x="104" y="50"/>
		</contour>
	</outline>
</glyph>
<glyph name="AE" format="2">
	<unicode hex="00C6"/>
	<advance width="808"/>
	<outline>
		<contour>
			<point x="393" y="222" type="line"/>
			<point x="393" y="0" type="line"/>
			<point x="393" y="0"/>
			<point x="393" y="0"/>
			<point x="393" y="0" type="curve"/>
			<point x="769" y="0" type="line"/>
			<point x="769" y="0"/>
			<point x="769" y="0"/>
			<point x="769" y="0" type="curve"/>
			<point x="769" y="69" type="line"/>
			<point x="769" y="69"/>
			<point x="769" y="69"/>
			<point x="769" y="69" type="curve"/>
			<point x="671.431" y="68.667"/>
			<point x="573.862" y="68.334"/>
			<point x="476" y="68" type="curve"/>
			<point x="476" y="330" type="line"/>
			<point x="730" y="330" type="line"/>
			<point x="730" y="330"/>
			<point x="730" y="330"/>
			<point x="730" y="330" type="curve"/>
			<point x="730" y="391" type="line"/>
			<point x="730" y="391"/>
			<point x="730" y="391"/>
			<point x="730" y="391" type="curve"/>
			<point x="476" y="391" type="line"/>
			<point x="476" y="630" type="line"/>
			<point x="569.24" y="629.667"/>
			<point x="662.48" y="629.334"/>
			<point x="756" y="629" type="curve"/>
			<point x="756" y="629"/>
			<point x="756" y="629"/>
			<point x="756" y="629" type="curve"/>
			<point x="756" y="694" type="line"/>
			<point x="756" y="694"/>
			<point x="756" y="694"/>
			<point x="756" y="694" type="curve"/>
			<point x="291" y="694" type="line"/>
			<point x="291" y="694"/>
			<point x="291" y="694"/>
			<point x="291" y="694" type="curve"/>
			<point x="26" y="0" type="line"/>
			<point x="26" y="0"/>
			<point x="26" y="0"/>
			<point x="26" y="0" type="curve"/>
			<point x="26" y="0"/>
			<point x="26" y="0"/>
			<point x="26" y="0" type="curve"/>
			<point x="102" y="0" type="line"/>
			<point x="102" y="0"/>
			<point x="102" y="0"/>
			<point x="102" y="0" type="curve"/>
			<point x="187" y="222" type="line"/>
		</contour>
		<contour>
			<point x="209" y="278" type="line"/>
			<point x="343" y="630" type="line"/>
			<point x="393" y="630" type="line"/>
			<point x="393" y="278" type="line"/>
		</contour>
	</outline>
</glyph>
<glyph name="Oslash" format="2">
	<unicode hex="00D8"/>
	<advance width="1462"/>
	<outline>
		<contour>
			<point x="456" y="40" type="line"/>
			<point x="570" y="-18"/>
			<point x="658" y="-32"/>
			<point x="730" y="-32" type="curve" smooth="yes"/>
			<point x="1064" y="-32"/>
			<point x="1356" y="278"/>
			<point x="1356" y="692" type="curve" smooth="yes"/>
			<point x="1356" y="1032"/>
			<point x="1170" y="1212"/>
			<point x="1108" y="1272" type="curve"/>
			<point x="1141" y="1333"/>
			<point x="1173" y="1395"/>
			<point x="1206" y="1456" type="curve"/>
			<point x="1206" y="1456"/>
			<point x="1206" y="1456"/>
			<point x="1206" y="1456" type="curve"/>
			<point x="1169" y="1476"/>
			<point x="1131" y="1496"/>
			<point x="1094" y="1516" type="curve"/>
			<point x="1094" y="1516"/>
			<point x="1094" y="1516"/>
			<point x="1094" y="1516" type="curve"/>
			<point x="1004" y="1346" type="line"/>
			<point x="948" y="1378"/>
			<point x="850" y="1420"/>
			<point x="730" y="1420" type="curve" smooth="yes"/>
			<point x="392" y="1420"/>
			<point x="104" y="1102"/>
			<point x="104" y="692" type="curve" smooth="yes"/>
			<point x="104" y="466"/>
			<point x="192" y="254"/>
			<point x="352" y="116" type="curve"/>
			<point x="319" y="55"/>
			<point x="287" y="-7"/>
			<point x="254" y="-68" type="curve"/>
			<point x="254" y="-68"/>
			<point x="254" y="-68"/>
			<point x="254" y="-68" type="curve"/>
			<point x="291" y="-88"/>
			<point x="329" y="-108"/>
			<point x="366" y="-128" type="curve"/>
			<point x="366" y="-128"/>
			<point x="366" y="-128"/>
			<point x="366" y="-128" type="curve"/>
		</contour>
		<contour>
			<point x="416" y="240" type="line"/>
			<point x="282" y="404"/>
			<point x="272" y="600"/>
			<point x="272" y="692" type="curve" smooth="yes"/>
			<point x="272" y="1082"/>
			<point x="498" y="1298"/>
			<point x="730" y="1298" type="curve" smooth="yes"/>
			<point x="820" y="1298"/>
			<point x="896" y="1264"/>
			<point x="944" y="1234" type="curve"/>
		</contour>
		<contour>
			<point x="1042" y="1146" type="line"/>
			<point x="1172" y="992"/>
			<point x="1188" y="796"/>
			<point x="1188" y="692" type="curve" smooth="yes"/>
			<point x="1188" y="294"/>
			<point x="956" y="90"/>
			<point x="730" y="90" type="curve" smooth="yes"/>
			<point x="652" y="90"/>
			<point x="582" y="114"/>
			<point x="516" y="154" type="curve"/>
		</contour>
	</outline>
</glyph>
<glyph name="germandbls" format="2">
	<unicode hex="00DF"/>
	<advance width="900"/>
	<outline>
		<contour>
			<point x="618" y="798" type="curve"/>
			<point x="756" y="882"/>
			<point x="796" y="1010"/>
			<point x="796" y="1100" type="curve" smooth="yes"/>
			<point x="796" y="1268"/>
			<point x="652" y="1404"/>
			<point x="472" y="1404" type="curve" smooth="yes"/>
			<point x="320" y="1404"/>
			<point x="150" y="1296"/>
			<point x="150" y="1090" type="curve" smooth="yes"/>
			<point x="150" y="0" type="line"/>
			<point x="150" y="0"/>
			<point x="150" y="0"/>
			<point x="150" y="0" type="curve"/>
			<point x="298" y="0" type="line"/>
			<point x="298" y="0"/>
			<point x="298" y="0"/>
			<point x="298" y="0" type="curve"/>
			<point x="298" y="1086" type="line" smooth="yes"/>
			<point x="298" y="1284"/>
			<point x="456" y="1282"/>
			<point x="472" y="1282" type="curve" smooth="yes"/>
			<point x="564" y="1282"/>
			<point x="646" y="1220"/>
			<point x="646" y="1100" type="curve" smooth="yes"/>
			<point x="646" y="990"/>
			<point x="572" y="864"/>
			<point x="402" y="860" type="curve"/>
			<point x="402" y="860"/>
			<point x="402" y="860"/>
			<point x="402" y="860" type="curve"/>
			<point x="402" y="738" type="line"/>
			<point x="402" y="738"/>
			<point x="402" y="738"/>
			<point x="402" y="738" type="curve"/>
			<point x="590" y="734"/>
			<point x="698" y="548"/>
			<point x="698" y="348" type="curve" smooth="yes"/>
			<point x="698" y="188"/>
			<point x="614" y="106"/>
			<point x="516" y="106" type="curve" smooth="yes"/>
			<point x="510" y="106"/>
			<point x="454" y="106"/>
			<point x="396" y="130" type="curve"/>
			<point x="396" y="130"/>
			<point x="396" y="130"/>
			<point x="396" y="130" type="curve"/>
			<point x="352" y="14" type="line"/>
			<point x="352" y="14"/>
			<point x="352" y="14"/>
			<point x="352" y="14" type="curve"/>
			<point x="366" y="8"/>
			<point x="438" y="-16"/>
			<point x="516" y="-16" type="curve" smooth="yes"/>
			<point x="702" y="-16"/>
			<point x="848" y="142"/>
			<point x="848" y="348" type="curve" smooth="yes"/>
			<point x="848" y="600"/>
			<point x="694" y="748"/>
		</contour>
	</outline>
</glyph>
<glyph name="oslash" format="2">
	<unicode hex="00F8"/>
	<advance width="470"/>
	<outline>
		<contour>
			<point x="27" y="214" type="curve" smooth="yes"/>
			<point x="27" y="141"/>
			<point x="60" y="77"/>
			<point x="105" y="41" type="curve"/>
			<point x="38" y="-82" type="line"/>
			<point x="38" y="-82"/>
			<point x="38" y="-82"/>
			<point x="38" y="-82" type="curve"/>
			<point x="55.982" y="-91.99"/>
			<point x="73.964" y="-101.98"/>
			<point x="92" y="-112" type="curve"/>
			<point x="92" y="-112"/>
			<point x="92" y="-112"/>
			<point x="92" y="-112" type="curve"/>
			<point x="113.645" y="-72.04"/>
			<point x="135.29" y="-32.08"/>
			<point x="157" y="8" type="curve"/>
			<point x="173" y="1"/>
			<point x="201" y="-8"/>
			<point x="234" y="-8" type="curve" smooth="yes"/>
			<point x="348" y="-8"/>
			<point x="442" y="90"/>
			<point x="442" y="214" type="curve" smooth="yes"/>
			<point x="442" y="283"/>
			<point x="413" y="347"/>
			<point x="365" y="392" type="curve"/>
			<point x="431" y="513" type="line"/>
			<point x="431" y="513"/>
			<point x="431" y="513"/>
			<point x="431" y="513" type="curve"/>
			<point x="413.018" y="522.99"/>
			<point x="395.036" y="532.98"/>
			<point x="377" y="543" type="curve"/>
			<point x="377" y="543"/>
			<point x="377" y="543"/>
			<point x="377" y="543" type="curve"/>
			<point x="314" y="425" type="line"/>
			<point x="301" y="431"/>
			<point x="270" y="442"/>
			<point x="235" y="442" type="curve" smooth="yes"/>
			<point x="120" y="442"/>
			<point x="27" y="339"/>
		</contour>
		<contour>
			<point x="137" y="101" type="line"/>
			<point x="107" y="139"/>
			<point x="103" y="185"/>
			<point x="103" y="214" type="curve" smooth="yes"/>
			<point x="103" y="328"/>
			<point x="168" y="381"/>
			<point x="235" y="381" type="curve" smooth="yes"/>
			<point x="252" y="381"/>
			<point x="269" y="378"/>
			<point x="284" y="371" type="curve"/>
		</contour>
		<contour>
			<point x="332" y="331" type="line"/>
			<point x="361" y="293"/>
			<point x="366" y="245"/>
			<point x="366" y="214" type="curve" smooth="yes"/>
			<point x="366" y="101"/>
			<point x="298" y="53"/>
			<point x="234" y="53" type="curve" smooth="yes"/>
			<point x="218" y="53"/>
			<point x="202" y="56"/>
			<point x="187" y="62" type="curve"/>
		</contour>
	</outline>
</glyph>
<glyph name="dotlessi" format="2">
	<unicode hex="0131"/>
	<advance width="222"/>
	<outline>
		<contour>
			<point x="74" y="430" type="curve"/>
			<point x="74" y="0" type="line"/>
			<point x="74" y="0"/>
			<point x="74" y="0"/>
			<point x="74" y="0" type="curve"/>
			<point x="148" y="0" type="line"/>
			<point x="148" y="0"/>
			<point x="148" y="0"/>
			<point x="148" y="0" type="curve"/>
			<point x="148" y="430" type="line"/>
			<point x="148" y="430"/>
			<point x="148" y="430"/>
			<point x="148" y="430" type="curve"/>
			<point x="74" y="430" type="line"/>
			<point x="74" y="430"/>
			<point x="74" y="430"/>
		</contour>
	</outline>
</glyph>
<glyph name="OE" format="2">
	<unicode hex="0152"/>
	<advance width="1826"/>
	<outline>
		<contour>
			<point x="676" y="-32" type="curve" smooth="yes"/>
			<point x="720" y="-32"/>
			<point x="756" y="-26"/>
			<point x="838" y="-14" type="curve" smooth="yes"/>
			<point x="918" y="0"/>
			<point x="948" y="0"/>
			<point x="976" y="0" type="curve" smooth="yes"/>
			<point x="1746" y="0" type="line"/>
			<point x="1746" y="0"/>
			<point x="1746" y="0"/>
			<point x="1746" y="0" type="curve"/>
			<point x="1746" y="138" type="line"/>
			<point x="1746" y="138"/>
			<point x="1746" y="138"/>
			<point x="1746" y="138" type="curve"/>
			<point x="1514" y="138"/>
			<point x="1282" y="138"/>
			<point x="1050" y="138" type="curve"/>
			<point x="1050" y="660" type="line"/>
			<point x="1668" y="660" type="line"/>
			<point x="1668" y="660"/>
			<point x="1668" y="660"/>
			<point x="1668" y="660" type="curve"/>
			<point x="1668" y="782" type="line"/>
			<point x="1668" y="782"/>
			<point x="1668" y="782"/>
			<point x="1668" y="782" type="curve"/>
			<point x="1050" y="782" type="line"/>
			<point x="1050" y="1258" type="line"/>
			<point x="1273" y="1258"/>
			<point x="1496" y="1258"/>
			<point x="1720" y="1258" type="curve"/>
			<point x="1720" y="1258"/>
			<point x="1720" y="1258"/>
			<point x="1720" y="1258" type="curve"/>
			<point x="1720" y="1388" type="line"/>
			<point x="1720" y="1388"/>
			<point x="1720" y="1388"/>
			<point x="1720" y="1388" type="curve"/>
			<point x="976" y="1388" type="line" smooth="yes"/>
			<point x="950" y="1388"/>
			<point x="916" y="1388"/>
			<point x="834" y="1402" type="curve" smooth="yes"/>
			<point x="736" y="1418"/>
			<point x="706" y="1420"/>
			<point x="676" y="1420" type="curve" smooth="yes"/>
			<point x="338" y="1420"/>
			<point x="50" y="1102"/>
			<point x="50" y="692" type="curve" smooth="yes"/>
			<point x="50" y="276"/>
			<point x="344" y="-32"/>
		</contour>
		<contour>
			<point x="680" y="90" type="curve" smooth="yes"/>
			<point x="416" y="90"/>
			<point x="214" y="378"/>
			<point x="214" y="718" type="curve" smooth="yes"/>
			<point x="214" y="1052"/>
			<point x="428" y="1298"/>
			<point x="680" y="1298" type="curve" smooth="yes"/>
			<point x="838" y="1298"/>
			<point x="864" y="1230"/>
			<point x="878" y="1116" type="curve" smooth="yes"/>
			<point x="886" y="1052"/>
			<point x="886" y="864"/>
			<point x="886" y="696" type="curve" smooth="yes"/>
			<point x="886" y="472"/>
			<point x="886" y="328"/>
			<point x="878" y="264" type="curve" smooth="yes"/>
			<point x="862" y="160"/>
			<point x="840" y="90"/>
		</contour>
	</outline>
</glyph>
<glyph name="oe" format="2">
	<unicode hex="0153"/>
	<advance width="1462"/>
	<outline>
		<contour>
			<point x="454" y="-16" type="curve" smooth="yes"/>
			<point x="544" y="-16"/>
			<point x="682" y="20"/>
			<point x="782" y="172" type="curve"/>
			<point x="886" y="24"/>
			<point x="1014" y="-16"/>
			<point x="1120" y="-16" type="curve" smooth="yes"/>
			<point x="1212" y="-16"/>
			<point x="1312" y="14"/>
			<point x="1398" y="82" type="curve"/>
			<point x="1398" y="82"/>
			<point x="1398" y="82"/>
			<point x="1398" y="82" type="curve"/>
			<point x="1394" y="125"/>
			<point x="1390" y="167"/>
			<point x="1386" y="210" type="curve"/>
			<point x="1386" y="210"/>
			<point x="1386" y="210"/>
			<point x="1386" y="210" type="curve"/>
			<point x="1386" y="210"/>
			<point x="1386" y="210"/>
			<point x="1386" y="210" type="curve"/>
			<point x="1296" y="130"/>
			<point x="1194" y="106"/>
			<point x="1122" y="106" type="curve" smooth="yes"/>
			<point x="980" y="106"/>
			<point x="860" y="240"/>
			<point x="858" y="438" type="curve"/>
			<point x="1408" y="438" type="line"/>
			<point x="1408" y="438"/>
			<point x="1408" y="438"/>
			<point x="1408" y="438" type="curve"/>
			<point x="1408" y="504"/>
			<point x="1408" y="884"/>
			<point x="1090" y="884" type="curve" smooth="yes"/>
			<point x="1002" y="884"/>
			<point x="872" y="844"/>
			<point x="780" y="700" type="curve"/>
			<point x="690" y="834"/>
			<point x="562" y="884"/>
			<point x="454" y="884" type="curve" smooth="yes"/>
			<point x="240" y="884"/>
			<point x="54" y="688"/>
			<point x="54" y="434" type="curve" smooth="yes"/>
			<point x="54" y="178"/>
			<point x="242" y="-16"/>
		</contour>
		<contour>
			<point x="454" y="106" type="curve" smooth="yes"/>
			<point x="332" y="106"/>
			<point x="200" y="208"/>
			<point x="200" y="446" type="curve" smooth="yes"/>
			<point x="200" y="670"/>
			<point x="334" y="762"/>
			<point x="454" y="762" type="curve" smooth="yes"/>
			<point x="578" y="762"/>
			<point x="706" y="668"/>
			<point x="706" y="446" type="curve" smooth="yes"/>
			<point x="706" y="206"/>
			<point x="576" y="106"/>
		</contour>
		<contour>
			<point x="872" y="548" type="line"/>
			<point x="908" y="684"/>
			<point x="1002" y="762"/>
			<point x="1090" y="762" type="curve" smooth="yes"/>
			<point x="1166" y="762"/>
			<point x="1252" y="708"/>
			<point x="1274" y="548" type="curve"/>
		</contour>
	</outline>
</glyph>
<glyph name="dotlessj" format="2">
	<unicode hex="0237"/>
	<advance width="496"/>
	<outline>
		<contour>
			<point x="200" y="-138" type="line" smooth="yes"/>
			<point x="200" y="-264"/>
			<point x="110" y="-278"/>
			<point x="56" y="-278" type="curve" smooth="yes"/>
			<point x="12" y="-278"/>
			<point x="-40" y="-264"/>
			<point x="-86" y="-216" type="curve"/>
			<point x="-86" y="-216"/>
			<point x="-86" y="-216"/>
			<point x="-86" y="-216" type="curve"/>
			<point x="-86" y="-216"/>
			<point x="-86" y="-216"/>
			<point x="-86" y="-216" type="curve"/>
			<point x="-116" y="-338" type="line"/>
			<point x="-116" y="-338"/>
			<point x="-116" y="-338"/>
			<point x="-116" y="-338" type="curve"/>
			<point x="-52" y="-378"/>
			<point x="26" y="-406"/>
			<point x="110" y="-406" type="curve" smooth="yes"/>
			<point x="236" y="-406"/>
			<point x="348" y="-298"/>
			<point x="348" y="-120" type="curve" smooth="yes"/>
			<point x="348" y="860" type="line"/>
			<point x="348" y="860"/>
			<point x="348" y="860"/>
			<point x="348" y="860" type="curve"/>
			<point x="200" y="860" type="line"/>
			<point x="200" y="860"/>
			<point x="200" y="860"/>
			<point x="200" y="860" type="curve"/>
		</contour>
	</outline>
</glyph>
<glyph name="circumflex" format="2">
	<unicode hex="02C6"/>
	<advance width="940"/>
	<outline>
		<contour>
			<point x="530" y="1388" type="line"/>
			<point x="530" y="1388"/>
			<point x="530" y="1388"/>
			<point x="530" y="1388" type="curve"/>
			<point x="408" y="1388" type="line"/>
			<point x="408" y="1388"/>
			<point x="408" y="1388"/>
			<point x="408" y="1388" type="curve"/>
			<point x="144" y="1036" type="line"/>
			<point x="144" y="1036"/>
			<point x="144" y="1036"/>
			<point x="144" y="1036" type="curve"/>
			<point x="144" y="1036"/>
			<point x="144" y="1036"/>
			<point x="144" y="1036" type="curve"/>
			<point x="266" y="1036" type="line"/>
			<point x="266" y="1036"/>
			<point x="266" y="1036"/>
			<point x="266" y="1036" type="curve"/>
			<point x="468" y="1292" type="line"/>
			<point x="672" y="1036" type="line"/>
			<point x="672" y="1036"/>
			<point x="672" y="1036"/>
			<point x="672" y="1036" type="curve"/>
			<point x="794" y="1036" type="line"/>
			<point x="794" y="1036"/>
			<point x="794" y="1036"/>
			<point x="794" y="1036" type="curve"/>
			<point x="794" y="1036"/>
			<point x="794" y="1036"/>
			<point x="794" y="1036" type="curve"/>
		</contour>
	</outline>
</glyph>
<glyph name="caron" format="2">
	<unicode hex="02C7"/>
	<advance width="470"/>
	<outline>
		<contour>
			<point x="397" y="644" type="line"/>
			<point x="336" y="644" type="line"/>
			<point x="235" y="516" type="line"/>
			<point x="133" y="644" type="line"/>
			<point x="72" y="644" type="line"/>
			<point x="204" y="468" type="line"/>
			<point x="265" y="468" type="line"/>
		</contour>
	</outline>
</glyph>
<glyph name="breve" format="2">
	<unicode hex="02D8"/>
	<advance width="470"/>
	<outline>
		<contour>
			<point x="234" y="501" type="curve" smooth="yes"/>
			<point x="320" y="501"/>
			<point x="392" y="577"/>
			<point x="395" y="694" type="curve"/>
			<point x="395" y="694"/>
			<point x="395" y="694"/>
			<point x="395" y="694" type="curve"/>
			<point x="334" y="694" type="line"/>
			<point x="334" y="694"/>
			<point x="334" y="694"/>
			<point x="334" y="694" type="curve"/>
			<point x="332" y="614"/>
			<point x="285" y="567"/>
			<point x="235" y="567" type="curve" smooth="yes"/>
			<point x="181" y="567"/>
			<point x="137" y="616"/>
			<point x="135" y="694" type="curve"/>
			<point x="135" y="694"/>
			<point x="135" y="694"/>
			<point x="135" y="694" type="curve"/>
			<point x="74" y="694" type="line"/>
			<point x="74" y="694"/>
			<point x="74" y="694"/>
			<point x="74" y="694" type="curve"/>
			<point x="77" y="574"/>
			<point x="152" y="501"/>
		</contour>
	</outline>
</glyph>
<glyph name="dotaccent" format="2">
	<unicode hex="02D9"/>
	<advance width="522"/>
	<outline>
		<contour>
			<point x="344" y="1316" type="curve"/>
			<point x="176" y="1316" type="line"/>
			<point x="176" y="1316"/>
			<point x="176" y="1316"/>
			<point x="176" y="1316" type="curve"/>
			<point x="176" y="1148" type="line"/>
			<point x="176" y="1148"/>
			<point x="176" y="1148"/>
			<point x="176" y="1148" type="curve"/>
			<point x="344" y="1148" type="line"/>
			<point x="344" y="1148"/>
			<point x="344" y="1148"/>
			<point x="344" y="1148" type="curve"/>
			<point x="344" y="1316" type="line"/>
			<point x="344" y="1316"/>
			<point x="344" y="1316"/>
		</contour>
	</outline>
</glyph>
<glyph name="ring" format="2">
	<unicode hex="02DA"/>
	<advance width="1248"/>
	<outline>
		<contour>
			<point x="834" y="1212" type="curve" smooth="yes"/>
			<point x="834" y="1304"/>
			<point x="744" y="1388"/>
			<point x="624" y="1388" type="curve" smooth="yes"/>
			<point x="504" y="1388"/>
			<point x="414" y="1304"/>
			<point x="414" y="1212" type="curve" smooth="yes"/>
			<point x="414" y="1120"/>
			<point x="504" y="1036"/>
			<point x="624" y="1036" type="curve" smooth="yes"/>
			<point x="744" y="1036"/>
			<point x="834" y="1120"/>
		</contour>
		<contour>
			<point x="624" y="1126" type="curve" smooth="yes"/>
			<point x="580" y="1126"/>
			<point x="520" y="1140"/>
			<point x="520" y="1212" type="curve" smooth="yes"/>
			<point x="520" y="1280"/>
			<point x="574" y="1298"/>
			<point x="624" y="1298" type="curve" smooth="yes"/>
			<point x="668" y="1298"/>
			<point x="728" y="1284"/>
			<point x="728" y="1212" type="curve" smooth="yes"/>
			<point x="728" y="1144"/>
			<point x="674" y="1126"/>
		</contour>
	</outline>
</glyph>
<glyph name="tilde" format="2">
	<unicode hex="02DC"/>
	<advance width="940"/>
	<outline>
		<contour>
			<point x="592" y="1198" type="curve" smooth="yes"/>
			<point x="562" y="1198"/>
			<point x="526" y="1214"/>
			<point x="486" y="1244" type="curve" smooth="yes"/>
			<point x="432" y="1282"/>
			<point x="394" y="1310"/>
			<point x="340" y="1310" type="curve" smooth="yes"/>
			<point x="258" y="1310"/>
			<point x="160" y="1234"/>
			<point x="156" y="1076" type="curve"/>
			<point x="156" y="1076"/>
			<point x="156" y="1076"/>
			<point x="156" y="1076" type="curve"/>
			<point x="278" y="1076" type="line"/>
			<point x="278" y="1076"/>
			<point x="278" y="1076"/>
			<point x="278" y="1076" type="curve"/>
			<point x="278" y="1124"/>
			<point x="290" y="1188"/>
			<point x="346" y="1188" type="curve" smooth="yes"/>
			<point x="376" y="1188"/>
			<point x="412" y="1172"/>
			<point x="452" y="1142" type="curve" smooth="yes"/>
			<point x="506" y="1104"/>
			<point x="544" y="1076"/>
			<point x="598" y="1076" type="curve" smooth="yes"/>
			<point x="680" y="1076"/>
			<point x="778" y="1152"/>
			<point x="782" y="1310" type="curve"/>
			<point x="782" y="1310"/>
			<point x="782" y="1310"/>
			<point x="782" y="1310" type="curve"/>
			<point x="660" y="1310" type="line"/>
			<point x="660" y="1310"/>
			<point x="660" y="1310"/>
			<point x="660" y="1310" type="curve"/>
			<point x="660" y="1262"/>
			<point x="648" y="1198"/>
		</contour>
	</outline>
</glyph>
<glyph name="hungarumlaut" format="2">
	<unicode hex="02DD"/>
	<advance width="940"/>
	<outline>
		<contour>
			<point x="468" y="1388" type="line"/>
			<point x="468" y="1388"/>
			<point x="468" y="1388"/>
			<point x="468" y="1388" type="curve"/>
			<point x="468" y="1388"/>
			<point x="468" y="1388"/>
			<point x="468" y="1388" type="curve"/>
			<point x="316" y="1388" type="line"/>
			<point x="316" y="1388"/>
			<point x="316" y="1388"/>
			<point x="316" y="1388" type="curve"/>
			<point x="198" y="1036" type="line"/>
			<point x="198" y="1036"/>
			<point x="198" y="1036"/>
			<point x="198" y="1036" type="curve"/>
			<point x="320" y="1036" type="line"/>
			<point x="320" y="1036"/>
			<point x="320" y="1036"/>
			<point x="320" y="1036" type="curve"/>
		</contour>
		<contour>
			<point x="782" y="1388" type="line"/>
			<point x="782" y="1388"/>
			<point x="782" y="1388"/>
			<point x="782" y="1388" type="curve"/>
			<point x="782" y="1388"/>
			<point x="782" y="1388"/>
			<point x="782" y="1388" type="curve"/>
			<point x="630" y="1388" type="line"/>
			<point x="630" y="1388"/>
			<point x="630" y="1388"/>
			<point x="630" y="1388" type="curve"/>
			<point x="512" y="1036" type="line"/>
			<point x="512" y="1036"/>
			<point x="512" y="1036"/>
			<point x="512" y="1036" type="curve"/>
			<point x="634" y="1036" type="line"/>
			<point x="634" y="1036"/>
			<point x="634" y="1036"/>
			<point x="634" y="1036" type="curve"/>
		</contour>
	</outline>
</glyph>
<glyph name="endash" format="2">
	<unicode hex="2013"/>
	<advance width="940"/>
	<outline>
		<contour>
			<point x="938" y="470" type="curve"/>
			<point x="938" y="592" type="line"/>
			<point x="938" y="592"/>
			<point x="938" y="592"/>
			<point x="938" y="592" type="curve"/>
			<point x="0" y="592" type="line"/>
			<point x="0" y="592"/>
			<point x="0" y="592"/>
			<point x="0" y="592" type="curve"/>
			<point x="0" y="470" type="line"/>
			<point x="0" y="470"/>
			<point x="0" y="470"/>
			<point x="0" y="470" type="curve"/>
			<point x="938" y="470" type="line"/>
			<point x="938" y="470"/>
			<point x="938" y="470"/>
		</contour>
	</outline>
</glyph>
<glyph name="emdash" format="2">
	<unicode hex="2014"/>
	<advance width="940"/>
	<outline>
		<contour>
			<point x="939" y="235" type="curve"/>
			<point x="939" y="296" type="line"/>
			<point x="939" y="296"/>
			<point x="939" y="296"/>
			<point x="939" y="296" type="curve"/>
			<point x="0" y="296" type="line"/>
			<point x="0" y="296"/>
			<point x="0" y="296"/>
			<point x="0" y="296" type="curve"/>
			<point x="0" y="235" type="line"/>
			<point x="0" y="235"/>
			<point x="0" y="235"/>
			<point x="0" y="235" type="curve"/>
			<point x="939" y="235" type="line"/>
			<point x="939" y="235"/>
			<point x="939" y="235"/>
		</contour>
	</outline>
</glyph>
<glyph name="quoteleft" format="2">
	<unicode hex="2018"/>
	<advance width="261"/>
	<outline>
		<contour>
			<point x="171" y="694" type="line"/>
			<point x="171" y="694"/>
			<point x="171" y="694"/>
			<point x="171" y="694" type="curve"/>
			<point x="171" y="694"/>
			<point x="171" y="694"/>
			<point x="171" y="694" type="curve"/>
			<point x="131" y="694" type="line"/>
			<point x="131" y="694"/>
			<point x="131" y="694"/>
			<point x="131" y="694" type="curve"/>
			<point x="90" y="568" type="line"/>
			<point x="90" y="489" type="line"/>
			<point x="90" y="489"/>
			<point x="90" y="489"/>
			<point x="90" y="489" type="curve"/>
			<point x="170" y="489" type="line"/>
			<point x="170" y="489"/>
			<point x="170" y="489"/>
			<point x="170" y="489" type="curve"/>
			<point x="170" y="569" type="line"/>
			<point x="170" y="569"/>
			<point x="170" y="569"/>
			<point x="170" y="569" type="curve"/>
			<point x="145" y="569" type="line"/>
		</contour>
	</outline>
</glyph>
<glyph name="quoteright" format="2">
	<unicode hex="2019"/>
	<advance width="261"/>
	<outline>
		<contour>
			<point x="115" y="614" type="line"/>
			<point x="89" y="489" type="line"/>
			<point x="89" y="489"/>
			<point x="89" y="489"/>
			<point x="89" y="489" type="curve"/>
			<point x="89" y="489"/>
			<point x="89" y="489"/>
			<point x="89" y="489" type="curve"/>
			<point x="129" y="489" type="line"/>
			<point x="129" y="489"/>
			<point x="129" y="489"/>
			<point x="129" y="489" type="curve"/>
			<point x="170" y="615" type="line"/>
			<point x="170" y="694" type="line"/>
			<point x="170" y="694"/>
			<point x="170" y="694"/>
			<point x="170" y="694" type="curve"/>
			<point x="90" y="694" type="line"/>
			<point x="90" y="694"/>
			<point x="90" y="694"/>
			<point x="90" y="694" type="curve"/>
			<point x="90" y="614" type="line"/>
			<point x="90" y="614"/>
			<point x="90" y="614"/>
			<point x="90" y="614" type="curve"/>
		</contour>
	</outline>
</glyph>
<glyph name="quotedblleft" format="2">
	<unicode hex="201C"/>
	<advance width="940"/>
	<outline>
		<contour>
			<point x="512" y="1388" type="line"/>
			<point x="512" y="1388"/>
			<point x="512" y="1388"/>
			<point x="512" y="1388" type="curve"/>
			<point x="512" y="1388"/>
			<point x="512" y="1388"/>
			<point x="512" y="1388" type="curve"/>
			<point x="432" y="1388" type="line"/>
			<point x="432" y="1388"/>
			<point x="432" y="1388"/>
			<point x="432" y="1388" type="curve"/>
			<point x="350" y="1136" type="line"/>
			<point x="350" y="978" type="line"/>
			<point x="350" y="978"/>
			<point x="350" y="978"/>
			<point x="350" y="978" type="curve"/>
			<point x="510" y="978" type="line"/>
			<point x="510" y="978"/>
			<point x="510" y="978"/>
			<point x="510" y="978" type="curve"/>
			<point x="510" y="1138" type="line"/>
			<point x="510" y="1138"/>
			<point x="510" y="1138"/>
			<point x="510" y="1138" type="curve"/>
			<point x="460" y="1138" type="line"/>
		</contour>
		<contour>
			<point x="878" y="1388" type="line"/>
			<point x="878" y="1388"/>
			<point x="878" y="1388"/>
			<point x="878" y="1388" type="curve"/>
			<point x="878" y="1388"/>
			<point x="878" y="1388"/>
			<point x="878" y="1388" type="curve"/>
			<point x="798" y="1388" type="line"/>
			<point x="798" y="1388"/>
			<point x="798" y="1388"/>
			<point x="798" y="1388" type="curve"/>
			<point x="716" y="1136" type="line"/>
			<point x="716" y="978" type="line"/>
			<point x="716" y="978"/>
			<point x="716" y="978"/>
			<point x="716" y="978" type="curve"/>
			<point x="876" y="978" type="line"/>
			<point x="876" y="978"/>
			<point x="876" y="978"/>
			<point x="876" y="978" type="curve"/>
			<point x="876" y="1138" type="line"/>
			<point x="876" y="1138"/>
			<point x="876" y="1138"/>
			<point x="876" y="1138" type="curve"/>
			<point x="826" y="1138" type="line"/>
		</contour>
	</outline>
</glyph>
<glyph name="quotedblright" format="2">
	<unicode hex="201D"/>
	<advance width="470"/>
	<outline>
		<contour>
			<point x="111" y="615" type="line"/>
			<point x="111" y="694" type="line"/>
			<point x="111" y="694"/>
			<point x="111" y="694"/>
			<point x="111" y="694" type="curve"/>
			<point x="31" y="694" type="line"/>
			<point x="31" y="694"/>
			<point x="31" y="694"/>
			<point x="31" y="694" type="curve"/>
			<point x="31" y="614" type="line"/>
			<point x="31" y="614"/>
			<point x="31" y="614"/>
			<point x="31" y="614" type="curve"/>
			<point x="56" y="614" type="line"/>
			<point x="30" y="489" type="line"/>
			<point x="30" y="489"/>
			<point x="30" y="489"/>
			<point x="30" y="489" type="curve"/>
			<point x="30" y="489"/>
			<point x="30" y="489"/>
			<point x="30" y="489" type="curve"/>
			<point x="70" y="489" type="line"/>
			<point x="70" y="489"/>
			<point x="70" y="489"/>
			<point x="70" y="489" type="curve"/>
		</contour>
		<contour>
			<point x="294" y="615" type="line"/>
			<point x="294" y="694" type="line"/>
			<point x="294" y="694"/>
			<point x="294" y="694"/>
			<point x="294" y="694" type="curve"/>
			<point x="214" y="694" type="line"/>
			<point x="214" y="694"/>
			<point x="214" y="694"/>
			<point x="214" y="694" type="curve"/>
			<point x="214" y="614" type="line"/>
			<point x="214" y="614"/>
			<point x="214" y="614"/>
			<point x="214" y="614" type="curve"/>
			<point x="239" y="614" type="line"/>
			<point x="213" y="489" type="line"/>
			<point x="213" y="489"/>
			<point x="213" y="489"/>
			<point x="213" y="489" type="curve"/>
			<point x="213" y="489"/>
			<point x="213" y="489"/>
			<point x="213" y="489" type="curve"/>
			<point x="253" y="489" type="line"/>
			<point x="253" y="489"/>
			<point x="253" y="489"/>
			<point x="253" y="489" type="curve"/>
		</contour>
	</outline>
</glyph>
<glyph name="fl" format="2">
	<unicode hex="FB02"/>
	<advance width="503"/>
	<outline>
		<contour>
			<point x="94" y="372" type="line"/>
			<point x="94" y="0" type="line"/>
			<point x="94" y="0"/>
			<point x="94" y="0"/>
			<point x="94" y="0" type="curve"/>
			<point x="168" y="0" type="line"/>
			<point x="168" y="0"/>
			<point x="168" y="0"/>
			<point x="168" y="0" type="curve"/>
			<point x="168" y="372" type="line"/>
			<point x="277" y="372" type="line"/>
			<point x="277" y="372"/>
			<point x="277" y="372"/>
			<point x="277" y="372" type="curve"/>
			<point x="277" y="430" type="line"/>
			<point x="277" y="430"/>
			<point x="277" y="430"/>
			<point x="277" y="430" type="curve"/>
			<point x="166" y="430" type="line"/>
			<point x="166" y="561" type="line" smooth="yes"/>
			<point x="166" y="614"/>
			<point x="190" y="641"/>
			<point x="222" y="641" type="curve" smooth="yes"/>
			<point x="249" y="641"/>
			<point x="274" y="630"/>
			<point x="277" y="628" type="curve"/>
			<point x="277" y="628"/>
			<point x="277" y="628"/>
			<point x="277" y="628" type="curve"/>
			<point x="277" y="628"/>
			<point x="277" y="628"/>
			<point x="277" y="628" type="curve"/>
			<point x="277" y="694" type="line"/>
			<point x="277" y="694"/>
			<point x="277" y="694"/>
			<point x="277" y="694" type="curve"/>
			<point x="269" y="696"/>
			<point x="246" y="702"/>
			<point x="222" y="702" type="curve" smooth="yes"/>
			<point x="147" y="702"/>
			<point x="94" y="626"/>
			<point x="94" y="529" type="curve" smooth="yes"/>
			<point x="94" y="430" type="line"/>
			<point x="25" y="430" type="line"/>
			<point x="25" y="430"/>
			<point x="25" y="430"/>
			<point x="25" y="430" type="curve"/>
			<point x="25" y="372" type="line"/>
			<point x="25" y="372"/>
			<point x="25" y="372"/>
			<point x="25" y="372" type="curve"/>
		</contour>
		<contour>
			<point x="427" y="694" type="curve"/>
			<point x="353" y="694" type="line"/>
			<point x="353" y="694"/>
			<point x="353" y="694"/>
			<point x="353" y="694" type="curve"/>
			<point x="353" y="0" type="line"/>
			<point x="353" y="0"/>
			<point x="353" y="0"/>
			<point x="353" y="0" type="curve"/>
			<point x="427" y="0" type="line"/>
			<point x="427" y="0"/>
			<point x="427" y="0"/>
			<point x="427" y="0" type="curve"/>
			<point x="427" y="694" type="line"/>
			<point x="427" y="694"/>
			<point x="427" y="694"/>
		</contour>
	</outline>
</glyph>
<glyph name="I" format="2">
	<advance width="258"/>
	<outline>
		<contour>
			<point x="87" y="694" type="line"/>
			<point x="87" y="694"/>
			<point x="87" y="694"/>
			<point x="87" y="694" type="curve"/>
			<point x="87" y="0" type="line"/>
			<point x="87" y="0"/>
			<point x="87" y="0"/>
			<point x="87" y="0" type="curve"/>
			<point x="171" y="0" type="line"/>
			<point x="171" y="0"/>
			<point x="171" y="0"/>
			<point x="171" y="0" type="curve"/>
			<point x="171" y="694" type="line"/>
			<point x="171" y="694"/>
			<point x="171" y="694"/>
			<point x="171" y="694" type="curve"/>
		</contour>
	</outline>
</glyph>
<glyph name="ff" format="2">
	<advance width="1096"/>
	<outline>
		<contour>
			<point x="336" y="744" type="line"/>
			<point x="542" y="744" type="line"/>
			<point x="542" y="744"/>
			<point x="542" y="744"/>
			<point x="542" y="744" type="curve"/>
			<point x="542" y="860" type="line"/>
			<point x="542" y="860"/>
			<point x="542" y="860"/>
			<point x="542" y="860" type="curve"/>
			<point x="332" y="860" type="line"/>
			<point x="332" y="1116" type="line" smooth="yes"/>
			<point x="332" y="1254"/>
			<point x="436" y="1282"/>
			<point x="504" y="1282" type="curve" smooth="yes"/>
			<point x="574" y="1282"/>
			<point x="632" y="1264"/>
			<point x="654" y="1256" type="curve"/>
			<point x="654" y="1256"/>
			<point x="654" y="1256"/>
			<point x="654" y="1256" type="curve"/>
			<point x="654" y="1256"/>
			<point x="654" y="1256"/>
			<point x="654" y="1256" type="curve"/>
			<point x="654" y="1388" type="line"/>
			<point x="654" y="1388"/>
			<point x="654" y="1388"/>
			<point x="654" y="1388" type="curve"/>
			<point x="632" y="1392"/>
			<point x="572" y="1404"/>
			<point x="506" y="1404" type="curve" smooth="yes"/>
			<point x="322" y="1404"/>
			<point x="188" y="1254"/>
			<point x="188" y="1054" type="curve" smooth="yes"/>
			<point x="188" y="860" type="line"/>
			<point x="50" y="860" type="line"/>
			<point x="50" y="860"/>
			<point x="50" y="860"/>
			<point x="50" y="860" type="curve"/>
			<point x="50" y="744" type="line"/>
			<point x="50" y="744"/>
			<point x="50" y="744"/>
			<point x="50" y="744" type="curve"/>
			<point x="188" y="744" type="line"/>
			<point x="188" y="0" type="line"/>
			<point x="188" y="0"/>
			<point x="188" y="0"/>
			<point x="188" y="0" type="curve"/>
			<point x="336" y="0" type="line"/>
			<point x="336" y="0"/>
			<point x="336" y="0"/>
			<point x="336" y="0" type="curve"/>
		</contour>
		<contour>
			<point x="856" y="744" type="line"/>
			<point x="1062" y="744" type="line"/>
			<point x="1062" y="744"/>
			<point x="1062" y="744"/>
			<point x="1062" y="744" type="curve"/>
			<point x="1062" y="860" type="line"/>
			<point x="1062" y="860"/>
			<point x="1062" y="860"/>
			<point x="1062" y="860" type="curve"/>
			<point x="852" y="860" type="line"/>
			<point x="852" y="1116" type="line" smooth="yes"/>
			<point x="852" y="1254"/>
			<point x="956" y="1282"/>
			<point x="1024" y="1282" type="curve" smooth="yes"/>
			<point x="1094" y="1282"/>
			<point x="1152" y="1264"/>
			<point x="1174" y="1256" type="curve"/>
			<point x="1174" y="1256"/>
			<point x="1174" y="1256"/>
			<point x="1174" y="1256" type="curve"/>
			<point x="1174" y="1256"/>
			<point x="1174" y="1256"/>
			<point x="1174" y="1256" type="curve"/>
			<point x="1174" y="1388" type="line"/>
			<point x="1174" y="1388"/>
			<point x="1174" y="1388"/>
			<point x="1174" y="1388" type="curve"/>
			<point x="1152" y="1392"/>
			<point x="1092" y="1404"/>
			<point x="1026" y="1404" type="curve" smooth="yes"/>
			<point x="842" y="1404"/>
			<point x="708" y="1254"/>
			<point x="708" y="1054" type="curve" smooth="yes"/>
			<point x="708" y="0" type="line"/>
			<point x="708" y="0"/>
			<point x="708" y="0"/>
			<point x="708" y="0" type="curve"/>
			<point x="856" y="0" type="line"/>
			<point x="856" y="0"/>
			<point x="856" y="0"/>
			<point x="856" y="0" type="curve"/>
		</contour>
	</outline>
</glyph>
<glyph name="ffi" format="2">
	<advance width="1528"/>
	<outline>
		<contour>
			<point x="188" y="1056" type="curve" smooth="yes"/>
			<point x="188" y="860" type="line"/>
			<point x="50" y="860" type="line"/>
			<point x="50" y="860"/>
			<point x="50" y="860"/>
			<point x="50" y="860" type="curve"/>
			<point x="50" y="744" type="line"/>
			<point x="50" y="744"/>
			<point x="50" y="744"/>
			<point x="50" y="744" type="curve"/>
			<point x="188" y="744" type="line"/>
			<point x="188" y="0" type="line"/>
			<point x="188" y="0"/>
			<point x="188" y="0"/>
			<point x="188" y="0" type="curve"/>
			<point x="336" y="0" type="line"/>
			<point x="336" y="0"/>
			<point x="336" y="0"/>
			<point x="336" y="0" type="curve"/>
			<point x="336" y="744" type="line"/>
			<point x="554" y="744" type="line"/>
			<point x="554" y="744"/>
			<point x="554" y="744"/>
			<point x="554" y="744" type="curve"/>
			<point x="554" y="860" type="line"/>
			<point x="554" y="860"/>
			<point x="554" y="860"/>
			<point x="554" y="860" type="curve"/>
			<point x="332" y="860" type="line"/>
			<point x="332" y="1118" type="line" smooth="yes"/>
			<point x="332" y="1252"/>
			<point x="414" y="1282"/>
			<point x="472" y="1282" type="curve" smooth="yes"/>
			<point x="506" y="1282"/>
			<point x="554" y="1276"/>
			<point x="600" y="1256" type="curve"/>
			<point x="600" y="1256"/>
			<point x="600" y="1256"/>
			<point x="600" y="1256" type="curve"/>
			<point x="600" y="1256"/>
			<point x="600" y="1256"/>
			<point x="600" y="1256" type="curve"/>
			<point x="600" y="1388" type="line"/>
			<point x="600" y="1388"/>
			<point x="600" y="1388"/>
			<point x="600" y="1388" type="curve"/>
			<point x="548" y="1402"/>
			<point x="540" y="1404"/>
			<point x="472" y="1404" type="curve" smooth="yes"/>
			<point x="308" y="1404"/>
			<point x="188" y="1254"/>
		</contour>
		<contour>
			<point x="856" y="744" type="line"/>
			<point x="1074" y="744" type="line"/>
			<point x="1074" y="744"/>
			<point x="1074" y="744"/>
			<point x="1074" y="744" type="curve"/>
			<point x="1074" y="860" type="line"/>
			<point x="1074" y="860"/>
			<point x="1074" y="860"/>
			<point x="1074" y="860" type="curve"/>
			<point x="852" y="860" type="line"/>
			<point x="852" y="1122" type="line" smooth="yes"/>
			<point x="852" y="1228"/>
			<point x="900" y="1282"/>
			<point x="964" y="1282" type="curve" smooth="yes"/>
			<point x="1008" y="1282"/>
			<point x="1050" y="1268"/>
			<point x="1074" y="1254" type="curve"/>
			<point x="1074" y="1254"/>
			<point x="1074" y="1254"/>
			<point x="1074" y="1254" type="curve"/>
			<point x="1074" y="1254"/>
			<point x="1074" y="1254"/>
			<point x="1074" y="1254" type="curve"/>
			<point x="1074" y="1390" type="line"/>
			<point x="1074" y="1390"/>
			<point x="1074" y="1390"/>
			<point x="1074" y="1390" type="curve"/>
			<point x="1038" y="1400"/>
			<point x="1022" y="1404"/>
			<point x="964" y="1404" type="curve" smooth="yes"/>
			<point x="814" y="1404"/>
			<point x="708" y="1252"/>
			<point x="708" y="1058" type="curve" smooth="yes"/>
			<point x="708" y="0" type="line"/>
			<point x="708" y="0"/>
			<point x="708" y="0"/>
			<point x="708" y="0" type="curve"/>
			<point x="856" y="0" type="line"/>
			<point x="856" y="0"/>
			<point x="856" y="0"/>
			<point x="856" y="0" type="curve"/>
		</contour>
		<contour>
			<point x="1376" y="860" type="curve"/>
			<point x="1228" y="860" type="line"/>
			<point x="1228" y="860"/>
			<point x="1228" y="860"/>
			<point x="1228" y="860" type="curve"/>
			<point x="1228" y="0" type="line"/>
			<point x="1228" y="0"/>
			<point x="1228" y="0"/>
			<point x="1228" y="0" type="curve"/>
			<point x="1376" y="0" type="line"/>
			<point x="1376" y="0"/>
			<point x="1376" y="0"/>
			<point x="1376" y="0" type="curve"/>
			<point x="1376" y="860" type="line"/>
			<point x="1376" y="860"/>
			<point x="1376" y="860"/>
		</contour>
		<contour>
			<point x="1382" y="1390" type="curve"/>
			<point x="1222" y="1390" type="line"/>
			<point x="1222" y="1390"/>
			<point x="1222" y="1390"/>
			<point x="1222" y="1390" type="curve"/>
			<point x="1222" y="1230" type="line"/>
			<point x="1222" y="1230"/>
			<point x="1222" y="1230"/>
			<point x="1222" y="1230" type="curve"/>
			<point x="1382" y="1230" type="line"/>
			<point x="1382" y="1230"/>
			<point x="1382" y="1230"/>
			<point x="1382" y="1230" type="curve"/>
			<point x="1382" y="1390" type="line"/>
			<point x="1382" y="1390"/>
			<point x="1382" y="1390"/>
		</contour>
	</outline>
</glyph>
<glyph name="ffl" format="2">
	<advance width="1528"/>
	<outline>
		<contour>
			<point x="336" y="744" type="line"/>
			<point x="554" y="744" type="line"/>
			<point x="554" y="744"/>
			<point x="554" y="744"/>
			<point x="554" y="744" type="curve"/>
			<point x="554" y="860" type="line"/>
			<point x="554" y="860"/>
			<point x="554" y="860"/>
			<point x="554" y="860" type="curve"/>
			<point x="332" y="860" type="line"/>
			<point x="332" y="1118" type="line" smooth="yes"/>
			<point x="332" y="1252"/>
			<point x="414" y="1282"/>
			<point x="472" y="1282" type="curve" smooth="yes"/>
			<point x="506" y="1282"/>
			<point x="554" y="1276"/>
			<point x="600" y="1256" type="curve"/>
			<point x="600" y="1256"/>
			<point x="600" y="1256"/>
			<point x="600" y="1256" type="curve"/>
			<point x="600" y="1256"/>
			<point x="600" y="1256"/>
			<point x="600" y="1256" type="curve"/>
			<point x="600" y="1388" type="line"/>
			<point x="600" y="1388"/>
			<point x="600" y="1388"/>
			<point x="600" y="1388" type="curve"/>
			<point x="548" y="1402"/>
			<point x="540" y="1404"/>
			<point x="472" y="1404" type="curve" smooth="yes"/>
			<point x="308" y="1404"/>
			<point x="188" y="1254"/>
			<point x="188" y="1056" type="curve" smooth="yes"/>
			<point x="188" y="860" type="line"/>
			<point x="50" y="860" type="line"/>
			<point x="50" y="860"/>
			<point x="50" y="860"/>
			<point x="50" y="860" type="curve"/>
			<point x="50" y="744" type="line"/>
			<point x="50" y="744"/>
			<point x="50" y="744"/>
			<point x="50" y="744" type="curve"/>
			<point x="188" y="744" type="line"/>
			<point x="188" y="0" type="line"/>
			<point x="188" y="0"/>
			<point x="188" y="0"/>
			<point x="188" y="0" type="curve"/>
			<point x="336" y="0" type="line"/>
			<point x="336" y="0"/>
			<point x="336" y="0"/>
			<point x="336" y="0" type="curve"/>
		</contour>
		<contour>
			<point x="1376" y="1388" type="curve"/>
			<point x="1228" y="1388" type="line"/>
			<point x="1228" y="1388"/>
			<point x="1228" y="1388"/>
			<point x="1228" y="1388" type="curve"/>
			<point x="1228" y="0" type="line"/>
			<point x="1228" y="0"/>
			<point x="1228" y="0"/>
			<point x="1228" y="0" type="curve"/>
			<point x="1376" y="0" type="line"/>
			<point x="1376" y="0"/>
			<point x="1376" y="0"/>
			<point x="1376" y="0" type="curve"/>
			<point x="1376" y="1388" type="line"/>
			<point x="1376" y="1388"/>
			<point x="1376" y="1388"/>
		</contour>
		<contour>
			<point x="856" y="744" type="line"/>
			<point x="1074" y="744" type="line"/>
			<point x="1074" y="744"/>
			<point x="1074" y="744"/>
			<point x="1074" y="744" type="curve"/>
			<point x="1074" y="860" type="line"/>
			<point x="1074" y="860"/>
			<point x="1074" y="860"/>
			<point x="1074" y="860" type="curve"/>
			<point x="852" y="860" type="line"/>
			<point x="852" y="1122" type="line" smooth="yes"/>
			<point x="852" y="1228"/>
			<point x="900" y="1282"/>
			<point x="964" y="1282" type="curve" smooth="yes"/>
			<point x="1018" y="1282"/>
			<point x="1068" y="1260"/>
			<point x="1074" y="1256" type="curve"/>
			<point x="1074" y="1256"/>
			<point x="1074" y="1256"/>
			<point x="1074" y="1256" type="curve"/>
			<point x="1074" y="1256"/>
			<point x="1074" y="1256"/>
			<point x="1074" y="1256" type="curve"/>
			<point x="1074" y="1388" type="line"/>
			<point x="1074" y="1388"/>
			<point x="1074" y="1388"/>
			<point x="1074" y="1388" type="curve"/>
			<point x="1058" y="1392"/>
			<point x="1012" y="1404"/>
			<point x="964" y="1404" type="curve" smooth="yes"/>
			<point x="814" y="1404"/>
			<point x="708" y="1252"/>
			<point x="708" y="1058" type="curve" smooth="yes"/>
			<point x="708" y="0" type="line"/>
			<point x="708" y="0"/>
			<point x="708" y="0"/>
			<point x="708" y="0" type="curve"/>
			<point x="856" y="0" type="line"/>
			<point x="856" y="0"/>
			<point x="856" y="0"/>
			<point x="856" y="0" type="curve"/>
		</contour>
	</outline>
</glyph>
<glyph name="fi" format="2">
	<advance width="503"/>
	<outline>
		<contour>
			<point x="430" y="695" type="line"/>
			<point x="350" y="695" type="line"/>
			<point x="350" y="615" type="line"/>
			<point x="430" y="615" type="line"/>
		</contour>
		<contour>
			<point x="427" y="430" type="line"/>
			<point x="353" y="430" type="line"/>
			<point x="353" y="0" type="line"/>
			<point x="427" y="0" type="line"/>
		</contour>
		<contour>
			<point x="168" y="372" type="line"/>
			<point x="277" y="372" type="line"/>
			<point x="277" y="430" type="line"/>
			<point x="166" y="430" type="line"/>
			<point x="166" y="561" type="line" smooth="yes"/>
			<point x="166" y="614"/>
			<point x="190" y="641"/>
			<point x="222" y="641" type="curve" smooth="yes"/>
			<point x="241" y="641"/>
			<point x="260" y="636"/>
			<point x="277" y="627" type="curve"/>
			<point x="277" y="694" type="line"/>
			<point x="269" y="696"/>
			<point x="246" y="702"/>
			<point x="222" y="702" type="curve" smooth="yes"/>
			<point x="147" y="702"/>
			<point x="94" y="626"/>
			<point x="94" y="529" type="curve" smooth="yes"/>
			<point x="94" y="430" type="line"/>
			<point x="25" y="430" type="line"/>
			<point x="25" y="372" type="line"/>
			<point x="94" y="372" type="line"/>
			<point x="94" y="0" type="line"/>
			<point x="168" y="0" type="line"/>
		</contour>
	</outline>
</glyph>
<glyph name="sfthyphen" format="2">
	<advance width="626"/>
	<outline>
		<contour>
			<point x="520" y="372" type="curve"/>
			<point x="520" y="411"/>
			<point x="520" y="449"/>
			<point x="520" y="488" type="curve"/>
			<point x="520" y="488"/>
			<point x="520" y="488"/>
			<point x="520" y="488" type="curve"/>
			<point x="354" y="488"/>
			<point x="187" y="488"/>
			<point x="20" y="488" type="curve"/>
			<point x="20" y="488"/>
			<point x="20" y="488"/>
			<point x="20" y="488" type="curve"/>
			<point x="20" y="449"/>
			<point x="20" y="411"/>
			<point x="20" y="372" type="curve"/>
			<point x="20" y="372"/>
			<point x="20" y="372"/>
			<point x="20" y="372" type="curve"/>
			<point x="187" y="372"/>
			<point x="353" y="372"/>
			<point x="520" y="372" type="curve"/>
			<point x="520" y="372"/>
			<point x="520" y="372"/>
		</contour>
	</outline>
</glyph>
